<svg xmlns="http://www.w3.org/2000/svg" height="512pt" version="1.1" viewBox="0 0 512 512" width="512pt">
<g id="surface1">
<path d="M 512 256 C 512 397.386719 397.386719 512 256 512 C 114.613281 512 0 397.386719 0 256 C 0 114.613281 114.613281 0 256 0 C 397.386719 0 512 114.613281 512 256 Z M 512 256 " style=" stroke:none;fill-rule:nonzero;fill:rgb(25.490196%,28.627451%,32.156863%);fill-opacity:1;" />
<path d="M 512 256 C 512 254.269531 511.96875 252.542969 511.933594 250.816406 L 339.976562 78.859375 L 320.769531 200.8125 L 198.816406 78.859375 L 207.90625 107.824219 L 124.230469 433.84375 L 195.070312 504.683594 C 214.601562 509.453125 235 512 256 512 C 397.386719 512 512 397.386719 512 256 Z M 512 256 " style=" stroke:none;fill-rule:nonzero;fill:rgb(13.72549%,15.294118%,16.862745%);fill-opacity:1;" />
<path d="M 231.824219 274.121094 L 139.015625 274.121094 L 139.015625 172.3125 C 139.015625 152.238281 143.734375 132.445312 152.792969 114.53125 L 168.183594 84.089844 C 175.328125 69.957031 195.515625 69.957031 202.660156 84.089844 L 218.050781 114.53125 C 227.105469 132.445312 231.824219 152.238281 231.824219 172.3125 Z M 231.824219 274.121094 " style=" stroke:none;fill-rule:nonzero;fill:rgb(100%,83.137255%,0%);fill-opacity:1;" />
<path d="M 231.824219 172.3125 C 231.824219 152.238281 227.105469 132.445312 218.050781 114.53125 L 202.660156 84.089844 C 198.792969 76.441406 191.109375 72.941406 183.738281 73.570312 L 183.738281 274.121094 L 231.824219 274.121094 Z M 231.824219 172.3125 " style=" stroke:none;fill-rule:nonzero;fill:rgb(99.215686%,72.941176%,7.058824%);fill-opacity:1;" />
<path d="M 133.40625 193.664062 L 237.433594 193.664062 L 237.433594 419.671875 L 133.40625 419.671875 Z M 133.40625 193.664062 " style=" stroke:none;fill-rule:nonzero;fill:rgb(99.215686%,72.941176%,7.058824%);fill-opacity:1;" />
<path d="M 183.738281 193.664062 L 237.433594 193.664062 L 237.433594 419.671875 L 183.738281 419.671875 Z M 183.738281 193.664062 " style=" stroke:none;fill-rule:nonzero;fill:rgb(100%,63.921569%,0%);fill-opacity:1;" />
<path d="M 124.230469 397.128906 L 246.613281 397.128906 L 246.613281 433.84375 L 124.230469 433.84375 Z M 124.230469 397.128906 " style=" stroke:none;fill-rule:nonzero;fill:rgb(100%,83.137255%,0%);fill-opacity:1;" />
<path d="M 183.738281 397.128906 L 246.613281 397.128906 L 246.613281 433.84375 L 183.738281 433.84375 Z M 183.738281 397.128906 " style=" stroke:none;fill-rule:nonzero;fill:rgb(99.215686%,72.941176%,7.058824%);fill-opacity:1;" />
<path d="M 372.984375 274.121094 L 280.175781 274.121094 L 280.175781 172.3125 C 280.175781 152.238281 284.894531 132.445312 293.949219 114.53125 L 309.339844 84.089844 C 316.484375 69.957031 336.671875 69.957031 343.816406 84.089844 L 359.207031 114.53125 C 368.265625 132.445312 372.984375 152.238281 372.984375 172.3125 Z M 372.984375 274.121094 " style=" stroke:none;fill-rule:nonzero;fill:rgb(100%,83.137255%,0%);fill-opacity:1;" />
<path d="M 372.984375 172.3125 C 372.984375 152.238281 368.265625 132.445312 359.207031 114.53125 L 343.816406 84.089844 C 340.351562 77.234375 333.816406 73.714844 327.191406 73.507812 L 327.191406 274.121094 L 372.984375 274.121094 Z M 372.984375 172.3125 " style=" stroke:none;fill-rule:nonzero;fill:rgb(99.215686%,72.941176%,7.058824%);fill-opacity:1;" />
<path d="M 274.566406 193.664062 L 378.59375 193.664062 L 378.59375 419.671875 L 274.566406 419.671875 Z M 274.566406 193.664062 " style=" stroke:none;fill-rule:nonzero;fill:rgb(99.215686%,72.941176%,7.058824%);fill-opacity:1;" />
<path d="M 327.191406 193.664062 L 378.59375 193.664062 L 378.59375 419.671875 L 327.191406 419.671875 Z M 327.191406 193.664062 " style=" stroke:none;fill-rule:nonzero;fill:rgb(100%,63.921569%,0%);fill-opacity:1;" />
<path d="M 265.386719 397.128906 L 387.769531 397.128906 L 387.769531 433.84375 L 265.386719 433.84375 Z M 265.386719 397.128906 " style=" stroke:none;fill-rule:nonzero;fill:rgb(100%,83.137255%,0%);fill-opacity:1;" />
<path d="M 327.191406 397.128906 L 387.769531 397.128906 L 387.769531 433.84375 L 327.191406 433.84375 Z M 327.191406 397.128906 " style=" stroke:none;fill-rule:nonzero;fill:rgb(99.215686%,72.941176%,7.058824%);fill-opacity:1;" />
</g>
</svg>