<?xml version="1.0" encoding="iso-8859-1"?>
<!-- Generator: Adobe Illustrator 19.1.0, SVG Export Plug-In . SVG Version: 6.00 Build 0)  -->
<svg version="1.1" id="Capa_1" xmlns="http://www.w3.org/2000/svg" xmlns:xlink="http://www.w3.org/1999/xlink" x="0px" y="0px"
	 viewBox="0 0 415.154 415.154" style="enable-background:new 0 0 415.154 415.154;" xml:space="preserve">
<g>
	<path style="fill:#ED8870;" d="M415.153,207.577C415.153,92.935,322.221,0,207.579,0C92.933,0,0.001,92.935,0.001,207.577
		c0,114.643,92.932,207.577,207.578,207.577C322.221,415.154,415.153,322.22,415.153,207.577z"/>
	<path style="fill:#E06F54;" d="M85.856,347.423c0-3.27-3.252-6.243-8.561-8.463H368.28c2.663-3.253,5.226-6.591,7.691-10.005
		c0.094-0.13,0.191-0.259,0.283-0.39c0.686-0.954,1.359-1.918,2.029-2.883c0.208-0.299,0.417-0.597,0.623-0.898
		c0.627-0.915,1.245-1.836,1.857-2.761c0.234-0.353,0.467-0.706,0.699-1.06c0.596-0.913,1.186-1.829,1.768-2.752
		c0.226-0.358,0.449-0.719,0.673-1.078c0.585-0.939,1.166-1.881,1.737-2.831c0.18-0.3,0.357-0.604,0.536-0.906
		c2.059-3.468,4.025-6.999,5.885-10.593c0.024-0.047,0.051-0.095,0.075-0.142c0.496-0.96,0.977-1.928,1.458-2.897
		c0.216-0.436,0.436-0.87,0.649-1.308c0.434-0.888,0.856-1.783,1.277-2.679c0.247-0.524,0.493-1.048,0.735-1.575
		c0.397-0.864,0.788-1.732,1.174-2.603c0.251-0.566,0.499-1.135,0.745-1.704c0.37-0.853,0.737-1.709,1.095-2.57
		c0.247-0.591,0.487-1.188,0.727-1.782c0.347-0.853,0.693-1.708,1.029-2.568c0.235-0.603,0.461-1.211,0.69-1.816
		c0.327-0.863,0.658-1.723,0.974-2.59c0.178-0.488,0.344-0.981,0.518-1.47c0.592-1.668,1.163-3.347,1.715-5.034
		c0.238-0.732,0.482-1.463,0.712-2.197c0.242-0.77,0.472-1.545,0.706-2.318c0.23-0.763,0.459-1.525,0.681-2.292
		c0.22-0.762,0.432-1.527,0.644-2.292c0.218-0.789,0.433-1.58,0.642-2.374c0.198-0.753,0.393-1.509,0.584-2.265
		c0.207-0.823,0.407-1.648,0.604-2.475c0.175-0.733,0.349-1.467,0.516-2.203c0.201-0.887,0.391-1.779,0.582-2.67
		c0.145-0.684,0.295-1.366,0.433-2.053c0.22-1.084,0.424-2.175,0.626-3.265c0.093-0.501,0.194-0.997,0.283-1.498
		c0.279-1.567,0.538-3.141,0.782-4.72c0.084-0.546,0.157-1.095,0.237-1.642c0.156-1.077,0.312-2.154,0.452-3.235
		c0.083-0.646,0.158-1.294,0.236-1.942c0.119-0.992,0.235-1.986,0.34-2.983c0.072-0.675,0.137-1.353,0.202-2.032
		c0.095-0.982,0.182-1.966,0.262-2.952c0.056-0.679,0.109-1.357,0.157-2.038c0.073-1.014,0.135-2.029,0.194-3.046
		c0.036-0.649,0.076-1.297,0.107-1.948c0.053-1.118,0.092-2.239,0.128-3.361c0.018-0.551,0.041-1.1,0.054-1.651
		c0.04-1.674,0.064-3.353,0.064-5.037C415.153,92.935,322.221,0,207.579,0c-1.614,0-3.224,0.024-4.83,0.061
		c-0.967,0.023-1.932,0.06-2.897,0.097c-0.555,0.02-1.112,0.039-1.666,0.063c-1.271,0.058-2.539,0.128-3.805,0.208
		c-0.18,0.013-0.359,0.023-0.54,0.035c-1.414,0.094-2.825,0.199-4.231,0.319L6.577,259.607c0.003,0.012,0.006,0.024,0.009,0.036
		c0.438,1.697,0.899,3.384,1.378,5.062c0.115,0.4,0.239,0.796,0.355,1.194c0.378,1.296,0.762,2.588,1.164,3.872
		c0.153,0.485,0.315,0.964,0.47,1.448c0.386,1.198,0.775,2.394,1.181,3.583c0.17,0.496,0.349,0.987,0.522,1.481
		c0.412,1.175,0.829,2.349,1.261,3.514c0.176,0.474,0.359,0.944,0.54,1.416c0.449,1.185,0.905,2.368,1.376,3.543
		c0.175,0.434,0.354,0.866,0.531,1.299c0.497,1.215,1.001,2.426,1.519,3.628c0.164,0.379,0.331,0.757,0.497,1.135
		c0.552,1.261,1.116,2.517,1.693,3.766c0.144,0.311,0.29,0.621,0.434,0.929c0.62,1.322,1.251,2.637,1.898,3.944
		c0.114,0.23,0.228,0.459,0.344,0.689c0.698,1.399,1.411,2.789,2.139,4.17c0.072,0.134,0.141,0.269,0.213,0.401
		c0.793,1.494,1.603,2.978,2.431,4.451c0.012,0.02,0.022,0.04,0.035,0.061c5.205,9.242,11.098,18.047,17.608,26.345
		c0,0-0.015,0.002-0.021,0.003c6.545,8.344,13.723,16.167,21.448,23.415C77.461,357.172,85.856,352.68,85.856,347.423z"/>
	<path style="fill:#EA7053;" d="M35.605,250.424v49.906h357.709c7.813-15.616,13.718-32.351,17.402-49.906H35.605z"/>
	<g>
		<polygon style="fill:#FFFFFF;" points="214.356,134.642 165.585,134.642 146.271,162.812 196.001,162.812 		"/>
		<polygon style="fill:#FFFFFF;" points="200.388,218.317 252.812,218.317 268.052,194.92 215.63,194.92 		"/>
		<path style="fill:#FFFFFF;" d="M410.298,162.812c-0.385-1.753-0.792-3.498-1.222-5.234l-3.41,5.234H410.298z"/>
		<polygon style="fill:#FFFFFF;" points="289.016,20.039 244.154,20.039 228.54,42.815 274.179,42.815 		"/>
		<polygon style="fill:#FFFFFF;" points="253.26,74.923 206.527,74.923 187.598,102.534 235.274,102.534 		"/>
		<polygon style="fill:#FFFFFF;" points="159.842,218.317 175.083,194.92 124.258,194.92 108.218,218.317 		"/>
		<polygon style="fill:#FFFFFF;" points="293.358,218.317 328.96,218.317 344.201,194.92 308.6,194.92 		"/>
		<polygon style="fill:#FFFFFF;" points="254.902,134.642 236.549,162.812 288.971,162.812 307.324,134.642 		"/>
		<path style="fill:#FFFFFF;" d="M333.831,42.815c-4.233-3.249-8.593-6.339-13.074-9.259l-6.032,9.259H333.831z"/>
		<path style="fill:#FFFFFF;" d="M369.507,218.317h45.372c0.181-3.557,0.274-7.138,0.274-10.74c0-4.251-0.143-8.469-0.395-12.657
			h-30.01L369.507,218.317z"/>
		<polygon style="fill:#FFFFFF;" points="365.12,162.812 383.473,134.642 347.871,134.642 329.517,162.812 		"/>
		<polygon style="fill:#FFFFFF;" points="328.241,102.534 346.231,74.923 293.806,74.923 275.82,102.534 		"/>
		<path style="fill:#FFFFFF;" d="M386.635,102.534c-2.776-4.721-5.731-9.323-8.86-13.795l-8.988,13.795H386.635z"/>
		<path style="fill:#505B66;" d="M410.715,250.424c2.19-10.437,3.606-21.158,4.164-32.107h-45.372l15.241-23.397h30.01
			c-0.659-10.954-2.167-21.677-4.46-32.108h-4.631l3.41-5.234c-4.846-19.594-12.473-38.088-22.441-55.044h-17.847l8.988-13.795
			c-12.219-17.467-27.056-32.962-43.944-45.923h-19.106l6.032-9.259C288.203,12.34,249.335,0,207.579,0
			c-0.097,0-0.193,0.004-0.291,0.004L35.605,250.424H410.715z M252.812,218.317h-52.424l15.243-23.397h52.422L252.812,218.317z
			 M236.549,162.812l18.353-28.171h52.422l-18.353,28.171H236.549z M328.96,218.317h-35.602L308.6,194.92h35.602L328.96,218.317z
			 M383.473,134.642l-18.353,28.171h-35.603l18.354-28.171H383.473z M346.231,74.923l-17.99,27.611H275.82l17.986-27.611H346.231z
			 M244.154,20.039h44.862l-14.837,22.776H228.54L244.154,20.039z M206.527,74.923h46.733l-17.986,27.611h-47.676L206.527,74.923z
			 M165.585,134.642h48.771l-18.355,28.171h-49.73L165.585,134.642z M175.083,194.92l-15.242,23.397h-51.623l16.04-23.397H175.083z"
			/>
	</g>
	<path style="fill:#F5ECE1;" d="M35.605,250.424v49.906h357.709c7.813-15.616,13.718-32.351,17.402-49.906H35.605z"/>
	<path style="fill:#F5ECE1;" d="M35.605,250.424v49.906h357.709c7.813-15.616,13.718-32.351,17.402-49.906H35.605z"/>
	<path style="fill:#F5ECE1;" d="M35.605,250.424v49.906h357.709c7.813-15.616,13.718-32.351,17.402-49.906H35.605z"/>
	<path style="fill:#00B5AE;" d="M147.631,200.142h-3.994c2.35-1.83,3.869-4.683,3.869-7.892c0-3.493-1.791-6.565-4.502-8.356
		c3.868-1.996,6.517-6.023,6.517-10.676c0-6.64-5.381-12.021-12.021-12.021c-6.64,0-12.021,5.38-12.021,12.021
		c0,4.653,2.647,8.68,6.516,10.676c-2.712,1.791-4.504,4.863-4.504,8.356c0,3.21,1.521,6.062,3.871,7.892h-3.991
		c-5.77,0-10.444,4.677-10.444,10.446c0,0.215,0.018,0.426,0.032,0.64h41.084c0.013-0.214,0.032-0.425,0.032-0.64
		C158.076,204.819,153.399,200.142,147.631,200.142z"/>
	<path style="fill:#00B5AE;" d="M186.237,144.04h-3.994c2.35-1.829,3.87-4.683,3.87-7.892c0-3.492-1.792-6.565-4.505-8.356
		c3.87-1.995,6.518-6.023,6.518-10.676c0-6.64-5.38-12.02-12.019-12.02c-6.643,0-12.023,5.379-12.023,12.02
		c0,4.653,2.648,8.682,6.516,10.676c-2.711,1.791-4.502,4.864-4.502,8.356c0,3.21,1.519,6.063,3.87,7.892h-3.991
		c-5.769,0-10.444,4.678-10.444,10.446c0,0.215,0.019,0.427,0.032,0.641h41.084c0.013-0.214,0.032-0.426,0.032-0.641
		C196.681,148.719,192.005,144.04,186.237,144.04z"/>
	<path style="fill:#00B5AE;" d="M237.652,200.142h-3.995c2.351-1.83,3.87-4.683,3.87-7.892c0-3.493-1.791-6.565-4.501-8.356
		c3.867-1.996,6.516-6.023,6.516-10.676c0-6.64-5.381-12.021-12.021-12.021c-6.64,0-12.022,5.38-12.022,12.021
		c0,4.653,2.648,8.68,6.517,10.676c-2.712,1.791-4.504,4.863-4.504,8.356c0,3.21,1.521,6.062,3.871,7.892h-3.991
		c-5.77,0-10.445,4.677-10.445,10.446c0,0.215,0.018,0.426,0.033,0.64h41.084c0.013-0.214,0.032-0.425,0.032-0.64
		C248.096,204.819,243.42,200.142,237.652,200.142z"/>
	<path style="fill:#009993;" d="M147.631,200.142h-3.994c2.35-1.83,3.869-4.683,3.869-7.892c0-3.493-1.791-6.565-4.502-8.356
		c3.868-1.996,6.517-6.023,6.517-10.676c0-6.64-5.381-12.021-12.021-12.021c-0.905,0-1.785,0.11-2.634,0.299
		c5.37,1.202,9.384,5.986,9.384,11.721c0,4.653-2.649,8.68-6.517,10.676c2.711,1.791,4.503,4.863,4.503,8.356
		c0,3.21-1.519,6.062-3.87,7.892h3.995c5.768,0,10.444,4.677,10.444,10.446c0,0.215-0.019,0.426-0.032,0.64h5.271
		c0.013-0.214,0.032-0.425,0.032-0.64C158.076,204.819,153.399,200.142,147.631,200.142z"/>
	<path style="fill:#009993;" d="M186.237,144.04h-3.994c2.35-1.829,3.87-4.683,3.87-7.892c0-3.492-1.792-6.565-4.505-8.356
		c3.87-1.995,6.518-6.023,6.518-10.676c0-6.64-5.38-12.02-12.019-12.02c-0.907,0-1.787,0.109-2.636,0.297
		c5.37,1.204,9.384,5.99,9.384,11.722c0,4.653-2.649,8.682-6.518,10.676c2.713,1.791,4.505,4.864,4.505,8.356
		c0,3.21-1.52,6.063-3.87,7.892h3.994c5.769,0,10.444,4.678,10.444,10.446c0,0.215-0.019,0.427-0.032,0.641h5.271
		c0.013-0.214,0.032-0.426,0.032-0.641C196.681,148.719,192.005,144.04,186.237,144.04z"/>
	<path style="fill:#009993;" d="M237.652,200.142h-3.995c2.351-1.83,3.87-4.683,3.87-7.892c0-3.493-1.791-6.565-4.501-8.356
		c3.867-1.996,6.516-6.023,6.516-10.676c0-6.64-5.381-12.021-12.021-12.021c-0.906,0-1.787,0.11-2.634,0.299
		c5.37,1.202,9.384,5.986,9.384,11.721c0,4.653-2.649,8.68-6.518,10.676c2.712,1.791,4.504,4.863,4.504,8.356
		c0,3.21-1.519,6.062-3.871,7.892h3.996c5.768,0,10.444,4.677,10.444,10.446c0,0.215-0.019,0.426-0.032,0.64h5.271
		c0.013-0.214,0.032-0.425,0.032-0.64C248.096,204.819,243.42,200.142,237.652,200.142z"/>
	<path style="fill:#00B5AE;" d="M53.423,323.652l1.794,3.569c-2.691-1.278-5.923-1.353-8.789,0.089
		c-3.121,1.57-5.06,4.55-5.443,7.776c-3.519-2.558-8.307-3.115-12.465-1.024c-5.932,2.983-8.32,10.208-5.337,16.14
		c2.983,5.932,10.208,8.322,16.141,5.339c4.157-2.091,6.565-6.266,6.609-10.619c2.819,1.617,6.368,1.838,9.489,0.268
		c2.867-1.442,4.732-4.082,5.311-7.004l1.793,3.566c2.593,5.155,8.872,7.23,14.027,4.637c0.192-0.097,0.372-0.207,0.556-0.316
		l-18.461-36.703c-0.196,0.084-0.393,0.162-0.585,0.259C52.909,312.22,50.831,318.499,53.423,323.652z"/>
	<path style="fill:#009993;" d="M53.423,323.652l1.794,3.569c-2.691-1.278-5.923-1.353-8.789,0.089
		c-3.121,1.57-5.06,4.55-5.443,7.776c-3.519-2.558-8.307-3.115-12.465-1.024c-5.932,2.983-8.32,10.208-5.337,16.14
		c0.408,0.81,0.901,1.548,1.451,2.219c-1.338-5.337,1.131-11.073,6.255-13.651c4.157-2.091,8.945-1.534,12.467,1.026
		c0.381-3.229,2.321-6.208,5.441-7.779c2.867-1.441,6.098-1.366,8.79-0.086l-1.794-3.57c-2.592-5.153-0.514-11.433,4.639-14.025
		c0.192-0.097,0.39-0.175,0.586-0.259l-2.369-4.708c-0.196,0.084-0.393,0.162-0.585,0.259
		C52.909,312.22,50.831,318.499,53.423,323.652z"/>
	<ellipse style="fill:#E06F54;" cx="170.766" cy="371.533" rx="31.979" ry="12.435"/>
	<path style="fill:#00B5AE;" d="M165.584,354.463l-3.399,2.096c1.039-2.791,0.835-6.018-0.85-8.748
		c-1.835-2.975-4.97-4.648-8.218-4.751c2.244-3.727,2.384-8.546-0.06-12.506c-3.485-5.652-10.89-7.404-16.54-3.919
		c-5.653,3.486-7.408,10.889-3.922,16.542c2.443,3.96,6.811,5.997,11.15,5.665c-1.366,2.947-1.279,6.501,0.556,9.476
		c1.684,2.731,4.476,4.36,7.437,4.683l-3.396,2.097c-4.911,3.03-6.435,9.466-3.407,14.376c0.114,0.182,0.238,0.352,0.364,0.526
		l34.965-21.568c-0.099-0.189-0.195-0.378-0.308-0.561C176.929,352.96,170.493,351.433,165.584,354.463z"/>
	<path style="fill:#009993;" d="M165.584,354.463l-3.399,2.096c1.039-2.791,0.835-6.018-0.85-8.748
		c-1.835-2.975-4.97-4.648-8.218-4.751c2.244-3.727,2.384-8.546-0.06-12.506c-3.485-5.652-10.89-7.404-16.54-3.919
		c-0.772,0.475-1.465,1.03-2.085,1.637c5.202-1.795,11.128,0.166,14.14,5.049c2.442,3.96,2.304,8.777,0.058,12.509
		c3.25,0.1,6.386,1.776,8.22,4.747c1.684,2.732,1.888,5.957,0.847,8.749l3.401-2.096c4.91-3.028,11.345-1.503,14.374,3.407
		c0.115,0.182,0.21,0.373,0.31,0.561l4.484-2.767c-0.099-0.189-0.195-0.378-0.308-0.561
		C176.929,352.96,170.493,351.433,165.584,354.463z"/>
	<path style="fill:#ED8870;" d="M411.937,244.164c-0.09,0.502-0.191,0.998-0.283,1.498
		C411.746,245.162,411.847,244.665,411.937,244.164z"/>
	<path style="fill:#ED8870;" d="M411.027,248.928c-0.138,0.687-0.288,1.369-0.433,2.053
		C410.74,250.296,410.889,249.615,411.027,248.928z"/>
	<path style="fill:#ED8870;" d="M404.924,272.067c-0.552,1.687-1.123,3.366-1.715,5.034
		C403.801,275.433,404.372,273.754,404.924,272.067z"/>
	<path style="fill:#ED8870;" d="M410.013,253.65c-0.168,0.737-0.341,1.47-0.516,2.203
		C409.671,255.12,409.846,254.387,410.013,253.65z"/>
	<path style="fill:#ED8870;" d="M406.343,267.552c-0.234,0.773-0.464,1.548-0.706,2.318
		C405.879,269.1,406.109,268.325,406.343,267.552z"/>
	<path style="fill:#ED8870;" d="M407.667,262.968c-0.212,0.765-0.423,1.53-0.644,2.292
		C407.244,264.498,407.455,263.733,407.667,262.968z"/>
	<path style="fill:#ED8870;" d="M402.69,278.571c-0.316,0.867-0.647,1.727-0.974,2.59
		C402.043,280.298,402.374,279.438,402.69,278.571z"/>
	<path style="fill:#ED8870;" d="M408.893,258.329c-0.191,0.756-0.386,1.512-0.584,2.265
		C408.507,259.841,408.702,259.085,408.893,258.329z"/>
	<path style="fill:#ED8870;" d="M19.075,294.584c-0.577-1.249-1.141-2.505-1.693-3.766C17.934,292.08,18.499,293.335,19.075,294.584
		z"/>
	<path style="fill:#ED8870;" d="M16.885,289.683c-0.518-1.202-1.022-2.413-1.519-3.628C15.862,287.27,16.366,288.48,16.885,289.683z
		"/>
	<path style="fill:#ED8870;" d="M14.834,284.756c-0.471-1.175-0.927-2.357-1.376-3.543
		C13.907,282.399,14.363,283.581,14.834,284.756z"/>
	<path style="fill:#ED8870;" d="M21.407,299.457c-0.647-1.307-1.278-2.622-1.898-3.944
		C20.128,296.836,20.761,298.151,21.407,299.457z"/>
	<path style="fill:#ED8870;" d="M26.533,309.168c-0.828-1.473-1.637-2.957-2.431-4.451
		C24.895,306.212,25.705,307.695,26.533,309.168z"/>
	<path style="fill:#ED8870;" d="M12.919,279.797c-0.432-1.165-0.849-2.339-1.261-3.514
		C12.069,277.458,12.487,278.632,12.919,279.797z"/>
	<path style="fill:#ED8870;" d="M11.136,274.802c-0.407-1.189-0.796-2.385-1.181-3.583C10.34,272.417,10.729,273.613,11.136,274.802
		z"/>
	<path style="fill:#ED8870;" d="M7.965,264.705c-0.479-1.678-0.94-3.366-1.378-5.062C7.025,261.339,7.486,263.026,7.965,264.705z"/>
	<path style="fill:#ED8870;" d="M9.484,269.771c-0.402-1.285-0.786-2.576-1.164-3.872C8.698,267.195,9.082,268.487,9.484,269.771z"
		/>
	<path style="fill:#ED8870;" d="M23.89,304.316c-0.728-1.38-1.441-2.77-2.139-4.17C22.448,301.546,23.162,302.935,23.89,304.316z"/>
	<path style="fill:#ED8870;" d="M26.568,309.23c5.201,9.242,11.079,18.052,17.587,26.348c0.006-0.001,0.014-0.002,0.014-0.002
		C37.666,327.276,31.774,318.472,26.568,309.23z"/>
	<path style="fill:#ED8870;" d="M385.64,314.302c-0.57,0.95-1.152,1.892-1.737,2.831C384.489,316.193,385.07,315.253,385.64,314.302
		z"/>
	<path style="fill:#ED8870;" d="M397.43,291.6c-0.386,0.87-0.777,1.739-1.174,2.603C396.654,293.339,397.045,292.47,397.43,291.6z"
		/>
	<path style="fill:#ED8870;" d="M393.595,299.764c-0.482,0.968-0.962,1.937-1.458,2.897
		C392.632,301.701,393.113,300.732,393.595,299.764z"/>
	<path style="fill:#ED8870;" d="M395.521,295.778c-0.421,0.896-0.843,1.79-1.277,2.679
		C394.677,297.567,395.1,296.674,395.521,295.778z"/>
	<path style="fill:#ED8870;" d="M380.764,322.024c-0.612,0.925-1.23,1.846-1.857,2.761
		C379.534,323.87,380.152,322.949,380.764,322.024z"/>
	<path style="fill:#ED8870;" d="M401.027,282.976c-0.336,0.86-0.683,1.714-1.029,2.568
		C400.344,284.691,400.691,283.836,401.027,282.976z"/>
	<path style="fill:#ED8870;" d="M383.231,318.211c-0.582,0.923-1.172,1.84-1.768,2.752
		C382.059,320.051,382.649,319.134,383.231,318.211z"/>
	<path style="fill:#ED8870;" d="M378.284,325.682c-0.67,0.965-1.343,1.929-2.029,2.883
		C376.942,327.611,377.614,326.648,378.284,325.682z"/>
	<path style="fill:#ED8870;" d="M399.27,287.326c-0.358,0.861-0.725,1.716-1.095,2.57
		C398.545,289.043,398.912,288.187,399.27,287.326z"/>
	<path style="fill:#ED8870;" d="M392.062,302.803c-1.86,3.594-3.826,7.125-5.885,10.593
		C388.236,309.927,390.202,306.397,392.062,302.803z"/>
	<path style="opacity:0.34;fill:#ED8870;" d="M378.907,324.784c-0.205,0.3-0.415,0.599-0.623,0.898
		C378.492,325.383,378.701,325.085,378.907,324.784z"/>
	<path style="opacity:0.34;fill:#ED8870;" d="M9.954,271.219c-0.155-0.484-0.317-0.963-0.47-1.448
		C9.637,270.256,9.799,270.735,9.954,271.219z"/>
	<path style="opacity:0.34;fill:#ED8870;" d="M8.32,265.899c-0.116-0.398-0.24-0.793-0.355-1.194
		C8.08,265.105,8.204,265.5,8.32,265.899z"/>
	<path style="opacity:0.34;fill:#ED8870;" d="M381.462,320.964c-0.232,0.354-0.465,0.707-0.699,1.06
		C380.998,321.671,381.231,321.318,381.462,320.964z"/>
	<path style="opacity:0.34;fill:#ED8870;" d="M6.577,259.607c0.003,0.012,0.006,0.024,0.009,0.036
		C6.584,259.631,6.58,259.619,6.577,259.607L6.577,259.607z"/>
	<path style="opacity:0.34;fill:#ED8870;" d="M24.103,304.718c-0.072-0.133-0.141-0.268-0.213-0.401
		C23.961,304.45,24.031,304.585,24.103,304.718z"/>
	<path style="opacity:0.34;fill:#ED8870;" d="M19.509,295.513c-0.144-0.309-0.29-0.619-0.434-0.929
		C19.22,294.895,19.364,295.205,19.509,295.513z"/>
	<path style="opacity:0.34;fill:#ED8870;" d="M21.751,300.146c-0.116-0.23-0.23-0.459-0.344-0.689
		C21.521,299.687,21.635,299.917,21.751,300.146z"/>
	<path style="opacity:0.34;fill:#ED8870;" d="M26.568,309.23c-0.013-0.021-0.023-0.041-0.035-0.061
		C26.545,309.188,26.556,309.208,26.568,309.23z"/>
	<path style="opacity:0.34;fill:#ED8870;" d="M17.382,290.818c-0.166-0.378-0.333-0.756-0.497-1.135
		C17.049,290.062,17.216,290.44,17.382,290.818z"/>
	<path style="opacity:0.34;fill:#ED8870;" d="M376.255,328.565c-0.093,0.131-0.19,0.26-0.283,0.39
		C376.065,328.825,376.162,328.696,376.255,328.565z"/>
	<path style="opacity:0.34;fill:#ED8870;" d="M13.458,281.213c-0.18-0.472-0.364-0.942-0.54-1.416
		C13.094,280.271,13.278,280.741,13.458,281.213z"/>
	<path style="opacity:0.34;fill:#ED8870;" d="M401.717,281.161c-0.23,0.605-0.455,1.213-0.69,1.816
		C401.262,282.374,401.487,281.766,401.717,281.161z"/>
	<path style="opacity:0.34;fill:#ED8870;" d="M15.365,286.055c-0.177-0.433-0.356-0.865-0.531-1.299
		C15.009,285.19,15.188,285.622,15.365,286.055z"/>
	<path style="opacity:0.34;fill:#ED8870;" d="M11.657,276.283c-0.173-0.494-0.352-0.985-0.522-1.481
		C11.305,275.298,11.483,275.789,11.657,276.283z"/>
	<path style="opacity:0.34;fill:#ED8870;" d="M409.496,255.854c-0.197,0.827-0.397,1.652-0.604,2.475
		C409.099,257.506,409.299,256.681,409.496,255.854z"/>
	<path style="opacity:0.34;fill:#ED8870;" d="M411.653,245.662c-0.202,1.091-0.406,2.181-0.626,3.265
		C411.248,247.843,411.451,246.753,411.653,245.662z"/>
	<path style="opacity:0.34;fill:#ED8870;" d="M410.594,250.98c-0.191,0.891-0.38,1.783-0.582,2.67
		C410.214,252.763,410.404,251.872,410.594,250.98z"/>
	<path style="opacity:0.34;fill:#ED8870;" d="M396.256,294.202c-0.242,0.527-0.489,1.052-0.735,1.575
		C395.768,295.254,396.014,294.729,396.256,294.202z"/>
	<path style="opacity:0.34;fill:#ED8870;" d="M398.175,289.896c-0.246,0.569-0.494,1.138-0.745,1.704
		C397.681,291.034,397.93,290.465,398.175,289.896z"/>
	<path style="opacity:0.34;fill:#ED8870;" d="M408.309,260.594c-0.209,0.794-0.424,1.585-0.642,2.374
		C407.885,262.179,408.1,261.389,408.309,260.594z"/>
	<path style="opacity:0.34;fill:#ED8870;" d="M407.023,265.26c-0.221,0.767-0.451,1.529-0.681,2.292
		C406.572,266.789,406.802,266.027,407.023,265.26z"/>
	<path style="opacity:0.34;fill:#ED8870;" d="M403.209,277.101c-0.175,0.489-0.34,0.982-0.518,1.47
		C402.869,278.083,403.034,277.59,403.209,277.101z"/>
	<path style="opacity:0.34;fill:#ED8870;" d="M399.997,285.544c-0.24,0.594-0.48,1.191-0.727,1.782
		C399.517,286.735,399.757,286.14,399.997,285.544z"/>
	<path style="opacity:0.34;fill:#ED8870;" d="M405.637,269.87c-0.231,0.734-0.474,1.465-0.712,2.197
		C405.162,271.335,405.406,270.605,405.637,269.87z"/>
	<path style="opacity:0.34;fill:#ED8870;" d="M386.177,313.396c-0.179,0.302-0.356,0.606-0.536,0.906
		C385.821,314.002,385.998,313.698,386.177,313.396z"/>
	<path style="opacity:0.34;fill:#ED8870;" d="M394.244,298.456c-0.213,0.437-0.433,0.871-0.649,1.308
		C393.811,299.328,394.031,298.894,394.244,298.456z"/>
	<path style="opacity:0.34;fill:#ED8870;" d="M383.904,317.133c-0.224,0.359-0.448,0.72-0.673,1.078
		C383.456,317.853,383.679,317.493,383.904,317.133z"/>
	<path style="opacity:0.34;fill:#ED8870;" d="M392.137,302.661c-0.024,0.047-0.051,0.095-0.075,0.142
		C392.086,302.756,392.112,302.708,392.137,302.661z"/>
	<path style="opacity:0.34;fill:#ED8870;" d="M412.719,239.444c-0.243,1.578-0.503,3.153-0.782,4.72
		C412.216,242.597,412.475,241.023,412.719,239.444z"/>
	<path style="fill:#ED8870;" d="M129.555,387.077c0-6.866-14.317-12.434-31.979-12.434c-4.231,0-8.265,0.322-11.962,0.903
		c10.776,7.838,22.334,14.662,34.536,20.338C125.96,393.632,129.555,390.517,129.555,387.077z"/>
	<path style="fill:#E06F54;" d="M129.555,387.077c0-6.866-14.317-12.434-31.979-12.434c-4.231,0-8.265,0.322-11.962,0.903
		c10.776,7.838,22.334,14.662,34.536,20.338C125.96,393.632,129.555,390.517,129.555,387.077z"/>
	<path style="fill:#00B5AE;" d="M106.417,388.171l-3.811-1.197c2.79-1.042,5.094-3.31,6.053-6.373
		c1.045-3.333,0.255-6.799-1.795-9.321c4.286-0.745,8.019-3.797,9.411-8.238c1.987-6.335-1.539-13.079-7.875-15.065
		c-6.336-1.986-13.081,1.54-15.067,7.876c-1.392,4.439-0.069,9.076,3.026,12.135c-3.122,0.9-5.75,3.294-6.795,6.628
		c-0.961,3.062-0.363,6.239,1.333,8.689l-3.808-1.195c-5.507-1.725-11.366,1.341-13.091,6.847c-0.064,0.204-0.112,0.41-0.161,0.619
		l39.203,12.286c0.077-0.199,0.158-0.395,0.222-0.601C114.985,395.757,111.922,389.895,106.417,388.171z"/>
	<path style="fill:#009993;" d="M106.417,388.171l-3.811-1.197c2.79-1.042,5.094-3.31,6.053-6.373
		c1.045-3.333,0.255-6.799-1.795-9.321c4.286-0.745,8.019-3.797,9.411-8.238c1.987-6.335-1.539-13.079-7.875-15.065
		c-0.865-0.271-1.739-0.43-2.604-0.503c4.765,2.753,7.165,8.518,5.45,13.993c-1.391,4.438-5.123,7.491-9.413,8.238
		c2.054,2.521,2.843,5.987,1.8,9.32c-0.961,3.062-3.263,5.33-6.056,6.372l3.812,1.196c5.504,1.725,8.568,7.587,6.843,13.091
		c-0.063,0.205-0.145,0.401-0.22,0.602l5.027,1.575c0.077-0.199,0.158-0.395,0.222-0.601
		C114.985,395.757,111.922,389.895,106.417,388.171z"/>
</g>
<g>
</g>
<g>
</g>
<g>
</g>
<g>
</g>
<g>
</g>
<g>
</g>
<g>
</g>
<g>
</g>
<g>
</g>
<g>
</g>
<g>
</g>
<g>
</g>
<g>
</g>
<g>
</g>
<g>
</g>
</svg>
