<?xml version="1.0" encoding="iso-8859-1"?>
<!-- Generator: Adobe Illustrator 19.1.0, SVG Export Plug-In . SVG Version: 6.00 Build 0)  -->
<svg version="1.1" id="Capa_1" xmlns="http://www.w3.org/2000/svg" xmlns:xlink="http://www.w3.org/1999/xlink" x="0px" y="0px"
	 viewBox="0 0 433.102 433.102" style="enable-background:new 0 0 433.102 433.102;" xml:space="preserve">
<g>
	<path style="fill:#71BE5B;" d="M432.748,207.346C432.748,92.832,339.918,0,225.404,0C110.886,0,18.056,92.832,18.056,207.346
		c0,114.518,92.83,207.35,207.348,207.35C339.918,414.696,432.748,321.864,432.748,207.346z"/>
	<path style="fill:#F09883;" d="M251.987,1.69L18.106,211.239c1.75,94.975,67.341,174.343,155.675,196.978l256.897-230.168
		C417.669,86.079,344.334,13.511,251.987,1.69z"/>
	<g>
		<path style="fill:#F2E9C5;" d="M287.922,9.601l-35.286,52.961c-2.209,3.316-1.312,7.794,2.003,10.003l18.228,12.145
			c3.315,2.209,7.794,1.312,10.003-2.003l39.194-58.827C311.216,18.152,299.803,13.354,287.922,9.601z"/>
		<g>
			<path style="fill:#F2E9C5;" d="M92.848,431.89c3.316,2.209,7.794,1.312,10.003-2.003L334.57,82.101
				c2.209-3.316,1.312-7.794-2.003-10.003l-89.28-59.484c-3.316-2.209-7.794-1.312-10.003,2.003L1.565,362.403
				c-2.209,3.316-1.312,7.794,2.003,10.003L92.848,431.89z"/>
			<path style="fill:#C4422E;" d="M271.1,177.4l63.471-95.299c2.209-3.316,1.312-7.794-2.003-10.003l-89.28-59.484
				c-3.316-2.209-7.794-1.312-10.003,2.003l-63.325,95.045"/>
			<path style="fill:#565449;" d="M288.686,150.985l45.884-68.884c2.209-3.316,1.312-7.794-2.003-10.003l-89.28-59.484
				c-3.316-2.209-7.794-1.312-10.003,2.003l-45.73,68.636"/>
		</g>
	</g>
	<ellipse style="opacity:0.3;fill:#905B4F;" cx="235.443" cy="337.059" rx="49.986" ry="26.427"/>
	<path style="opacity:0.26;fill:#363535;" d="M305.419,16.016c5.681,2.38,11.234,5.006,16.646,7.864l-19.021,28.548l29.523,19.67
		c3.316,2.209,4.212,6.688,2.003,10.003L271.1,177.4l-0.017-0.011L102.851,429.887c-2.209,3.316-6.688,4.213-10.003,2.004
		l-19.51-12.999L306.929,75.444l-16.425-30.956L305.419,16.016z"/>
	<g>
		<g>
			<circle style="fill:#C4422E;" cx="237.667" cy="238.564" r="53.775"/>
			<path style="fill:#F5ECE1;" d="M207.309,194.175c-2.994,2.045-5.786,4.404-8.334,7.042l92.465,36.596
				c-0.052-3.668-0.475-7.299-1.26-10.837L207.309,194.175z"/>
			<path style="fill:#F5ECE1;" d="M185.153,250.155l82.872,32.801c2.996-2.045,5.786-4.404,8.335-7.042l-92.466-36.596
				C183.948,242.985,184.369,246.619,185.153,250.155z"/>
		</g>
		<path style="opacity:0.4;fill:#642217;" d="M275.296,200.135c9.075,14.084,11.469,32.182,4.832,48.946
			c-2.671,6.749-6.56,12.647-11.307,17.56h0.001c-0.003,0.002-0.006,0.006-0.009,0.01c-1.269,1.313-2.597,2.558-3.982,3.725
			c0,0-0.008,0.006-0.011,0.01c-0.668,0.563-1.35,1.111-2.043,1.638c-0.03,0.024-0.059,0.048-0.089,0.072
			c-0.718,0.545-1.45,1.072-2.193,1.58l-0.007,0.006h-0.001c-14.244,9.722-32.902,12.436-50.146,5.611
			c-6.915-2.738-12.927-6.763-17.913-11.671c5.873,9.161,14.563,16.634,25.453,20.942c17.244,6.824,35.902,4.113,50.146-5.609
			c0.003-0.002,0.005-0.004,0.008-0.006c0.743-0.507,1.474-1.036,2.193-1.58c0.03-0.024,0.059-0.048,0.09-0.072
			c0.692-0.529,1.374-1.076,2.042-1.638c0.004-0.004,0.008-0.006,0.011-0.01c1.385-1.169,2.713-2.414,3.982-3.725
			c0.003-0.004,0.005-0.006,0.008-0.01c4.746-4.915,8.636-10.813,11.307-17.56C295.876,237.614,290.288,214.826,275.296,200.135z"/>
	</g>
</g>
<g>
</g>
<g>
</g>
<g>
</g>
<g>
</g>
<g>
</g>
<g>
</g>
<g>
</g>
<g>
</g>
<g>
</g>
<g>
</g>
<g>
</g>
<g>
</g>
<g>
</g>
<g>
</g>
<g>
</g>
</svg>
