<?xml version="1.0" encoding="iso-8859-1"?>
<!-- Generator: Adobe Illustrator 19.1.0, SVG Export Plug-In . SVG Version: 6.00 Build 0)  -->
<svg version="1.1" id="Capa_1" xmlns="http://www.w3.org/2000/svg" xmlns:xlink="http://www.w3.org/1999/xlink" x="0px" y="0px"
	 viewBox="0 0 435.412 435.412" style="enable-background:new 0 0 435.412 435.412;" xml:space="preserve">
<g>
	<path style="fill:#9FBE5B;" d="M221.943,17.487l2.13-2.131c-1.745-0.356-3.501-0.688-5.261-1L221.943,17.487z"/>
	<circle style="fill:#9FBE5B;" cx="226.42" cy="217.706" r="208.992"/>
	<path style="fill:#FFFFFF;" d="M23.899,269.496c3.612,14.169,8.682,27.753,15.022,40.597h374.999
		c6.341-12.844,11.409-26.428,15.022-40.597H23.899z"/>
	<path style="fill:#FFFFFF;" d="M335.786,39.59l8.838,8.839l-22.503,22.504L299.618,48.43l18.544-18.544
		c-2.458-1.202-4.944-2.355-7.452-3.463l-16.55,16.55l-22.502-22.504l5.533-5.533c-2.942-0.733-5.905-1.416-8.893-2.023
		l-2.098,2.099l-3.083-3.083c-4.21-0.746-8.465-1.353-12.758-1.842l10.383,10.383L247.87,33.341V9.801
		c-7.051-0.719-14.207-1.089-21.449-1.089c-15.44,0-30.482,1.69-44.968,4.866v135.512c0,18.341,14.869,33.209,33.209,33.209
		c15.567,0,28.595-10.727,32.191-25.183l20.337-20.338l14.447,14.445c0.754,0.754,1.741,1.131,2.729,1.131
		c0.987,0,1.975-0.377,2.729-1.131c1.508-1.507,1.508-3.951,0-5.456l-14.447-14.446l21.513-21.512l17.346,17.344
		c0.753,0.754,1.741,1.131,2.729,1.131c0.987,0,1.974-0.377,2.729-1.131c1.507-1.507,1.507-3.951,0-5.457l-17.345-17.345
		l22.503-22.503l15.252,15.251c0.754,0.754,1.741,1.13,2.729,1.13c0.988,0,1.975-0.376,2.729-1.13c1.508-1.507,1.508-3.951,0-5.457
		l-15.251-15.251l22.503-22.504l9.093,9.092c0.754,0.754,1.741,1.131,2.729,1.131c0.988,0,1.975-0.377,2.729-1.131
		c0.375-0.376,0.658-0.809,0.846-1.273C356.274,53.496,346.343,46.087,335.786,39.59z M247.87,44.257l18.33-18.331l22.503,22.504
		L266.2,70.933l-18.33-18.33V44.257z M247.87,63.518l12.874,12.873L247.87,89.262V63.518z M247.87,145.185v-27.726l13.863,13.863
		L247.87,145.185z M267.189,125.864l-19.32-19.321v-6.365l18.33-18.33l22.503,22.503L267.189,125.864z M294.16,98.894
		l-22.502-22.503l22.502-22.504l22.503,22.504L294.16,98.894z"/>
	<ellipse style="opacity:0.29;fill:#697D3C;" cx="196.519" cy="373.715" rx="45.584" ry="9.951"/>
	<g>
		<path style="fill:none;" d="M58.188,248.723c4.264-2.645,4.57-5.046,4.57-5.046S62.182,245.609,58.188,248.723z"/>
		<path style="fill:none;" d="M62.758,243.677c1.653-6.123,6.681-23.371,3.81-39.189C68.572,221.432,64.412,237.554,62.758,243.677z
			"/>
		<path style="fill:#2B1F15;" d="M165.546,344.564c0.206-0.089,0.416-0.17,0.622-0.26l-0.003-0.007l-0.001,0.001L165.546,344.564z"
			/>
		<path style="fill:#2B1F15;" d="M74.615,338.836c0-2.606-1.338-3.608-1.338-3.608l-32.319-28.534
			c-1.971-2.378-4.178-1.518-4.178-1.518l-0.185,0.042l-12.078,2.731l-0.321,0.073c0,0,30.615,30.193,50.419,37.995v-0.645V338.836z
			"/>
		<path style="fill:#EAEBED;" d="M227.585,281.108c-0.054-0.034-0.112-0.068-0.185-0.111c-0.05-0.042-0.11-0.093-0.162-0.137
			c-3.803-3.203-12.36-10.534-15.869-14.51c-1.451-1.785-1.78-3.389-1.86-4.061l0.003-0.001c-0.984-8.97,1.325-38.041,3.052-45.431
			c0.528-1.726,1.613-3.185,2.558-4.23l0.004,0.003c3.961-4.221,11.828-10.125,15.09-12.515c0.035-0.025-0.034,0.025,0,0
			c-8.986-27.576-27.75-50.78-52.313-65.289l0.003-0.005c0,0-2.267-1.46-4.008-2.302c0,0-0.007,0.001-0.01,0.002
			c-16.633-8.961-35.644-14.056-55.824-14.056c-11.921,0-23.427,1.921-34.281,5.221v3.952l0.002,0.001
			c-0.059,1.263-0.429,3.023-2.302,4.105l-36.559,21.114c0,0-1.711,0.916-3.983,0.209l-4.659-1.463
			c-20.21,19.484-33.577,46.046-35.884,75.687l-0.263,3.86C0.06,232.933,0,234.721,0,236.525c0,26.858,9.035,51.64,24.196,71.496
			l0.321-0.073l12.078-2.731l0.185-0.042c0,0,2.207-0.86,4.178,1.518l32.319,28.534c0,0,1.338,1.002,1.338,3.608v6.535v0.645
			c13.456,5.341,28.108,8.566,43.448,8.566c15.792,0,30.861-3.14,44.64-8.792l2.842-1.226l0.617-0.266l0.001-0.001
			c27.562-12.348,49.895-34.66,61.43-62.645c0.05-0.121,0.12-0.293,0.17-0.415c-0.033-0.027-0.066-0.049-0.099-0.072
			C227.643,281.148,227.613,281.127,227.585,281.108z M62.758,243.677c0,0-0.307,2.401-4.57,5.046
			c-5.404,4.832-19.812,11.849-26.743,13.582c-2.638,0.861-4.066-0.986-4.066-0.986c-4.741-4.944-16.836-23.404-18.715-31.565
			c-0.341-1.643,0.177-3.846,0.177-3.846c2.388-7.108,13.88-28.848,21.202-35.774c0,0,2.11-2.52,4.566-2.173
			c6.815,0.89,22.6,7.233,28.153,11.548c1.724,1.188,3.197,2.821,3.806,4.979C69.439,220.306,64.412,237.554,62.758,243.677z
			 M163.548,145c1.474,0.51,3.357,1.543,4.807,3.796c4.439,7.495,10.839,26.437,11.951,32.817c0.163,1.299-0.076,2.952-2.998,5.783
			c-6.685,5.873-22.274,13.836-29.831,15.453c-1.893,0.353-3.628,0.1-4.834-0.203c-9.096-2.509-29.006-14.495-35.756-22.683
			c-1.884-1.599-2.852-3.91-2.852-3.91c-1.547-5.529,5.64-24.077,8.954-32.134c0.786-1.867,1.839-4.269,4.278-4.513
			C126.974,138.14,154.744,142.551,163.548,145z M155.573,320.696c0,0-1.562,1.278-3.628,1.109
			c-7.92-0.143-33.375-2.31-41.006-5.882c-1.911-0.703-2.613-2.808-2.613-2.808c-2.599-6.504-8.353-28.449-8.368-38.273
			c0.022-3.678,1.558-5.08,1.558-5.08c4.978-5.576,28.116-19.216,37.663-21.783c0,0,3.888-0.873,7.1,1.404
			c8.151,5.529,23.783,20.182,28.378,26.564c0.563,0.875,1.271,2.374,1.255,3.829C174.871,287.706,161.891,314.9,155.573,320.696z"
			/>
		<path style="fill:#2B1F15;" d="M66.568,204.488c-0.609-2.158-2.082-3.791-3.806-4.979c-5.553-4.315-21.338-10.658-28.153-11.548
			c-2.457-0.347-4.566,2.173-4.566,2.173c-7.323,6.926-18.814,28.665-21.202,35.774c0,0-0.518,2.203-0.177,3.846
			c1.878,8.161,13.974,26.621,18.715,31.565c0,0,1.428,1.847,4.066,0.986c6.931-1.733,21.339-8.75,26.743-13.582
			c3.994-3.114,4.57-5.046,4.57-5.046C64.412,237.554,68.572,221.432,66.568,204.488z"/>
		<path style="fill:#2B1F15;" d="M230.572,200.906c3.716,11.462,5.733,23.689,5.733,36.389c0,15.743-2.931,30.293-8.541,43.942
			c-0.033-0.027-0.066-0.049-0.099-0.072c-0.023-0.017-0.053-0.038-0.081-0.057c-0.054-0.034-0.112-0.068-0.185-0.111
			c-0.05-0.042-0.11-0.093-0.162-0.137c-3.803-3.203-12.36-10.534-15.869-14.51c-1.451-1.785-1.78-3.389-1.86-4.061l0.003-0.001
			c-0.984-8.97,1.325-38.041,3.052-45.431c0.528-1.726,1.613-3.185,2.558-4.23l0.004,0.003c3.961-4.221,11.828-10.125,15.09-12.515"
			/>
		<path style="fill:#2B1F15;" d="M174.656,275.948c-4.595-6.382-20.227-21.035-28.378-26.564c-3.212-2.277-7.1-1.404-7.1-1.404
			c-9.548,2.567-32.685,16.207-37.663,21.783c0,0-1.536,1.402-1.558,5.08c0.014,9.824,5.769,31.769,8.368,38.273
			c0,0,0.703,2.105,2.613,2.808c7.632,3.571,33.086,5.739,41.006,5.882c2.067,0.169,3.628-1.109,3.628-1.109
			c6.319-5.796,19.299-32.99,20.339-40.919C175.927,278.322,175.218,276.823,174.656,275.948z"/>
		<path style="fill:#2B1F15;" d="M44.923,152.857l36.559-21.114c1.872-1.081,2.242-2.842,2.302-4.105l-0.002-0.001v-3.952
			c-18.047,5.477-34.261,15.162-47.501,27.918l4.659,1.463C43.213,153.773,44.923,152.857,44.923,152.857z"/>
		<path style="fill:#2B1F15;" d="M112.989,143.918c-3.314,8.057-10.501,26.605-8.954,32.134c0,0,0.968,2.311,2.852,3.91
			c6.75,8.187,26.661,20.174,35.756,22.683c1.205,0.303,2.94,0.555,4.834,0.203c7.557-1.617,23.146-9.579,29.831-15.453
			c2.922-2.831,3.161-4.484,2.998-5.783c-1.112-6.38-7.512-25.322-11.951-32.817c-1.45-2.253-3.333-3.286-4.807-3.796
			c-8.804-2.449-36.574-6.86-46.282-5.595C114.828,139.649,113.775,142.051,112.989,143.918z"/>
	</g>
	<path style="opacity:0.46;fill:#68696A;" d="M24.196,308.021c0,0,30.615,30.193,50.419,37.995
		c13.456,5.341,28.108,8.567,43.448,8.567c15.792,0,30.861-3.14,44.64-8.792l2.842-1.226c0.206-0.089,0.416-0.17,0.622-0.26
		l-0.003-0.007c27.562-12.348,49.895-34.66,61.43-62.645c0.05-0.121,0.12-0.293,0.17-0.415c5.61-13.649,8.541-28.199,8.541-43.942
		c0-12.7-2.017-24.927-5.733-36.389l-0.357-0.792c-8.986-27.576-27.75-50.78-52.313-65.289
		c46.801,53.467,45.171,120.475,9.804,162.88C155.315,336.542,86.706,342.706,24.196,308.021z"/>
</g>
<g>
</g>
<g>
</g>
<g>
</g>
<g>
</g>
<g>
</g>
<g>
</g>
<g>
</g>
<g>
</g>
<g>
</g>
<g>
</g>
<g>
</g>
<g>
</g>
<g>
</g>
<g>
</g>
<g>
</g>
</svg>
