<?xml version="1.0" encoding="iso-8859-1"?>
<!-- Generator: Adobe Illustrator 19.1.0, SVG Export Plug-In . SVG Version: 6.00 Build 0)  -->
<svg version="1.1" id="Capa_1" xmlns="http://www.w3.org/2000/svg" xmlns:xlink="http://www.w3.org/1999/xlink" x="0px" y="0px"
	 viewBox="0 0 439.28 439.28" style="enable-background:new 0 0 439.28 439.28;" xml:space="preserve">
<g>
	<g>
		<circle style="fill:#73D59E;" cx="231.962" cy="209.839" r="207.318"/>
		<path style="fill:#FFFFFF;" d="M438.744,194.994H238.272l82.066-172.732c-16.49-7.784-34.169-13.458-52.694-16.671
			l-89.989,189.404H25.179c-0.348,4.903-0.534,9.851-0.534,14.845c0,15.729,1.76,31.047,5.081,45.774h404.474
			c3.321-14.727,5.082-30.045,5.082-45.774C439.28,204.845,439.093,199.897,438.744,194.994z"/>
	</g>
	<ellipse style="opacity:0.54;fill:#56A077;" cx="116.032" cy="262.13" rx="49.392" ry="16.51"/>
	<g>
		<g>
			<g>
				<polygon style="fill:#EAEBED;" points="48.764,56.083 10.57,131.323 45.191,137 45.172,137.127 92.865,144.738 93.197,142.642 
					47.087,135.287 52.297,125.012 98.415,139.889 99.065,137.87 53.27,123.1 60.301,109.247 102.823,130.832 103.785,128.941 
					61.259,107.358 68.294,93.504 107.245,121.757 108.49,120.041 69.264,91.592 74.477,81.326 107.634,114.201 109.127,112.698 
					74.831,78.69 74.77,78.751 				"/>
				<path style="fill:#E96660;" d="M116.45,136.562c4.589-9.043,0.982-20.094-8.059-24.683l-16.621,32.745
					C100.812,149.212,111.862,145.605,116.45,136.562z"/>
			</g>
			<path style="opacity:0.29;fill:#E96660;" d="M112.611,120.883c-2.816,5.548-8.068,9.039-13.793,9.856l-3.076,6.06l-3.943,7.769
				l-0.029,0.057c9.041,4.587,20.091,0.98,24.68-8.062c3.427-6.754,2.279-14.629-2.287-20.093
				C113.836,117.969,113.338,119.451,112.611,120.883z M92.808,142.58l1.963-3.867"/>
		</g>
		<path style="fill:#EAEBED;" d="M36.751,51.816c-6.584,1.612-10.613,8.256-9.001,14.839c0.212,0.865,0.515,1.682,0.889,2.452
			c-0.19,0.037-0.38,0.063-0.571,0.109c-6.584,1.612-10.613,8.256-9.001,14.839c0.294,1.199,0.758,2.31,1.355,3.321
			c-0.953,0.003-1.919,0.105-2.885,0.341c-6.583,1.612-10.613,8.256-9.001,14.839c0.406,1.657,1.131,3.15,2.093,4.434
			c-0.423,0.058-0.848,0.136-1.271,0.24c-6.584,1.612-10.613,8.256-9.001,14.839c1.612,6.583,8.256,10.613,14.839,9.001
			c6.583-1.612,10.613-8.256,9.001-14.839c-0.406-1.657-1.131-3.15-2.093-4.434c0.423-0.058,0.847-0.136,1.271-0.24
			c6.583-1.612,10.613-8.256,9.001-14.839c-0.294-1.199-0.758-2.31-1.355-3.321c0.953-0.003,1.918-0.105,2.885-0.341
			c6.583-1.612,10.613-8.256,9.001-14.839c-0.212-0.865-0.515-1.682-0.889-2.452c0.19-0.037,0.381-0.063,0.571-0.11
			c6.583-1.612,10.613-8.256,9.001-14.839C49.978,54.234,43.334,50.204,36.751,51.816z"/>
	</g>
	<g>
		<g>
			<g>
				<g>
					<polygon style="fill:#F5F5F5;" points="319.922,306.892 171.274,211.326 175.241,204.685 323.889,300.25 					"/>
				</g>
				<g>
					<polygon style="fill:#F5F5F5;" points="328.545,263.398 209.41,187.463 213.331,180.791 332.466,256.727 					"/>
				</g>
				<g>
					<polygon style="fill:#F5F5F5;" points="301.845,348.219 131.764,235.205 135.908,228.679 305.99,341.693 					"/>
				</g>
				<g>
					<polygon style="fill:#F5F5F5;" points="277.949,384.156 107.868,271.142 112.012,264.616 282.094,377.63 					"/>
				</g>
				<g>
					<polygon style="fill:#F5F5F5;" points="243.356,412.331 83.989,307.09 88.101,300.542 247.468,405.783 					"/>
				</g>
				<g>
					<polygon style="fill:#F5F5F5;" points="192.351,429.801 78.018,354.288 82.131,347.741 196.464,423.253 					"/>
				</g>
				<g>
					<polygon style="fill:#F5F5F5;" points="193.969,433.704 185.706,427.364 322.208,261.829 330.471,268.169 					"/>
				</g>
				<g>
					<polygon style="fill:#F5F5F5;" points="139.788,418.679 131.577,412.277 302.048,211.317 310.259,217.719 					"/>
				</g>
				<g>
					<polygon style="fill:#F5F5F5;" points="97.374,389.787 89.164,383.384 259.635,182.424 267.846,188.826 					"/>
				</g>
				<g>
					<polygon style="fill:#F5F5F5;" points="87.336,321.752 79.166,315.302 193.547,183.41 201.717,189.86 					"/>
				</g>
			</g>
			<g>
				<g>
					<polygon style="fill:#F5F5F5;" points="319.922,306.892 171.274,211.326 175.241,204.685 323.889,300.25 					"/>
				</g>
				<g>
					<polygon style="fill:#F5F5F5;" points="328.545,263.398 209.41,187.463 213.331,180.791 332.466,256.727 					"/>
				</g>
				<g>
					<polygon style="fill:#F5F5F5;" points="301.845,348.219 131.764,235.205 135.908,228.679 305.99,341.693 					"/>
				</g>
				<g>
					<polygon style="fill:#F5F5F5;" points="277.949,384.156 107.868,271.142 112.012,264.616 282.094,377.63 					"/>
				</g>
				<g>
					<polygon style="fill:#F5F5F5;" points="243.356,412.331 83.989,307.09 88.101,300.542 247.468,405.783 					"/>
				</g>
				<g>
					<polygon style="fill:#F5F5F5;" points="192.351,429.801 78.018,354.288 82.131,347.741 196.464,423.253 					"/>
				</g>
				<g>
					<polygon style="fill:#F5F5F5;" points="193.969,433.704 185.706,427.364 322.208,261.829 330.471,268.169 					"/>
				</g>
				<g>
					<polygon style="fill:#F5F5F5;" points="139.788,418.679 131.577,412.277 302.048,211.317 310.259,217.719 					"/>
				</g>
				<g>
					<polygon style="fill:#F5F5F5;" points="97.374,389.787 89.164,383.384 259.635,182.424 267.846,188.826 					"/>
				</g>
				<g>
					<polygon style="fill:#F5F5F5;" points="87.336,321.752 79.166,315.302 193.547,183.41 201.717,189.86 					"/>
				</g>
			</g>
		</g>
		<path style="fill:#70706E;" d="M307.109,197.033c-0.878-0.722-1.771-1.421-2.672-2.107l91.16-112.385
			c-3.826-4.911-7.872-9.641-12.116-14.184l-94.82,116.895c-50.006-24.256-122.257-5.628-171.697,47.45
			c-55.931,60.047-61.481,141.432-12.398,181.779c49.083,40.347,134.214,24.377,190.145-35.67
			C350.642,318.765,356.193,237.38,307.109,197.033z M281.574,368.012c-49.467,53.107-123.475,68.286-165.303,33.903
			c-41.827-34.382-35.635-105.306,13.832-158.413c49.466-53.107,123.474-68.285,165.302-33.903
			C337.232,243.982,331.04,314.906,281.574,368.012z"/>
	</g>
</g>
<g>
</g>
<g>
</g>
<g>
</g>
<g>
</g>
<g>
</g>
<g>
</g>
<g>
</g>
<g>
</g>
<g>
</g>
<g>
</g>
<g>
</g>
<g>
</g>
<g>
</g>
<g>
</g>
<g>
</g>
</svg>
