<?xml version="1.0" encoding="iso-8859-1"?>
<!-- Generator: Adobe Illustrator 19.1.0, SVG Export Plug-In . SVG Version: 6.00 Build 0)  -->
<svg version="1.1" id="Capa_1" xmlns="http://www.w3.org/2000/svg" xmlns:xlink="http://www.w3.org/1999/xlink" x="0px" y="0px"
	 viewBox="0 0 430.275 430.275" style="enable-background:new 0 0 430.275 430.275;" xml:space="preserve">
<g>
	<path style="fill:#F2AA99;" d="M422.794,222.618c0-114.686-92.969-207.657-207.654-207.657
		c-114.689,0-207.658,92.971-207.658,207.657c0,114.685,92.969,207.656,207.658,207.656
		C329.825,430.275,422.794,337.303,422.794,222.618z"/>
	<path style="opacity:0.7;fill:#FBE5A3;" d="M422.794,222.618c0-114.686-92.969-207.657-207.654-207.657
		c-114.689,0-207.658,92.971-207.658,207.657c0,114.685,92.969,207.656,207.658,207.656
		C329.825,430.275,422.794,337.303,422.794,222.618z"/>
	<g>
		<path style="fill:#EA7053;" d="M369.754,50.944c-38.75-54.512-114.354-67.288-168.867-28.533
			c-54.51,38.75-67.29,114.355-28.532,168.866c38.748,54.51,114.356,67.287,168.867,28.533
			C395.733,181.06,408.508,105.455,369.754,50.944z"/>
		<path style="fill:#2B1F15;" d="M226.138,57.924c41.28-29.346,87.159-40.622,119.268-32.412
			c-6.101-4.751-12.593-8.849-19.367-12.295c-32.064-0.765-70.591,11.608-105.694,36.56c-35.099,24.954-59.445,57.278-69.258,87.812
			c1.028,7.53,2.767,15.006,5.245,22.329C159.132,126.895,184.854,87.271,226.138,57.924z"/>
		<path style="fill:#2B1F15;" d="M172.322,191.233c0.981,1.382,2.003,2.719,3.027,4.046L372.548,55.091
			c-0.897-1.378-1.801-2.754-2.76-4.104c-0.984-1.382-2.005-2.719-3.031-4.045L169.558,187.13
			C170.457,188.506,171.361,189.882,172.322,191.233z"/>
		<path style="fill:#2B1F15;" d="M315.974,184.295c-41.284,29.345-87.164,40.62-119.267,32.415
			c6.101,4.748,12.589,8.847,19.365,12.292c32.065,0.766,70.59-11.607,105.69-36.56c35.103-24.954,59.449-57.278,69.258-87.81
			c-1.027-7.532-2.764-15.007-5.243-22.331C382.974,115.325,357.248,154.952,315.974,184.295z"/>
	</g>
	<path style="opacity:0.46;fill:#921D0F;" d="M387.506,87.849c-0.013-0.041-0.026-0.082-0.038-0.124
		c-0.518-1.808-1.076-3.607-1.683-5.399c-0.002-0.007-0.004-0.016-0.008-0.024v0.003c-3.185-9.405-7.583-18.546-13.229-27.213
		c-0.897-1.378-1.801-2.754-2.76-4.104c-0.984-1.382-2.005-2.719-3.031-4.045l-0.002,0.001
		c-7.535-9.737-16.288-18.019-25.894-24.796c-0.045-0.032-0.088-0.065-0.133-0.096c-1.535-1.08-3.092-2.117-4.668-3.119
		c-0.037-0.024-0.075-0.05-0.115-0.074c-1.589-1.008-3.202-1.975-4.831-2.904c-0.023-0.014-0.047-0.028-0.07-0.041
		c-0.805-0.458-1.627-0.877-2.439-1.315c6.75,5.587,12.987,11.982,18.556,19.178l0.002-0.001c1.026,1.326,2.047,2.662,3.032,4.045
		c0.958,1.35,1.863,2.726,2.76,4.104c5.645,8.667,10.044,17.809,13.228,27.213v-0.003c0.004,0.008,0.006,0.017,0.008,0.024
		c0.607,1.791,1.164,3.591,1.683,5.399c0.011,0.042,0.024,0.082,0.037,0.124c13.699,47.966-3.311,101.413-46.283,131.961
		c-38.013,27.025-86.272,28.963-125.149,9.193h-0.002c-0.01-0.005-0.017-0.011-0.026-0.014c-0.784-0.399-1.552-0.837-2.327-1.253
		c0.863,0.712,1.702,1.458,2.582,2.143l0,0c0.004,0.003,0.008,0.006,0.011,0.01c1.484,1.155,2.994,2.267,4.522,3.346
		c0.049,0.034,0.097,0.071,0.146,0.106c1.534,1.077,3.09,2.115,4.664,3.115c0.038,0.024,0.077,0.051,0.115,0.075
		c1.596,1.011,3.209,1.98,4.844,2.912c0.017,0.009,0.034,0.02,0.05,0.029c1.644,0.936,3.307,1.83,4.986,2.685
		c0.01,0.004,0.017,0.01,0.026,0.014h0.002c38.878,19.77,87.137,17.832,125.149-9.193
		C384.195,189.262,401.204,135.814,387.506,87.849z"/>
	<path style="fill:#FFFFFF;" d="M250.641,400.566c5.548-8.519,9.841-16.77,12.963-24.756h91.714
		c10.722-9.816,20.412-20.74,28.883-32.595H269.552c-0.382-7.519-2.082-14.713-5.155-21.55
		c-12.534-27.895-46.309-46.157-100.385-54.274c-16.914-2.539-34.208-3.826-51.401-3.826c-25.284,0-60.603,2.912-97.496,15.001
		c3.132,11.221,7.187,22.057,12.071,32.426c32.236-10.407,63.22-12.914,85.425-12.914c15.485,0,31.055,1.158,46.278,3.443
		c40.537,6.084,66.826,18.262,74.027,34.288c1.031,2.294,1.676,4.769,1.977,7.405H46.074c8.472,11.855,18.161,22.779,28.882,32.595
		h150.395c-1.121,1.936-2.318,3.904-3.632,5.922c-12.197,18.732-28.712,33.249-47.777,44.448c13.317,2.68,27.09,4.094,41.197,4.094
		c3.661,0,7.298-0.097,10.913-0.285C235.191,421.296,243.484,411.555,250.641,400.566z"/>
	<ellipse style="opacity:0.31;fill:#BF7A72;" cx="248.246" cy="306.933" rx="97.16" ry="22.477"/>
</g>
<g>
</g>
<g>
</g>
<g>
</g>
<g>
</g>
<g>
</g>
<g>
</g>
<g>
</g>
<g>
</g>
<g>
</g>
<g>
</g>
<g>
</g>
<g>
</g>
<g>
</g>
<g>
</g>
<g>
</g>
</svg>
