<svg xmlns="http://www.w3.org/2000/svg" width="32" height="32" viewBox="0 0 32 32"><g transform="translate(-211.158 -1068.94)"><circle cx="227.158" cy="1084.94" r="16" fill="#e64c65" fill-rule="evenodd"/><g transform="translate(-117.581 169.372) scale(.47914)"><rect width="31" height="31" x="703.995" y="1895.355" fill="#f2f2f2" stroke="#373748" stroke-linecap="round" style="isolation:auto;mix-blend-mode:normal" stroke-linejoin="round" color="#000" overflow="visible" rx="0" ry="0"/><circle style="isolation:auto;mix-blend-mode:normal" cx="705.995" cy="1897.355" r="2" fill="#373748" stroke="#373748" stroke-linecap="round" stroke-linejoin="round" color="#000" overflow="visible"/><circle cx="732.995" cy="1897.355" r="2" fill="#373748" stroke="#373748" stroke-linecap="round" stroke-linejoin="round" color="#000" overflow="visible" style="isolation:auto;mix-blend-mode:normal"/><circle cx="705.995" cy="1924.355" r="2" fill="#373748" stroke="#373748" stroke-linecap="round" stroke-linejoin="round" color="#000" overflow="visible" style="isolation:auto;mix-blend-mode:normal"/><circle style="isolation:auto;mix-blend-mode:normal" cx="732.995" cy="1924.355" r="2" fill="#373748" stroke="#373748" stroke-linecap="round" stroke-linejoin="round" color="#000" overflow="visible"/><circle style="isolation:auto;mix-blend-mode:normal" cx="719.495" cy="1910.855" r="5" fill="#5fd38d" stroke="#373748" stroke-linecap="round" stroke-linejoin="round" color="#000" overflow="visible"/><rect width="15" height="2" x="711.995" y="1898.855" fill="none" stroke="#373748" stroke-linecap="round" style="isolation:auto;mix-blend-mode:normal" stroke-linejoin="round" color="#000" overflow="visible" rx="1" ry="1"/><rect width="15" height="2" x="711.995" y="1920.855" fill="none" stroke="#373748" stroke-linecap="round" stroke-linejoin="round" color="#000" overflow="visible" rx="1" ry="1" style="isolation:auto;mix-blend-mode:normal"/><rect width="15" height="2" x="1903.355" y="-731.495" fill="none" stroke="#373748" stroke-linecap="round" stroke-linejoin="round" color="#000" overflow="visible" rx="1" ry="1" transform="rotate(90)" style="isolation:auto;mix-blend-mode:normal"/><rect width="15" height="2" x="1903.355" y="-709.495" fill="none" stroke="#373748" stroke-linecap="round" style="isolation:auto;mix-blend-mode:normal" stroke-linejoin="round" color="#000" overflow="visible" rx="1" ry="1" transform="rotate(90)"/><path fill="none" stroke="#373748" stroke-linecap="round" stroke-linejoin="round" d="M708.51063 1921.8551l0-1.9M708.51063 1921.8551l2 0M712.1858 1918.1787l-3.6908 3.6764M730.50003 1921.8551l0-1.9M730.50003 1921.8551l-2 0"/><g transform="matrix(1 0 0 -1 -230 3620.724)"><path fill="none" stroke="#373748" stroke-linecap="round" stroke-linejoin="round" d="m 956.82488,1702.5457 3.6908,-3.6764"/><path fill="none" stroke="#373748" stroke-linecap="round" stroke-linejoin="round" style="isolation:auto;mix-blend-mode:normal" d="m 956.99997,1703.3622 a 0.99996948,0.99996948 0 0 1 -0.99997,1 0.99996948,0.99996948 0 0 1 -0.99997,-1 0.99996948,0.99996948 0 0 1 0.99997,-1 0.99996948,0.99996948 0 0 1 0.99997,1 z" color="#000" overflow="visible"/></g><path fill="none" stroke="#373748" stroke-linecap="round" stroke-linejoin="round" d="M730.50003 1899.8551l0 1.9M730.50003 1899.8551l-2 0M726.82486 1903.5315l3.6908-3.6764"/><path fill="none" stroke="#373748" stroke-linecap="round" stroke-linejoin="round" d="m 726.99995,1904.348 a 0.99996948,0.99996948 0 0 1 -0.99997,1 0.99996948,0.99996948 0 0 1 -0.99997,-1 0.99996948,0.99996948 0 0 1 0.99997,-1 0.99996948,0.99996948 0 0 1 0.99997,1 z" color="#000" overflow="visible" style="isolation:auto;mix-blend-mode:normal"/><g transform="matrix(-1 0 0 1 1669.01 200.986)"><path fill="none" stroke="#373748" stroke-linecap="round" stroke-linejoin="round" d="M960.50005 1698.8693l0 1.9M960.50005 1698.8693l-2 0M956.82488 1702.5457l3.6908-3.6764"/><path fill="none" stroke="#373748" stroke-linecap="round" stroke-linejoin="round" style="isolation:auto;mix-blend-mode:normal" d="m 956.99997,1703.3622 a 0.99996948,0.99996948 0 0 1 -0.99997,1 0.99996948,0.99996948 0 0 1 -0.99997,-1 0.99996948,0.99996948 0 0 1 0.99997,-1 0.99996948,0.99996948 0 0 1 0.99997,1 z" color="#000" overflow="visible"/></g><rect width="2" height="2" x="711.995" y="1920.855" fill="#f55" stroke="#373748" stroke-linecap="round" style="isolation:auto;mix-blend-mode:normal" stroke-linejoin="round" color="#000" overflow="visible" rx="1" ry="1"/><rect width="2" height="2" x="724.995" y="1920.855" fill="#f55" stroke="#373748" stroke-linecap="round" stroke-linejoin="round" color="#000" overflow="visible" rx="1" ry="1" style="isolation:auto;mix-blend-mode:normal"/><rect width="2" height="2" x="729.495" y="1916.355" fill="#f55" stroke="#373748" stroke-linecap="round" style="isolation:auto;mix-blend-mode:normal" stroke-linejoin="round" color="#000" overflow="visible" rx="1" ry="1"/><rect width="2" height="2" x="729.495" y="1903.355" fill="#f55" stroke="#373748" stroke-linecap="round" stroke-linejoin="round" color="#000" overflow="visible" rx="1" ry="1" style="isolation:auto;mix-blend-mode:normal"/><rect width="2" height="2" x="707.495" y="1916.355" fill="#f55" stroke="#373748" stroke-linecap="round" stroke-linejoin="round" color="#000" overflow="visible" rx="1" ry="1" style="isolation:auto;mix-blend-mode:normal"/><rect width="2" height="2" x="707.495" y="1903.355" fill="#f55" stroke="#373748" stroke-linecap="round" style="isolation:auto;mix-blend-mode:normal" stroke-linejoin="round" color="#000" overflow="visible" rx="1" ry="1"/><rect width="2" height="2" x="711.995" y="1898.855" fill="#f55" stroke="#373748" stroke-linecap="round" stroke-linejoin="round" color="#000" overflow="visible" rx="1" ry="1" style="isolation:auto;mix-blend-mode:normal"/><rect width="2" height="2" x="724.995" y="1898.855" fill="#f55" stroke="#373748" stroke-linecap="round" style="isolation:auto;mix-blend-mode:normal" stroke-linejoin="round" color="#000" overflow="visible" rx="1" ry="1"/><circle style="isolation:auto;mix-blend-mode:normal" cx="712.995" cy="1917.355" r="1" fill="none" stroke="#373748" stroke-linecap="round" stroke-linejoin="round" color="#000" overflow="visible"/></g></g></svg>