<svg width="256" height="256" viewBox="0 0 256 256" fill="none" xmlns="http://www.w3.org/2000/svg">
<path d="M128 23.0635C162.177 23.0635 166.225 23.1936 179.722 23.8094C192.202 24.379 198.98 26.4642 203.491 28.2166C209.465 30.5387 213.729 33.3129 218.208 37.7917C222.687 42.2706 225.461 46.5351 227.783 52.5093C229.536 57.0201 231.621 63.7977 232.191 76.277C232.806 89.7746 232.936 93.8226 232.936 128C232.936 162.178 232.806 166.226 232.191 179.723C231.621 192.203 229.536 198.98 227.783 203.491C225.461 209.465 222.687 213.73 218.208 218.209C213.729 222.688 209.465 225.462 203.491 227.783C198.98 229.536 192.202 231.622 179.722 232.191C166.227 232.807 162.179 232.937 128 232.937C93.8201 232.937 89.7721 232.807 76.277 232.191C63.7971 231.622 57.0196 229.536 52.5093 227.783C46.5346 225.462 42.2701 222.688 37.7912 218.209C33.3124 213.73 30.5381 209.465 28.2166 203.491C26.4637 198.98 24.3785 192.203 23.8089 179.723C23.1931 166.226 23.063 162.178 23.063 128C23.063 93.8226 23.1931 89.7746 23.8089 76.2775C24.3785 63.7977 26.4637 57.0201 28.2166 52.5093C30.5381 46.5351 33.3124 42.2706 37.7912 37.7917C42.2701 33.3129 46.5346 30.5387 52.5093 28.2166C57.0196 26.4642 63.7971 24.379 76.2765 23.8094C89.7741 23.1936 93.8221 23.0635 128 23.0635ZM128 0C93.2368 0 88.8783 0.147348 75.2258 0.770275C61.6011 1.39219 52.2969 3.55566 44.1546 6.72009C35.7375 9.99122 28.5992 14.368 21.4833 21.4839C14.3675 28.5998 9.99071 35.738 6.71958 44.1551C3.55515 52.2974 1.39168 61.6017 0.769767 75.2263C0.14684 88.8783 0 93.2373 0 128C0 162.763 0.14684 167.122 0.769767 180.774C1.39168 194.399 3.55515 203.703 6.71958 211.845C9.99071 220.262 14.3675 227.401 21.4833 234.517C28.5992 241.633 35.7375 246.009 44.1546 249.28C52.2969 252.445 61.6011 254.608 75.2258 255.23C88.8783 255.853 93.2368 256 128 256C162.763 256 167.122 255.853 180.774 255.23C194.398 254.608 203.703 252.445 211.845 249.28C220.262 246.009 227.4 241.633 234.516 234.517C241.632 227.401 246.009 220.262 249.28 211.845C252.444 203.703 254.608 194.399 255.23 180.774C255.853 167.122 256 162.763 256 128C256 93.2373 255.853 88.8783 255.23 75.2263C254.608 61.6017 252.444 52.2974 249.28 44.1551C246.009 35.738 241.632 28.5998 234.516 21.4839C227.4 14.368 220.262 9.99122 211.845 6.72009C203.703 3.55566 194.398 1.39219 180.774 0.770275C167.122 0.147348 162.763 0 128 0ZM128 62.2703C91.6983 62.2703 62.2698 91.6988 62.2698 128C62.2698 164.302 91.6983 193.73 128 193.73C164.301 193.73 193.73 164.302 193.73 128C193.73 91.6988 164.301 62.2703 128 62.2703ZM128 170.667C104.436 170.667 85.3328 151.564 85.3328 128C85.3328 104.436 104.436 85.3333 128 85.3333C151.564 85.3333 170.667 104.436 170.667 128C170.667 151.564 151.564 170.667 128 170.667ZM211.686 59.6734C211.686 68.1566 204.81 75.0337 196.327 75.0337C187.843 75.0337 180.966 68.1566 180.966 59.6734C180.966 51.1902 187.843 44.3137 196.327 44.3137C204.81 44.3137 211.686 51.1902 211.686 59.6734Z" fill="white"/>
</svg>
