<?xml version="1.0" encoding="iso-8859-1"?>
<!-- Generator: Adobe Illustrator 19.1.0, SVG Export Plug-In . SVG Version: 6.00 Build 0)  -->
<svg version="1.1" id="Capa_1" xmlns="http://www.w3.org/2000/svg" xmlns:xlink="http://www.w3.org/1999/xlink" x="0px" y="0px"
	 viewBox="0 0 425.586 425.586" style="enable-background:new 0 0 425.586 425.586;" xml:space="preserve">
<g>
	<g>
		<circle style="fill:#F5ECE1;" cx="212.793" cy="215.141" r="210.447"/>
		<circle style="fill:#F5ECE1;" cx="212.793" cy="215.141" r="210.447"/>
		<circle style="fill:#F5ECE1;" cx="212.793" cy="215.141" r="210.447"/>
		<circle style="fill:#DECAB1;" cx="212.793" cy="215.141" r="210.447"/>
		<path style="fill:#C4422E;" d="M422.698,200.072H219.2l83.304-175.337c-16.739-7.903-34.684-13.661-53.49-16.923l-91.346,192.26
			H2.889c-0.353,4.978-0.543,10.001-0.543,15.069c0,15.966,1.788,31.515,5.158,46.465h410.58c3.369-14.95,5.157-30.498,5.157-46.465
			C423.24,210.073,423.051,205.049,422.698,200.072z"/>
	</g>
	<ellipse style="fill:#A79885;" cx="304.465" cy="354.238" rx="44.504" ry="8.917"/>
	<g>
		<path style="fill:#505B66;" d="M297.094,86.963c23.839,4.068,46.465-11.955,50.536-35.791c4.073-23.842-11.953-46.466-35.79-50.54
			c-23.842-4.071-46.467,11.955-50.542,35.797C257.23,60.266,273.254,82.89,297.094,86.963z"/>
		<path style="opacity:0.49;fill:#252A2F;" d="M333.096,76.928c-8.51,4.883-18.702,6.944-29.122,5.163
			c-23.845-4.071-39.869-26.695-35.796-50.538c1.778-10.422,7.107-19.348,14.533-25.758c-10.951,6.278-19.118,17.218-21.414,30.634
			c-4.068,23.837,11.956,46.462,35.796,50.534C310.51,89.256,323.542,85.181,333.096,76.928z"/>
	</g>
	<polygon style="fill:none;" points="99.853,168.648 66.795,170.001 68.334,203.179 101.206,201.706 	"/>
	<polygon style="fill:none;" points="98.683,140.022 65.498,138.336 66.661,166.738 99.721,165.386 	"/>
	<path style="fill:none;" d="M101.615,211.386c-0.004-0.001-0.008-0.002-0.011-0.004l-0.263-6.416l-32.854,1.486l1.479,31.873
		l32.685-1.118l-0.178-4.358C102.472,232.85,102.11,223.788,101.615,211.386z"/>
	<path style="fill:none;" d="M135.298,145.768c-4.557-1.573-9.158-3.021-13.861-4.188c-6.551-1.626-13.041-2.511-19.554-3.158
		l0.01,0.244c0.025-0.023,0.048-0.048,0.072-0.071l1.068,26.656l33.006-1.35l-0.7-17.097L135.298,145.768z"/>
	<polygon style="fill:none;" points="211.423,232.887 209.929,200.625 177.464,201.905 178.552,234.101 	"/>
	<polygon style="fill:none;" points="136.174,167.161 103.165,168.512 104.49,201.571 137.527,200.219 	"/>
	<path style="fill:none;" d="M140.825,200.084l33.264-1.314l-0.038-1.117c-0.08,0.08-0.157,0.166-0.237,0.245l-1.32-32.225
		l-32.98,1.35L140.825,200.084z"/>
	<path style="fill:none;" d="M157.481,153.819c-6.331-2.199-12.572-4.623-18.869-6.879l0.012,0.281l0.039,0.946
		c0.034-0.004,0.068-0.011,0.102-0.015l0.619,15.61l32.977-1.35l-0.169-4.117C167.248,156.94,162.331,155.503,157.481,153.819z"/>
	
		<rect x="106.707" y="239.645" transform="matrix(0.9992 -0.0409 0.0409 0.9992 -10.3743 5.255)" style="fill:none;" width="33.087" height="33.087"/>
	
		<rect x="146.002" y="310.8" transform="matrix(-0.0409 -0.9992 0.9992 -0.0409 -157.8744 503.1421)" style="fill:none;" width="33.086" height="33.086"/>
	<path style="fill:none;" d="M138.161,215.313c-0.006,0.001-0.011,0.002-0.016,0.003l-0.484-11.836l-33.041,1.352l1.292,32.241
		l33.058-1.353L138.161,215.313z"/>
	
		<rect x="180.835" y="272.992" transform="matrix(-0.0409 -0.9992 0.9992 -0.0409 -83.8476 498.5841)" style="fill:none;" width="33.087" height="33.088"/>
	
		<rect x="144.515" y="274.479" transform="matrix(0.9992 -0.0409 0.0409 0.9992 -11.7685 6.8311)" style="fill:none;" width="33.086" height="33.087"/>
	<polygon style="fill:none;" points="211.574,236.143 178.686,237.362 180.039,270.421 213.098,269.068 	"/>
	
		<rect x="143.029" y="238.158" transform="matrix(0.9992 -0.0409 0.0409 0.9992 -10.2833 6.7393)" style="fill:none;" width="33.086" height="33.088"/>
	
		<rect x="108.195" y="275.965" transform="matrix(-0.0409 -0.9992 0.9992 -0.0409 -162.4259 429.1038)" style="fill:none;" width="33.086" height="33.088"/>
	<polygon style="fill:none;" points="174.199,202.034 140.954,203.345 142.233,235.587 175.291,234.235 	"/>
	<path style="fill:#F1F3E0;" d="M270.546,267.469l-16.175,0.437l-1.396-33.297l31.073-1.151c-1.146-1.082-2.315-2.119-3.497-3.123
		l-27.712,1.023l-1.358-32.373l7.512-0.296c1.347-1.078,2.654-2.22,3.918-3.426l-49.888,1.97l-1.101-23.664
		c-1.055-0.414-2.148-0.76-3.293-1.037l1.149,24.829l-32.424,1.281l-1.119-33.12l12.708-0.52c-2.123-0.944-4.2-2.01-6.298-3.009
		l-6.52,0.267l-0.098-2.896c-0.197-0.057-0.388-0.131-0.585-0.184c-1.085-0.29-2.167-0.587-3.249-0.884l0.169,4.117l-32.977,1.35
		l-0.619-15.61c-0.034,0.004-0.068,0.011-0.102,0.015l-0.039-0.946l-0.012-0.281c-1.103-0.395-2.206-0.789-3.314-1.171l0.042,1.034
		l0.7,17.097l-33.006,1.35l-1.068-26.656c-0.025,0.023-0.048,0.047-0.072,0.071l-0.01-0.244c-6.876-0.683-13.778-1.1-20.805-1.834
		c-6.168-0.644-12.779-2.183-18.994-1.855l0.147,3.608l1.168,28.532l-25.547,1.245c0.527,1.073,1.078,2.14,1.656,3.2l24.025-1.183
		l1.548,33.191l-13.067,0.585c1.665,1.085,3.357,2.105,5.067,3.059l8.153-0.369l1.484,31.837l-0.629,0.022
		c-0.826,1.099-1.612,2.22-2.356,3.363l3.138-0.109l0.811,17.395c1.098,1.286,2.237,2.55,3.422,3.788L70.117,241.6l32.666-1.132
		l1.353,33.059l-17.855,0.731c-0.027,1.086-0.027,2.176-0.003,3.267l17.991-0.736l1.353,33.059l-11.152,0.457
		c0.526,1.073,1.078,2.14,1.656,3.2l9.63-0.394l0.624,15.26c1.097,1.286,2.237,2.55,3.422,3.788l-0.785-19.181l33.058-1.353
		l1.353,33.058l-17.66,0.723c1.666,1.085,3.357,2.105,5.067,3.058l12.727-0.521l0.263,6.416c1.1,0.391,2.203,0.759,3.312,1.101
		l-0.313-7.651l33.058-1.353l0.485,11.836c1.088-0.155,2.17-0.338,3.245-0.545l-0.467-11.425l18.367-1.264
		c1.347-1.078,2.654-2.22,3.919-3.426l-22.42,1.429l-1.353-33.058l33.058-1.353l1.212,29.594c0.041,0.997,1.271,1.464,1.947,0.729
		c0.006-0.007,0.012-0.013,0.018-0.02c0.331-0.358,0.654-0.72,0.973-1.084c0.193-0.22,0.291-0.507,0.28-0.799l-1.168-28.554
		l15.175-0.622c0.194-1.09,0.363-2.186,0.505-3.287l-15.814,0.647l-1.353-33.059l34.77-0.95l1.133,23.368l3.067-0.691l-0.954-22.765
		l17.186-0.47C271.335,269.611,270.953,268.537,270.546,267.469z M66.661,166.738l-1.162-28.402l33.184,1.686l1.038,25.364
		L66.661,166.738z M66.795,170.001l33.059-1.353l1.353,33.058l-32.872,1.473L66.795,170.001z M69.965,238.326l-1.479-31.873
		l32.854-1.486l0.263,6.416c0.004,0.001,0.008,0.003,0.011,0.004c0.496,12.402,0.858,21.463,0.858,21.463l0.177,4.359
		L69.965,238.326z M209.929,200.625l1.494,32.263l-32.871,1.214l-1.088-32.196L209.929,200.625z M172.494,165.674l1.32,32.225
		c0.08-0.08,0.157-0.165,0.237-0.245l0.038,1.117l-33.264,1.314l-1.311-33.06L172.494,165.674z M103.165,168.512l33.009-1.351
		l1.353,33.058l-33.038,1.352L103.165,168.512z M104.62,204.833l33.041-1.352l0.484,11.836c0.006-0.001,0.011-0.002,0.016-0.003
		l0.809,20.408l-33.058,1.353L104.62,204.833z M106.045,240.335l33.059-1.353l1.353,33.059l-33.06,1.353L106.045,240.335z
		 M108.884,309.715l-1.353-33.059l33.06-1.353l1.353,33.059L108.884,309.715z M140.954,203.345l33.246-1.311l1.092,32.201
		l-33.059,1.352L140.954,203.345z M143.719,271.908l-1.353-33.06l33.059-1.353l1.353,33.06L143.719,271.908z M143.852,275.169
		l33.058-1.353l1.353,33.06l-33.059,1.352L143.852,275.169z M146.693,344.549l-1.353-33.059l33.059-1.353l1.353,33.058
		L146.693,344.549z M178.686,237.362l32.887-1.219l1.524,32.925l-33.059,1.353L178.686,237.362z M181.525,306.742l-1.352-33.059
		l33.059-1.353l1.353,33.059L181.525,306.742z M214.676,232.767l-1.501-32.271l34.593-1.364l1.568,32.356L214.676,232.767z
		 M216.358,268.935l-1.531-32.912l34.666-1.284l1.612,33.256L216.358,268.935z"/>
	<path style="fill:#F1F3E0;" d="M270.546,267.469l-16.175,0.437l-1.396-33.297l31.073-1.151c-1.146-1.082-2.315-2.119-3.497-3.123
		l-27.712,1.023l-1.358-32.373l7.512-0.296c1.347-1.078,2.654-2.22,3.918-3.426l-49.888,1.97l-1.101-23.664
		c-1.055-0.414-2.148-0.76-3.293-1.037l1.149,24.829l-32.424,1.281l-1.119-33.12l12.708-0.52c-2.123-0.944-4.2-2.01-6.298-3.009
		l-6.52,0.267l-0.098-2.896c-0.197-0.057-0.388-0.131-0.585-0.184c-1.085-0.29-2.167-0.587-3.249-0.884l0.169,4.117l-32.977,1.35
		l-0.619-15.61c-0.034,0.004-0.068,0.011-0.102,0.015l-0.039-0.946l-0.012-0.281c-1.103-0.395-2.206-0.789-3.314-1.171l0.042,1.034
		l0.7,17.097l-33.006,1.35l-1.068-26.656c-0.025,0.023-0.048,0.047-0.072,0.071l-0.01-0.244c-6.876-0.683-13.778-1.1-20.805-1.834
		c-6.168-0.644-12.779-2.183-18.994-1.855l0.147,3.608l1.168,28.532l-25.547,1.245c0.527,1.073,1.078,2.14,1.656,3.2l24.025-1.183
		l1.548,33.191l-13.067,0.585c1.665,1.085,3.357,2.105,5.067,3.059l8.153-0.369l1.484,31.837l-0.629,0.022
		c-0.826,1.099-1.612,2.22-2.356,3.363l3.138-0.109l0.811,17.395c1.098,1.286,2.237,2.55,3.422,3.788L70.117,241.6l32.666-1.132
		l1.353,33.059l-17.855,0.731c-0.027,1.086-0.027,2.176-0.003,3.267l17.991-0.736l1.353,33.059l-11.152,0.457
		c0.526,1.073,1.078,2.14,1.656,3.2l9.63-0.394l0.624,15.26c1.097,1.286,2.237,2.55,3.422,3.788l-0.785-19.181l33.058-1.353
		l1.353,33.058l-17.66,0.723c1.666,1.085,3.357,2.105,5.067,3.058l12.727-0.521l0.263,6.416c1.1,0.391,2.203,0.759,3.312,1.101
		l-0.313-7.651l33.058-1.353l0.485,11.836c1.088-0.155,2.17-0.338,3.245-0.545l-0.467-11.425l18.367-1.264
		c1.347-1.078,2.654-2.22,3.919-3.426l-22.42,1.429l-1.353-33.058l33.058-1.353l1.212,29.594c0.041,0.997,1.271,1.464,1.947,0.729
		c0.006-0.007,0.012-0.013,0.018-0.02c0.331-0.358,0.654-0.72,0.973-1.084c0.193-0.22,0.291-0.507,0.28-0.799l-1.168-28.554
		l15.175-0.622c0.194-1.09,0.363-2.186,0.505-3.287l-15.814,0.647l-1.353-33.059l34.77-0.95l1.133,23.368l3.067-0.691l-0.954-22.765
		l17.186-0.47C271.335,269.611,270.953,268.537,270.546,267.469z M66.661,166.738l-1.162-28.402l33.184,1.686l1.038,25.364
		L66.661,166.738z M66.795,170.001l33.059-1.353l1.353,33.058l-32.872,1.473L66.795,170.001z M69.965,238.326l-1.479-31.873
		l32.854-1.486l0.263,6.416c0.004,0.001,0.008,0.003,0.011,0.004c0.496,12.402,0.858,21.463,0.858,21.463l0.177,4.359
		L69.965,238.326z M209.929,200.625l1.494,32.263l-32.871,1.214l-1.088-32.196L209.929,200.625z M172.494,165.674l1.32,32.225
		c0.08-0.08,0.157-0.165,0.237-0.245l0.038,1.117l-33.264,1.314l-1.311-33.06L172.494,165.674z M103.165,168.512l33.009-1.351
		l1.353,33.058l-33.038,1.352L103.165,168.512z M104.62,204.833l33.041-1.352l0.484,11.836c0.006-0.001,0.011-0.002,0.016-0.003
		l0.809,20.408l-33.058,1.353L104.62,204.833z M106.045,240.335l33.059-1.353l1.353,33.059l-33.06,1.353L106.045,240.335z
		 M108.884,309.715l-1.353-33.059l33.06-1.353l1.353,33.059L108.884,309.715z M140.954,203.345l33.246-1.311l1.092,32.201
		l-33.059,1.352L140.954,203.345z M143.719,271.908l-1.353-33.06l33.059-1.353l1.353,33.06L143.719,271.908z M143.852,275.169
		l33.058-1.353l1.353,33.06l-33.059,1.352L143.852,275.169z M146.693,344.549l-1.353-33.059l33.059-1.353l1.353,33.058
		L146.693,344.549z M178.686,237.362l32.887-1.219l1.524,32.925l-33.059,1.353L178.686,237.362z M181.525,306.742l-1.352-33.059
		l33.059-1.353l1.353,33.059L181.525,306.742z M214.676,232.767l-1.501-32.271l34.593-1.364l1.568,32.356L214.676,232.767z
		 M216.358,268.935l-1.531-32.912l34.666-1.284l1.612,33.256L216.358,268.935z"/>
	<path style="fill:#F9D363;" d="M41.961,141.099c18.078,2.699,63.054,9.996,108.748,21.954
		c34.032,8.906,61.606,18.563,81.956,28.703c28.973,14.437,35.525,25.862,36.852,31.388c1.582,6.591-0.278,16.712-5.24,28.498
		c-5.353,12.716-14.06,26.894-25.18,41c-13.918,17.655-30.51,33.798-46.719,45.458c-15.633,11.244-30.265,17.693-40.143,17.693
		c-0.797,0-1.563-0.044-2.278-0.129c-5.621-0.674-17.722-5.797-35.626-32.535c-12.561-18.76-25.568-44.647-38.659-76.94
		c-17.306-42.693-30.129-85.367-35.298-103.433L41.961,141.099 M35.838,123.355l-14.106,14.718c0,0,60.203,226.249,126.237,234.168
		c1.385,0.166,2.814,0.248,4.266,0.248c52.118,0,145.21-104.55,133.518-153.245C270.129,154.174,35.838,123.355,35.838,123.355
		L35.838,123.355z"/>
	<path style="opacity:0.58;fill:#DBC88D;" d="M169.111,366.99c-5.616-3.392-16.062-1.424-22.065-3.81
		c-4.562-1.813-14.001-7.003-18.089-9.741c-14.959-11.132-58.791-69.227-101.459-221.924l-5.951,6.209
		c0,0,60.622,226.412,126.063,234.456c1.385,0.17,3.175,0.308,4.627,0.308c5.356,0,11.233-1.122,17.297-3.156
		C169.87,368.757,169.597,367.36,169.111,366.99z"/>
	<path style="fill:#29546C;" d="M37.711,121.975c-0.758-1.815-1.898-3.505-3.44-4.926l-5.126-4.723
		c-3.723,6.635-7.105,13.486-10.105,20.54c-0.838,1.972-1.643,3.96-2.422,5.962c1.206,0.867,2.513,1.522,3.875,1.963
		c0.006,0.014,0.011,0.031,0.016,0.045c0.854,0.268,1.726,0.451,2.606,0.552c4.317,0.497,8.8-0.993,11.97-4.432
		C38.938,132.776,39.767,126.898,37.711,121.975z"/>
	<path style="opacity:0.47;fill:#29546C;" d="M19.04,132.867c-0.838,1.972-1.643,3.96-2.422,5.962
		c1.206,0.867,2.513,1.522,3.875,1.963c0.006,0.014,0.011,0.031,0.016,0.045c0.854,0.268,1.726,0.451,2.606,0.552
		c2.359,0.272,4.768-0.05,6.985-0.959"/>
</g>
<g>
</g>
<g>
</g>
<g>
</g>
<g>
</g>
<g>
</g>
<g>
</g>
<g>
</g>
<g>
</g>
<g>
</g>
<g>
</g>
<g>
</g>
<g>
</g>
<g>
</g>
<g>
</g>
<g>
</g>
</svg>
