<?xml version="1.0" encoding="iso-8859-1"?>
<!-- Generator: Adobe Illustrator 19.1.0, SVG Export Plug-In . SVG Version: 6.00 Build 0)  -->
<svg version="1.1" id="Capa_1" xmlns="http://www.w3.org/2000/svg" xmlns:xlink="http://www.w3.org/1999/xlink" x="0px" y="0px"
	 viewBox="0 0 429.039 429.039" style="enable-background:new 0 0 429.039 429.039;" xml:space="preserve">
<g>
	<g>
		<circle style="fill:#518066;" cx="221.558" cy="214.52" r="207.481"/>
		<ellipse style="opacity:0.43;fill:#3B4643;" cx="99.934" cy="318.431" rx="49.634" ry="15.965"/>
		<g>
			<g>
				<path style="fill:#EAEBED;" d="M78.767,287.908c35.587-7.188,58.609-41.863,51.422-77.452
					c-7.184-35.588-41.863-58.613-77.452-51.427c-35.586,7.189-58.612,41.864-51.423,77.453
					C8.501,272.069,43.179,295.095,78.767,287.908z"/>
				<path style="fill:#69AFF3;" d="M112.214,269.973L90.527,162.579c-11.574-4.72-24.617-6.208-37.789-3.551
					c-13.169,2.66-24.613,9.093-33.446,17.935l21.687,107.394c11.573,4.721,24.615,6.209,37.789,3.55
					C91.936,285.248,103.381,278.815,112.214,269.973z"/>
				<path style="fill:#FFFFFF;" d="M71.631,252.585c16.084-3.247,26.485-18.914,23.237-34.995
					c-3.248-16.081-18.915-26.485-34.994-23.238c-16.084,3.248-26.485,18.916-23.237,34.994
					C39.885,245.428,55.552,255.832,71.631,252.585z"/>
				
					<rect x="56.001" y="197.436" transform="matrix(0.1978 0.9802 -0.9802 0.1978 257.5309 108.6459)" style="fill:#2B1F15;" width="12.766" height="28.472"/>
				
					<rect x="60.842" y="221.416" transform="matrix(0.1978 0.9802 -0.9802 0.1978 284.9217 123.1383)" style="fill:#2B1F15;" width="12.766" height="28.47"/>
			</g>
			<path style="opacity:0.44;fill:#5186BB;" d="M18.905,243.973c-4.843-23.971,4.036-47.52,21.224-62.542
				c0.107-0.097,0.215-0.191,0.322-0.286c2.237-1.93,4.616-3.713,7.117-5.338c0.186-0.116,0.365-0.237,0.55-0.355
				c1.256-0.795,2.532-1.558,3.847-2.273c0.02-0.012,0.037-0.021,0.055-0.031c1.246-0.675,2.527-1.298,3.824-1.894
				c0.279-0.13,0.556-0.254,0.836-0.379c1.339-0.595,2.691-1.157,4.083-1.662c0.044-0.017,0.09-0.029,0.133-0.044
				c1.323-0.478,2.672-0.905,4.039-1.302c0.35-0.102,0.704-0.2,1.059-0.297c1.425-0.391,2.865-0.75,4.334-1.048
				c1.471-0.296,2.938-0.523,4.403-0.716c0.362-0.049,0.723-0.092,1.086-0.134c1.419-0.165,2.836-0.298,4.248-0.37
				c0.04-0.003,0.079-0.007,0.12-0.009c1.477-0.073,2.948-0.081,4.415-0.054c0.303,0.005,0.606,0.016,0.908,0.025
				c1.435,0.045,2.866,0.126,4.283,0.264c0.012,0.002,0.027,0.004,0.038,0.004c1.49,0.146,2.966,0.356,4.431,0.602
				c0.219,0.039,0.433,0.078,0.652,0.118c1.694,0.302,3.365,0.689,5.022,1.123c-4.256-2.592-8.791-4.736-13.556-6.315
				c-0.149-0.049-0.294-0.099-0.441-0.148c-2.806-0.909-5.684-1.627-8.617-2.152c-0.216-0.039-0.431-0.08-0.65-0.116
				c-1.466-0.247-2.941-0.456-4.43-0.604c-0.012,0-0.028-0.002-0.039-0.003c-1.415-0.137-2.847-0.219-4.282-0.265
				c-0.303-0.008-0.605-0.019-0.908-0.024c-1.468-0.027-2.939-0.021-4.415,0.054c-0.04,0-0.08,0.005-0.12,0.007
				c-1.411,0.072-2.829,0.205-4.248,0.371c-0.362,0.041-0.723,0.085-1.085,0.134c-1.466,0.193-2.934,0.422-4.405,0.716
				c-1.468,0.298-2.906,0.657-4.333,1.046c-0.356,0.099-0.708,0.197-1.06,0.3c-1.365,0.397-2.714,0.823-4.035,1.301
				c-0.046,0.015-0.093,0.03-0.137,0.044c-1.389,0.505-2.744,1.071-4.083,1.661c-0.278,0.126-0.556,0.251-0.834,0.38
				c-1.297,0.596-2.577,1.221-3.823,1.896c-0.018,0.009-0.037,0.018-0.056,0.03c-1.314,0.714-2.591,1.476-3.846,2.272
				c-0.185,0.119-0.364,0.238-0.551,0.356c-2.5,1.626-4.88,3.409-7.116,5.34c-0.109,0.094-0.218,0.189-0.327,0.286
				C5.352,188.96-3.527,212.509,1.314,236.482c4.84,23.963,22.151,42.215,43.807,49.395c0.15,0.052,0.299,0.102,0.447,0.152
				c1.183,0.381,2.385,0.711,3.592,1.026C34.064,277.856,22.679,262.669,18.905,243.973z"/>
		</g>
		<g>
			<path style="fill:#EA7053;" d="M428.983,210.106l-242.426,2.626l0,0h0.001c1.662,0,3.01,3.603,3.01,8.047
				c0,4.121-1.16,7.514-2.653,7.986l241.44,2.615c0.447-5.562,0.685-11.183,0.685-16.861
				C429.039,213.044,429.014,211.575,428.983,210.106z"/>
			<path style="fill:#505B66;" d="M186.558,212.733L186.558,212.733c-1.663,0.001-3.011,3.604-3.011,8.047
				c0,4.444,1.348,8.047,3.011,8.047c0.121,0,0.239-0.024,0.357-0.062c1.493-0.472,2.653-3.865,2.653-7.986
				C189.568,216.335,188.221,212.733,186.558,212.733z"/>
		</g>
		<path style="opacity:0.26;fill:#EA7053;" d="M428.355,225.157l-241.44-2.615c-0.117,0.037-0.236,0.062-0.357,0.062
			c-1.25,0-2.321-2.037-2.777-4.935c-0.151,0.958-0.234,2.008-0.234,3.112c0,4.444,1.348,8.047,3.011,8.047
			c0.121,0,0.239-0.024,0.357-0.062l241.44,2.615c0.447-5.562,0.685-11.183,0.685-16.861c0-0.934-0.02-1.863-0.035-2.794
			C428.928,216.239,428.711,220.718,428.355,225.157z"/>
	</g>
	<ellipse style="fill:#EAEBED;" cx="221.558" cy="314.512" rx="13.397" ry="3.919"/>
</g>
<g>
</g>
<g>
</g>
<g>
</g>
<g>
</g>
<g>
</g>
<g>
</g>
<g>
</g>
<g>
</g>
<g>
</g>
<g>
</g>
<g>
</g>
<g>
</g>
<g>
</g>
<g>
</g>
<g>
</g>
</svg>
