<svg id="Layer_1" data-name="Layer 1" xmlns="http://www.w3.org/2000/svg" xmlns:xlink="http://www.w3.org/1999/xlink" viewBox="0 0 325.58 275.25"><defs><style>.cls-1{fill:none;}.cls-2{opacity:0.2;}.cls-3{fill:#e8eef6;}.cls-4{fill:#b5adea;}.cls-5{fill:#ece9ff;}.cls-6{opacity:0.1;}.cls-7{fill:#9bb5bc;}.cls-8{fill:#efb185;}.cls-9{fill:#ec6665;}.cls-10{fill:#d75150;}.cls-11{fill:#111114;}.cls-12{fill:#0a0a0a;}.cls-13{fill:#1772cc;}.cls-14{fill:#2180f2;}.cls-15{fill:#dd9569;}.cls-16{fill:#f2b78f;}.cls-17{fill:#e6a376;}.cls-18{fill:#954f01;}.cls-19{fill:#7f4103;}.cls-20{fill:#ff8183;}.cls-21{fill:#e5a67c;}.cls-22{isolation:isolate;}.cls-23{clip-path:url(#clip-path);}.cls-24{fill:#857b23;}.cls-25{fill:#8a8024;}.cls-26{fill:#8f8526;}.cls-27{fill:#948927;}.cls-28{fill:#998e28;}.cls-29{fill:#9e932a;}.cls-30{fill:#a3982b;}.cls-31{fill:#a89c2c;}.cls-32{fill:#ada12e;}.cls-33{fill:#b3a62f;}.cls-34{fill:#b8ab30;}.cls-35{clip-path:url(#clip-path-2);}.cls-36{fill:#7e6121;}.cls-37{fill:#836422;}.cls-38{fill:#886823;}.cls-39{fill:#8c6c25;}.cls-40{fill:#917026;}.cls-41{fill:#967327;}.cls-42{fill:#9b7728;}.cls-43{fill:#a07b2a;}.cls-44{fill:#a57e2b;}.cls-45{fill:#a9822c;}.cls-46{fill:#ae862d;}.cls-47{fill:#c4b634;}.cls-48{clip-path:url(#clip-path-3);}.cls-49{fill:#836522;}.cls-50{clip-path:url(#clip-path-4);}.cls-51{clip-path:url(#clip-path-5);}.cls-52{clip-path:url(#clip-path-6);}.cls-53{clip-path:url(#clip-path-7);}.cls-54{clip-path:url(#clip-path-8);}.cls-55{clip-path:url(#clip-path-9);}.cls-56{clip-path:url(#clip-path-10);}.cls-57{clip-path:url(#clip-path-11);}.cls-58{clip-path:url(#clip-path-12);}.cls-59{clip-path:url(#clip-path-13);}.cls-60{clip-path:url(#clip-path-14);}.cls-61{clip-path:url(#clip-path-15);}.cls-62{clip-path:url(#clip-path-16);}.cls-63{fill:#ba8f31;}.cls-64{clip-path:url(#clip-path-17);}.cls-65{fill:#795d20;}.cls-66{clip-path:url(#clip-path-18);}.cls-67{fill:#facd00;}.cls-68{clip-path:url(#clip-path-19);}.cls-69{fill:#f9ac00;}.cls-70{fill:#eb8601;}.cls-71{fill:#f9c5a2;}.cls-72{fill:#f7bc94;}.cls-73{clip-path:url(#clip-path-20);}.cls-74{clip-path:url(#clip-path-21);}.cls-75{clip-path:url(#clip-path-22);}.cls-76{clip-path:url(#clip-path-23);}.cls-77{clip-path:url(#clip-path-24);}.cls-78{clip-path:url(#clip-path-25);}.cls-79{clip-path:url(#clip-path-26);}.cls-80{clip-path:url(#clip-path-27);}.cls-81{clip-path:url(#clip-path-28);}.cls-82{clip-path:url(#clip-path-29);}.cls-83{clip-path:url(#clip-path-30);}.cls-84{clip-path:url(#clip-path-31);}.cls-85{clip-path:url(#clip-path-32);}.cls-86{clip-path:url(#clip-path-33);}.cls-87{clip-path:url(#clip-path-34);}.cls-88{clip-path:url(#clip-path-35);}.cls-89{clip-path:url(#clip-path-36);}.cls-90{clip-path:url(#clip-path-37);}.cls-91{clip-path:url(#clip-path-38);}.cls-92{fill:#0d2445;}.cls-93{fill:#1d2645;}.cls-94{fill:#252e54;}.cls-95{fill:#1a213a;}.cls-96{fill:#2b3e6e;}.cls-97{fill:#221101;}.cls-98{fill:#341c09;}.cls-99{fill:#def0f9;}.cls-100{fill:#aa6fad;}.cls-101{fill:#8d5b8b;}.cls-102{fill:#512d38;}.cls-103{fill:#613943;}.cls-104{fill:#a3805a;}.cls-105{fill:#ddb786;}.cls-106{fill:#826243;}.cls-107{fill:#bf9b71;}.cls-108{fill:#fddbaa;}.cls-109{fill:#ddb787;}.cls-110{fill:#b18349;}.cls-111{fill:#e7c18e;}</style><clipPath id="clip-path" transform="translate(-202.77 -87.74)"><path class="cls-1" d="M368.89,149.26c6.14-3.54,16.06-3.54,22.15,0,0-2,0-4,0-6-6.1-3.55-16-3.55-22.16,0Q368.89,146.26,368.89,149.26Z"/></clipPath><clipPath id="clip-path-2" transform="translate(-202.77 -87.74)"><path class="cls-1" d="M371.1,150.55c4.84-2.79,12.66-2.79,17.46,0,0-2,0-4,0-6-4.8-2.79-12.62-2.79-17.46,0C371.09,146.54,371.09,148.55,371.1,150.55Z"/></clipPath><clipPath id="clip-path-3" transform="translate(-202.77 -87.74)"><path class="cls-1" d="M381,146.19l0,6a6.87,6.87,0,0,1,2.53.87v-6A7.15,7.15,0,0,0,381,146.19Z"/></clipPath><clipPath id="clip-path-4" transform="translate(-202.77 -87.74)"><path class="cls-1" d="M383.53,154.61l0-6c0-.31-.24-.64-.72-.94a6.43,6.43,0,0,0-2.4-.8l0,6a6.43,6.43,0,0,1,2.4.8C383.29,154,383.53,154.31,383.53,154.61Z"/></clipPath><clipPath id="clip-path-5" transform="translate(-202.77 -87.74)"><path class="cls-1" d="M384.29,153.57a1.65,1.65,0,0,1,.67,1.19v-6a1.59,1.59,0,0,0-.68-1.19C384.28,149.37,384.29,151.77,384.29,153.57Z"/></clipPath><clipPath id="clip-path-6" transform="translate(-202.77 -87.74)"><path class="cls-1" d="M383,155.3a.82.82,0,0,0,.49-.69l0-6a.82.82,0,0,1-.49.68C383,151.29,383,153.3,383,155.3Z"/></clipPath><clipPath id="clip-path-7" transform="translate(-202.77 -87.74)"><path class="cls-1" d="M391,149.26c3,1.76,4.55,4.07,4.56,6.38l0-6c0-2.31-1.53-4.61-4.55-6.37C391,145.26,391,147.26,391,149.26Z"/></clipPath><clipPath id="clip-path-8" transform="translate(-202.77 -87.74)"><path class="cls-1" d="M388.56,150.55c2.39,1.39,3.58,3.2,3.59,5l0-6c0-1.81-1.19-3.63-3.59-5C388.55,146.54,388.56,148.55,388.56,150.55Z"/></clipPath><clipPath id="clip-path-9" transform="translate(-202.77 -87.74)"><path class="cls-1" d="M364.27,155.73c0-2.34,1.53-4.68,4.62-6.47q0-3,0-6c-3.08,1.78-4.63,4.12-4.62,6.46C364.25,151.52,364.26,153.92,364.27,155.73Z"/></clipPath><clipPath id="clip-path-10" transform="translate(-202.77 -87.74)"><path class="cls-1" d="M367.46,155.64c0-1.84,1.21-3.68,3.64-5.09,0-2,0-4,0-6-2.43,1.41-3.65,3.25-3.64,5.09S367.45,153.84,367.46,155.64Z"/></clipPath><clipPath id="clip-path-11" transform="translate(-202.77 -87.74)"><path class="cls-1" d="M380,155.33a4.14,4.14,0,0,0,3,0q0-3,0-6a4.14,4.14,0,0,1-3,0h0c0,2,0,4,0,6Z"/></clipPath><clipPath id="clip-path-12" transform="translate(-202.77 -87.74)"><path class="cls-1" d="M375.56,155.32c1.16-.64,2.58-.49,4.4,0,0-2,0-4,0-6-1.83-.5-3.24-.65-4.41,0l-.06,0a1.42,1.42,0,0,0-.85,1.18v6a1.44,1.44,0,0,1,.85-1.17Z"/></clipPath><clipPath id="clip-path-13" transform="translate(-202.77 -87.74)"><path class="cls-1" d="M376,150.69l0,6a.75.75,0,0,1,.44-.61l0,0,0-6,0,0A.74.74,0,0,0,376,150.69Z"/></clipPath><clipPath id="clip-path-14" transform="translate(-202.77 -87.74)"><path class="cls-1" d="M385,154.76v-6a1.53,1.53,0,0,1-.9,1.25l-.06,0c-1.2.64-2.55.63-4.42.13-1.59-.4-2.4-.5-3.1-.12l0,6c.69-.38,1.51-.28,3.09.13,1.88.48,3.23.5,4.43-.15l.06,0A1.54,1.54,0,0,0,385,154.76Z"/></clipPath><clipPath id="clip-path-15" transform="translate(-202.77 -87.74)"><path class="cls-1" d="M374.63,150.52v6a1.62,1.62,0,0,0,.66,1.16l0-6A1.62,1.62,0,0,1,374.63,150.52Z"/></clipPath><clipPath id="clip-path-16" transform="translate(-202.77 -87.74)"><path class="cls-1" d="M376,150.69l0,6c0,.25.18.54.66.83a5.77,5.77,0,0,0,2.05.73v-6a5.74,5.74,0,0,1-2.06-.73C376.17,151.23,376,150.94,376,150.69Z"/></clipPath><clipPath id="clip-path-17" transform="translate(-202.77 -87.74)"><path class="cls-1" d="M376,152.17l0,6a6.24,6.24,0,0,0,2.11.76l0-6A6.1,6.1,0,0,1,376,152.17Z"/></clipPath><clipPath id="clip-path-18" transform="translate(-202.77 -87.74)"><path class="cls-1" d="M367.44,149.63l0,6c0,1.82,1.2,3.63,3.59,5,4.8,2.8,12.62,2.8,17.45,0,2.44-1.4,3.66-3.25,3.65-5.09l0-6c0,1.84-1.21,3.69-3.64,5.09-4.84,2.8-12.66,2.8-17.46,0C368.64,153.27,367.45,151.45,367.44,149.63Z"/></clipPath><clipPath id="clip-path-19" transform="translate(-202.77 -87.74)"><path class="cls-1" d="M364.25,149.72q0,3,0,6c0,2.3,1.52,4.6,4.55,6.37,6.1,3.54,16,3.54,22.15,0,3.09-1.78,4.63-4.12,4.63-6.46l0-6c0,2.34-1.54,4.68-4.62,6.46-6.14,3.54-16.06,3.54-22.16,0C365.77,154.33,364.25,152,364.25,149.72Z"/></clipPath><clipPath id="clip-path-20" transform="translate(-202.77 -87.74)"><path class="cls-1" d="M373.34,191.71c-9.53-5.5-24.93-5.5-34.39,0,0-3.11,0-6.22,0-9.33,9.47-5.5,24.87-5.5,34.39,0C373.35,185.49,373.35,188.6,373.34,191.71Z"/></clipPath><clipPath id="clip-path-21" transform="translate(-202.77 -87.74)"><path class="cls-1" d="M369.9,193.71c-7.51-4.34-19.64-4.34-27.1,0,0-3.12,0-6.22,0-9.33,7.46-4.34,19.6-4.34,27.11,0C369.92,187.49,369.92,190.59,369.9,193.71Z"/></clipPath><clipPath id="clip-path-22" transform="translate(-202.77 -87.74)"><path class="cls-1" d="M354.57,186.94l0,9.33a10.73,10.73,0,0,0-3.94,1.34l0-9.34A10.89,10.89,0,0,1,354.57,186.94Z"/></clipPath><clipPath id="clip-path-23" transform="translate(-202.77 -87.74)"><path class="cls-1" d="M350.61,200l0-9.33c0-.48.37-1,1.11-1.46a10,10,0,0,1,3.73-1.24l0,9.33a10.15,10.15,0,0,0-3.73,1.24C351,199,350.61,199.54,350.61,200Z"/></clipPath><clipPath id="clip-path-24" transform="translate(-202.77 -87.74)"><path class="cls-1" d="M349.43,198.4a2.52,2.52,0,0,0-1.05,1.85l0-9.33a2.52,2.52,0,0,1,1-1.85C349.45,191.87,349.44,195.6,349.43,198.4Z"/></clipPath><clipPath id="clip-path-25" transform="translate(-202.77 -87.74)"><path class="cls-1" d="M351.38,201.08a1.27,1.27,0,0,1-.77-1.06l0-9.33a1.28,1.28,0,0,0,.76,1.07Q351.39,196.41,351.38,201.08Z"/></clipPath><clipPath id="clip-path-26" transform="translate(-202.77 -87.74)"><path class="cls-1" d="M339,191.71c-4.71,2.73-7.06,6.31-7.07,9.9l0-9.34c0-3.58,2.37-7.16,7.07-9.89C339,185.49,339,188.6,339,191.71Z"/></clipPath><clipPath id="clip-path-27" transform="translate(-202.77 -87.74)"><path class="cls-1" d="M342.8,193.71c-3.71,2.15-5.56,5-5.57,7.79l0-9.33c0-2.82,1.87-5.64,5.57-7.79C342.81,187.49,342.81,190.59,342.8,193.71Z"/></clipPath><clipPath id="clip-path-28" transform="translate(-202.77 -87.74)"><path class="cls-1" d="M380.52,201.74c0-3.63-2.39-7.26-7.18-10,0-3.11,0-6.22,0-9.33,4.8,2.77,7.2,6.4,7.18,10C380.53,195.21,380.53,198.94,380.52,201.74Z"/></clipPath><clipPath id="clip-path-29" transform="translate(-202.77 -87.74)"><path class="cls-1" d="M375.56,201.61c0-2.86-1.87-5.72-5.66-7.9,0-3.12,0-6.22,0-9.33,3.78,2.18,5.67,5,5.66,7.9S375.57,198.81,375.56,201.61Z"/></clipPath><clipPath id="clip-path-30" transform="translate(-202.77 -87.74)"><path class="cls-1" d="M356.15,201.12c-2.08.54-3.57.62-4.71,0l0-9.33c1.14.63,2.62.55,4.7,0h0c0,3.11,0,6.22,0,9.33Z"/></clipPath><clipPath id="clip-path-31" transform="translate(-202.77 -87.74)"><path class="cls-1" d="M363,201.11c-1.81-1-4-.76-6.84,0,0-3.11,0-6.22,0-9.33,2.84-.77,5-1,6.85,0l.09.05a2.21,2.21,0,0,1,1.32,1.82l0,9.33a2.18,2.18,0,0,0-1.31-1.82Z"/></clipPath><clipPath id="clip-path-32" transform="translate(-202.77 -87.74)"><path class="cls-1" d="M362.31,193.93l0,9.33a1.2,1.2,0,0,0-.69-1l-.05,0,0-9.33s0,0,.05,0A1.14,1.14,0,0,1,362.31,193.93Z"/></clipPath><clipPath id="clip-path-33" transform="translate(-202.77 -87.74)"><path class="cls-1" d="M348.38,200.25l0-9.33a2.38,2.38,0,0,0,1.39,2l.1,0c1.85,1,4,1,6.86.21,2.46-.63,3.74-.77,4.81-.18l0,9.33c-1.08-.59-2.36-.44-4.81.19-2.91.76-5,.79-6.87-.22l-.09-.05A2.39,2.39,0,0,1,348.38,200.25Z"/></clipPath><clipPath id="clip-path-34" transform="translate(-202.77 -87.74)"><path class="cls-1" d="M364.43,193.65l0,9.33a2.49,2.49,0,0,1-1,1.79l0-9.33A2.47,2.47,0,0,0,364.43,193.65Z"/></clipPath><clipPath id="clip-path-35" transform="translate(-202.77 -87.74)"><path class="cls-1" d="M362.31,193.93l0,9.33c0,.39-.29.83-1,1.28a8.93,8.93,0,0,1-3.19,1.13l0-9.33a8.93,8.93,0,0,0,3.19-1.13C362,194.76,362.31,194.32,362.31,193.93Z"/></clipPath><clipPath id="clip-path-36" transform="translate(-202.77 -87.74)"><path class="cls-1" d="M362.27,196.23l0,9.32a9.72,9.72,0,0,1-3.28,1.18l0-9.34A9.55,9.55,0,0,0,362.27,196.23Z"/></clipPath><clipPath id="clip-path-37" transform="translate(-202.77 -87.74)"><path class="cls-1" d="M375.59,192.28l0,9.33c0,2.82-1.86,5.64-5.57,7.79-7.46,4.34-19.59,4.34-27.1,0-3.79-2.17-5.67-5-5.66-7.9l0-9.33c0,2.86,1.88,5.73,5.66,7.91,7.51,4.33,19.65,4.33,27.11,0C373.73,197.92,375.58,195.1,375.59,192.28Z"/></clipPath><clipPath id="clip-path-38" transform="translate(-202.77 -87.74)"><path class="cls-1" d="M380.54,192.41c0,3.11,0,6.22,0,9.33,0,3.58-2.37,7.16-7.07,9.89-9.46,5.5-24.87,5.5-34.4,0-4.79-2.77-7.18-6.4-7.17-10l0-9.34c0,3.64,2.39,7.27,7.18,10,9.53,5.51,24.93,5.5,34.4,0C378.18,199.57,380.53,196,380.54,192.41Z"/></clipPath></defs><g class="cls-2"><polygon points="313.95 187.7 163.31 275.25 11.68 187.69 162.31 100.16 313.95 187.7"/></g><polygon class="cls-3" points="325.58 148.82 325.52 165.88 163.3 260.16 163.35 243.1 325.58 148.82"/><polygon class="cls-4" points="163.35 243.1 163.3 260.16 0 165.87 0.05 148.82 163.35 243.1"/><polygon class="cls-5" points="325.58 148.82 163.35 243.1 0.05 148.82 162.28 54.54 325.58 148.82"/><g class="cls-6"><path d="M419.59,193.39c11.58,6.68,11.64,17.52.13,24.2s-30.21,6.69-41.78,0-11.63-17.52-.14-24.2S408,186.71,419.59,193.39Z" transform="translate(-202.77 -87.74)"/></g><path class="cls-7" d="M374.79,140.56s4.53-.6,5.22,3.89A4.3,4.3,0,0,1,374.79,140.56Z" transform="translate(-202.77 -87.74)"/><path class="cls-8" d="M379.72,142.1a30.7,30.7,0,0,0-1.8,4.48c-.11.94-2.11,2.62-3.27,3s-4.36,1-3.78-.72,1.22-2.36,1.42-3.46a7.67,7.67,0,0,1,2.07-3.46l2.81-1.91Z" transform="translate(-202.77 -87.74)"/><path class="cls-9" d="M391.61,105.5s-3.3-.55-5.64,10.31-2.33,11.54-2.33,11.54l-8.85,13.21a4.76,4.76,0,0,1,5.22,3.89s7.33-7.62,8.16-10.36S401.78,106.87,391.61,105.5Z" transform="translate(-202.77 -87.74)"/><path class="cls-10" d="M380,144.45a5.17,5.17,0,0,0-1.4-2.63c5.56-5,9.69-14.65,9.69-14.65l1.85,2.28c-1,2.3-1.79,4-2,4.64C387.34,136.83,380,144.45,380,144.45Z" transform="translate(-202.77 -87.74)"/><path class="cls-11" d="M398.54,200.58s1.32,3.09,0,3.89-1.5,1.68-3.63,1.5-1.81.53-2.54,1.33-8.24,4.06-9.65,2.47,2.57-3.46,4-4.38,4.77-4.63,4.86-5.69S398.54,200.58,398.54,200.58Z" transform="translate(-202.77 -87.74)"/><path class="cls-12" d="M398.54,204.47c-1.33.8-1.5,1.68-3.63,1.5s-1.81.53-2.54,1.33-8.24,4.06-9.65,2.47a1.18,1.18,0,0,1,.13-1.68l2.2.4c2.2.38,5.06-2.17,6.15-3.11s2.49-.58,4.38-.9,1.63-3.21,1.63-3.21l1.41-.49C398.88,201.47,399.67,203.8,398.54,204.47Z" transform="translate(-202.77 -87.74)"/><path class="cls-11" d="M411.93,210.62s.56,3.66-.84,5.63-4.49,5.41-5.83,5.26-1.54-.77-1.54-.77a13.13,13.13,0,0,1,.42-5.93,19.3,19.3,0,0,0,1.05-4.19Z" transform="translate(-202.77 -87.74)"/><path class="cls-12" d="M411.09,216.25c-1.24,1.74-3.77,4.6-5.28,5.16,2-2.55-1-2,1.25-3.23,3.07-1.67,1.11-3.06,2.48-3.45s.36-3.77.36-3.77l.74-.34h1.29S412.49,214.28,411.09,216.25Z" transform="translate(-202.77 -87.74)"/><path class="cls-13" d="M395.68,151.16s-6.3-.69-8.42-5.36a154.3,154.3,0,0,0,.71,22.26c1.27,11.95,2.33,33,2.33,33s4.08,3.85,8.3,0c0,0,1.18-13.88,0-21.57,0,0,.79-13.46-.53-20.19S395.68,151.16,395.68,151.16Z" transform="translate(-202.77 -87.74)"/><path class="cls-14" d="M390.3,201s-1.06-21-2.33-33a170.67,170.67,0,0,1-.71-23.44,12.69,12.69,0,0,0,7.27,6.32c-.15,4.57-.58,18-.51,22.49.06,4.25.89,21.86,1.24,29.27A6.67,6.67,0,0,1,390.3,201Z" transform="translate(-202.77 -87.74)"/><path class="cls-13" d="M410.51,150.44s.61,7,.74,17.85.92,15,1.19,16.62,1.18,19.84.65,25.15c0,0-3.42,5.3-8.83,0,0,0-.92-18.64-1.84-22.88s-6.08-24.84-8.17-32.24c-.92-3.27-1.14-4.5-1.14-4.5S402.21,157,410.51,150.44Z" transform="translate(-202.77 -87.74)"/><path class="cls-14" d="M404.26,210.06s-.92-18.64-1.84-22.88-6.08-24.84-8.17-32.24a17.26,17.26,0,0,0-3.05-5.78s6,4.19,11.14,4.17c.23,1.6,2.42,16.82,2.94,23.47s5,29.79,3.81,35.61C407.75,212.45,406.13,211.88,404.26,210.06Z" transform="translate(-202.77 -87.74)"/><path class="cls-9" d="M404.57,107.07s9.3,5.6,9.48,6.35,2.56,2.73-1.61,10.94c0,0-5.43,8.86-3.68,18.22a57.09,57.09,0,0,0,2.06,8.3s-4.73,6.05-16.44.77c-2.36-1.06-6.21-4.66-7.26-7.41a62.91,62.91,0,0,0,.83-17.07c-.85-9.29-.86-21.27,4.47-22.48C392.42,104.69,393.86,103.18,404.57,107.07Z" transform="translate(-202.77 -87.74)"/><path class="cls-8" d="M406.15,100.48s-3.26,4.27-1.14,7.45c1.19,1.78-2.16,5.57-7.4,4.88,0,0-2.3-.74-2-1.57.68-1.9,0-3-.75-4.58S406.15,100.48,406.15,100.48Z" transform="translate(-202.77 -87.74)"/><path class="cls-15" d="M405,107.93a1.34,1.34,0,0,1,.23.72c-1.83-2.14-5.59-2.56-5.59-2.56l5.37-5.16.53-.21.12.5C404.84,102.58,403.43,105.56,405,107.93Z" transform="translate(-202.77 -87.74)"/><path class="cls-16" d="M395.61,111.24c.71-3,0-3-.75-4.58-.2-.42.56-1.08,1.77-1.81a3.6,3.6,0,0,1,.79,1c1.81,3.28,1.62,5.72,1.28,7a5.1,5.1,0,0,1-1.09-.08C397,112.67,395.39,112.18,395.61,111.24Z" transform="translate(-202.77 -87.74)"/><path class="cls-8" d="M407.43,98.05s-1.71,5.83-6,8.23c-3.78,2.13-8.09,3.39-8.57-1-.37-3.47-1.43-12.32,1.72-13.86,4.06-2,5.68-4.66,10.08-2.68C404.69,88.77,409.68,91.51,407.43,98.05Z" transform="translate(-202.77 -87.74)"/><path class="cls-17" d="M407.43,98.05a13.38,13.38,0,0,1-6,8.31,16.14,16.14,0,0,1-3.55,1.57,15.78,15.78,0,0,0,3.82-3.29c1.6-1.6-2.12-1.2.7-5.41.95-1.44-3.36.19-4.29.11-5.55-.54-4.91-3.69-4.93-5a9.07,9.07,0,0,1,.59-1.62l.59-1,.21-.26a19.36,19.36,0,0,1,1.94-1.85c2.38.22,9.14.84,9.26.89s1.15,1.69,2.12,3.27A9.21,9.21,0,0,1,407.43,98.05Z" transform="translate(-202.77 -87.74)"/><path class="cls-18" d="M404.58,103.61s4.79-3.81,3.65-9.85a6.94,6.94,0,0,0-5.75-5.83c-2.51-.49-7-.4-9.27,4.57-.71,1.55-.54,5.8,5.83,4.62.92-.17,2.9-1.32,3.68-.5a3.26,3.26,0,0,1,.29,3.43c-.43,1,.5,1.22.65,1s1.55-3.16,2.61-1.9S404.7,103.41,404.58,103.61Z" transform="translate(-202.77 -87.74)"/><path class="cls-19" d="M404.58,103.61c.12-.2,2.63-3.31,1.69-4.46s-2.48,1.68-2.61,1.9-1.08,0-.65-1a3.26,3.26,0,0,0-.29-3.43c-.71-.75-2.4.13-3.39.43a7.94,7.94,0,0,0,3.32-3.29,6.18,6.18,0,0,1,4-3.55,7.24,7.24,0,0,1,1.62,3.55C409.37,99.8,404.58,103.61,404.58,103.61Z" transform="translate(-202.77 -87.74)"/><path class="cls-20" d="M387.12,144.24a62.91,62.91,0,0,0,.83-17.07c-.71-7.75-.82-17.34,2.25-21,1.17,1.16,3.46,3.78,3.83,6.74.49,4,4.81,6.57,7,7.26s3.06,4.35,1.38,9.9c-1.36,4.51-.68,16.84.46,23.74a21.63,21.63,0,0,1-8.47-2.14C392,150.59,388.17,147,387.12,144.24Z" transform="translate(-202.77 -87.74)"/><path class="cls-21" d="M374.36,141.92s-2.28,1.9-2.73,3.07-.85,2.28-.51,2.42c.78.33,1.26-.77,1.58-1.56s1.58-1.19,2.32-1.4,3.35-1.93,2.66-3.55l-1.14-.64Z" transform="translate(-202.77 -87.74)"/><g class="cls-22"><g class="cls-23"><g class="cls-22"><path class="cls-24" d="M364.25,149.72l0,6c0-2.34,1.53-4.68,4.62-6.47a18.86,18.86,0,0,1,2.26-1.08l0-6a18.14,18.14,0,0,0-2.26,1.09c-3.08,1.78-4.63,4.12-4.62,6.46Z" transform="translate(-202.77 -87.74)"/><path class="cls-25" d="M371.13,142.17l0,6c.61-.24,1.25-.45,1.9-.64v-6c-.66.19-1.29.4-1.91.64Z" transform="translate(-202.77 -87.74)"/><path class="cls-26" d="M373,141.53v6c.54-.15,1.08-.29,1.64-.4l0-6c-.55.11-1.1.25-1.63.4Z" transform="translate(-202.77 -87.74)"/><path class="cls-27" d="M374.67,141.13l0,6c.51-.11,1-.2,1.55-.27l0-6c-.52.08-1,.16-1.55.27Z" transform="translate(-202.77 -87.74)"/><path class="cls-28" d="M376.22,140.86l0,6c.5-.07,1-.13,1.52-.17v-6c-.52,0-1,.1-1.53.17Z" transform="translate(-202.77 -87.74)"/><path class="cls-29" d="M377.75,140.69v6c.51,0,1-.07,1.54-.08v-6c-.52,0-1,.05-1.54.09Z" transform="translate(-202.77 -87.74)"/><path class="cls-30" d="M379.29,140.6v6c.54,0,1.08,0,1.61,0l0-6c-.53,0-1.07,0-1.6,0Z" transform="translate(-202.77 -87.74)"/><path class="cls-31" d="M380.89,140.61l0,6c.58,0,1.16.05,1.73.11v-6q-.87-.09-1.74-.12Z" transform="translate(-202.77 -87.74)"/><path class="cls-32" d="M382.63,140.73v6c.68.07,1.35.16,2,.28v-6c-.66-.12-1.33-.21-2-.28Z" transform="translate(-202.77 -87.74)"/><path class="cls-33" d="M384.63,141v6a21.85,21.85,0,0,1,3,.74l0-6a21.71,21.71,0,0,0-3-.74Z" transform="translate(-202.77 -87.74)"/><path class="cls-34" d="M387.59,141.75l0,6a17.44,17.44,0,0,1,3.43,1.5l.19.12v-6l-.19-.11a17.82,17.82,0,0,0-3.44-1.51Z" transform="translate(-202.77 -87.74)"/></g></g></g><g class="cls-22"><g class="cls-35"><g class="cls-22"><path class="cls-36" d="M367.44,149.63l0,6c0-1.84,1.21-3.68,3.64-5.09a12.69,12.69,0,0,1,1.78-.85v-6a14,14,0,0,0-1.79.85c-2.43,1.41-3.65,3.25-3.64,5.09Z" transform="translate(-202.77 -87.74)"/><path class="cls-37" d="M372.87,143.69v6a15.57,15.57,0,0,1,1.5-.51v-6q-.78.23-1.5.51Z" transform="translate(-202.77 -87.74)"/><path class="cls-38" d="M374.37,143.18v6c.42-.12.85-.23,1.29-.32l0-6c-.43.08-.86.19-1.28.31Z" transform="translate(-202.77 -87.74)"/><path class="cls-39" d="M375.65,142.87l0,6c.4-.08.81-.15,1.22-.21v-6c-.41.06-.82.13-1.23.22Z" transform="translate(-202.77 -87.74)"/><path class="cls-40" d="M376.88,142.65v6c.4,0,.8-.1,1.2-.13v-6c-.41,0-.8.08-1.2.13Z" transform="translate(-202.77 -87.74)"/><path class="cls-41" d="M378.08,142.52v6c.41,0,.82-.06,1.22-.07l0-6c-.4,0-.81,0-1.21.07Z" transform="translate(-202.77 -87.74)"/><path class="cls-42" d="M379.29,142.45l0,6c.42,0,.85,0,1.27,0l0-6c-.42,0-.84,0-1.27,0Z" transform="translate(-202.77 -87.74)"/><path class="cls-43" d="M380.56,142.46l0,6c.45,0,.91,0,1.36.09v-6c-.46,0-.91-.07-1.37-.09Z" transform="translate(-202.77 -87.74)"/><path class="cls-44" d="M381.93,142.55v6c.53.05,1.06.13,1.58.22l0-6c-.51-.09-1-.17-1.57-.22Z" transform="translate(-202.77 -87.74)"/><path class="cls-45" d="M383.5,142.77l0,6a17.25,17.25,0,0,1,2.33.58v-6a19.51,19.51,0,0,0-2.34-.58Z" transform="translate(-202.77 -87.74)"/><path class="cls-46" d="M385.84,143.35v6a13.31,13.31,0,0,1,2.71,1.19l.15.09,0-6-.15-.09a13.47,13.47,0,0,0-2.7-1.19Z" transform="translate(-202.77 -87.74)"/></g></g></g><polygon class="cls-47" points="182.1 58.57 182.12 64.58 182.92 65.07 182.91 59.07 182.1 58.57"/><polygon class="cls-25" points="180.75 59.32 180.77 65.33 182.12 64.58 182.1 58.57 180.75 59.32"/><g class="cls-22"><g class="cls-48"><g class="cls-22"><path class="cls-32" d="M381,146.19l0,6,.32.05v-6l-.33-.05Z" transform="translate(-202.77 -87.74)"/><path class="cls-33" d="M381.31,146.24v6a7.51,7.51,0,0,1,.85.21l0-6a5.49,5.49,0,0,0-.84-.22Z" transform="translate(-202.77 -87.74)"/><path class="cls-34" d="M382.15,146.46l0,6a6.47,6.47,0,0,1,1.36.61v-6a7.35,7.35,0,0,0-1.37-.59Z" transform="translate(-202.77 -87.74)"/></g></g></g><polygon class="cls-49" points="181.51 59.83 181.52 65.84 182.92 65.07 182.91 59.07 181.51 59.83"/><g class="cls-22"><g class="cls-50"><g class="cls-22"><path class="cls-44" d="M380.39,146.87l0,6,.31.05v-6l-.32,0Z" transform="translate(-202.77 -87.74)"/><path class="cls-45" d="M380.71,146.92v6a6.07,6.07,0,0,1,.91.23l0-6a7.85,7.85,0,0,0-.9-.22Z" transform="translate(-202.77 -87.74)"/><path class="cls-46" d="M381.61,147.14l0,6a4.94,4.94,0,0,1,1.15.5l0-6a5.73,5.73,0,0,0-1.15-.51Z" transform="translate(-202.77 -87.74)"/><path class="cls-45" d="M382.76,147.65l0,6,0,0a2.81,2.81,0,0,1,.36.27v-6a2.37,2.37,0,0,0-.37-.27l0,0Z" transform="translate(-202.77 -87.74)"/><path class="cls-44" d="M383.16,147.94v6c.07.06.12.12.17.17l0-6-.16-.18Z" transform="translate(-202.77 -87.74)"/><path class="cls-43" d="M383.32,148.12l0,6,.09.14,0-6a.51.51,0,0,0-.09-.13Z" transform="translate(-202.77 -87.74)"/><path class="cls-42" d="M383.41,148.25l0,6,.06.12,0-6a.75.75,0,0,0-.06-.13Z" transform="translate(-202.77 -87.74)"/><path class="cls-41" d="M383.47,148.38l0,6,0,.11,0-6,0-.1Z" transform="translate(-202.77 -87.74)"/><path class="cls-40" d="M383.5,148.48l0,6a.41.41,0,0,1,0,.11l0-6a.45.45,0,0,0,0-.11Z" transform="translate(-202.77 -87.74)"/><path class="cls-39" d="M383.51,148.59l0,6h0l0-6v0Z" transform="translate(-202.77 -87.74)"/></g></g></g><g class="cls-22"><g class="cls-51"><g class="cls-22"><path class="cls-33" d="M384.27,147.57l0,6a.6.6,0,0,1,.08.08v-6l-.09-.07Z" transform="translate(-202.77 -87.74)"/><path class="cls-32" d="M384.36,147.64v6a3.5,3.5,0,0,1,.27.28l0-6a1.75,1.75,0,0,0-.26-.29Z" transform="translate(-202.77 -87.74)"/><path class="cls-31" d="M384.62,147.93l0,6a2.22,2.22,0,0,1,.15.23l0-6a1.43,1.43,0,0,0-.15-.22Z" transform="translate(-202.77 -87.74)"/><path class="cls-30" d="M384.77,148.15l0,6a1.86,1.86,0,0,1,.1.2l0-6a.75.75,0,0,0-.1-.2Z" transform="translate(-202.77 -87.74)"/><path class="cls-29" d="M384.87,148.35l0,6a1.8,1.8,0,0,1,.05.19l0-6a1.8,1.8,0,0,0-.05-.19Z" transform="translate(-202.77 -87.74)"/><path class="cls-28" d="M384.92,148.54l0,6a1.23,1.23,0,0,1,0,.19v-6a.68.68,0,0,0,0-.19Z" transform="translate(-202.77 -87.74)"/><path class="cls-27" d="M385,148.73v0Z" transform="translate(-202.77 -87.74)"/></g></g></g><g class="cls-22"><g class="cls-52"><g class="cls-22"><path class="cls-24" d="M382.74,149.43v6l.25-.11s0,0,0,0a.82.82,0,0,0,.49-.69l0-6a.82.82,0,0,1-.49.68l0,0-.24.11Z" transform="translate(-202.77 -87.74)"/></g></g></g><g class="cls-22"><g class="cls-53"><g class="cls-22"><path class="cls-34" d="M387.59,141.75l0,6a17.44,17.44,0,0,1,3.43,1.5l.19.12v-6l-.19-.11a17.82,17.82,0,0,0-3.44-1.51Z" transform="translate(-202.77 -87.74)"/><path class="cls-33" d="M391.22,143.37v6a12.22,12.22,0,0,1,2,1.47l0-6a12.12,12.12,0,0,0-2-1.47Z" transform="translate(-202.77 -87.74)"/><path class="cls-32" d="M393.2,144.84l0,6a9.35,9.35,0,0,1,1,1l0-6a9.29,9.29,0,0,0-1-1Z" transform="translate(-202.77 -87.74)"/><path class="cls-31" d="M394.17,145.88l0,6a7.71,7.71,0,0,1,.63.94l0-6a6.71,6.71,0,0,0-.63-.94Z" transform="translate(-202.77 -87.74)"/><path class="cls-30" d="M394.8,146.82l0,6a5.53,5.53,0,0,1,.42.89l0-6a5.53,5.53,0,0,0-.42-.89Z" transform="translate(-202.77 -87.74)"/><path class="cls-29" d="M395.22,147.71l0,6a5.81,5.81,0,0,1,.25.88l0-6a4.84,4.84,0,0,0-.25-.88Z" transform="translate(-202.77 -87.74)"/><path class="cls-28" d="M395.47,148.59l0,6a5.51,5.51,0,0,1,.1.9v-6a5.53,5.53,0,0,0-.11-.9Z" transform="translate(-202.77 -87.74)"/><path class="cls-27" d="M395.58,149.49v6a.66.66,0,0,1,0,.14l0-6v-.14Z" transform="translate(-202.77 -87.74)"/></g></g></g><g class="cls-22"><g class="cls-54"><g class="cls-22"><path class="cls-46" d="M385.84,143.35v6a13.31,13.31,0,0,1,2.71,1.19l.15.09,0-6-.15-.09a13.47,13.47,0,0,0-2.7-1.19Z" transform="translate(-202.77 -87.74)"/><path class="cls-45" d="M388.69,144.63l0,6a9.83,9.83,0,0,1,1.57,1.16l0-6a9,9,0,0,0-1.57-1.16Z" transform="translate(-202.77 -87.74)"/><path class="cls-44" d="M390.26,145.79l0,6a6.43,6.43,0,0,1,.76.82v-6a8.34,8.34,0,0,0-.77-.82Z" transform="translate(-202.77 -87.74)"/><path class="cls-43" d="M391,146.61v6a5.66,5.66,0,0,1,.5.74l0-6a5.57,5.57,0,0,0-.49-.74Z" transform="translate(-202.77 -87.74)"/><path class="cls-42" d="M391.52,147.35l0,6a4.94,4.94,0,0,1,.33.7l0-6a5.52,5.52,0,0,0-.33-.7Z" transform="translate(-202.77 -87.74)"/><path class="cls-41" d="M391.85,148.05l0,6a4.48,4.48,0,0,1,.2.69l0-6a4.29,4.29,0,0,0-.2-.7Z" transform="translate(-202.77 -87.74)"/><path class="cls-40" d="M392.05,148.75l0,6a5.94,5.94,0,0,1,.08.71l0-6a4.17,4.17,0,0,0-.08-.71Z" transform="translate(-202.77 -87.74)"/><path class="cls-39" d="M392.13,149.46l0,6v.11l0-6v-.1Z" transform="translate(-202.77 -87.74)"/></g></g></g><g class="cls-22"><g class="cls-55"><g class="cls-22"><path class="cls-24" d="M364.25,149.72l0,6c0-2.34,1.53-4.68,4.62-6.47a18.86,18.86,0,0,1,2.26-1.08l0-6a18.14,18.14,0,0,0-2.26,1.09c-3.08,1.78-4.63,4.12-4.62,6.46Z" transform="translate(-202.77 -87.74)"/></g></g></g><g class="cls-22"><g class="cls-56"><g class="cls-22"><path class="cls-36" d="M367.44,149.63l0,6c0-1.84,1.21-3.68,3.64-5.09a12.69,12.69,0,0,1,1.78-.85v-6a14,14,0,0,0-1.79.85c-2.43,1.41-3.65,3.25-3.64,5.09Z" transform="translate(-202.77 -87.74)"/></g></g></g><g class="cls-22"><g class="cls-57"><g class="cls-22"><path class="cls-33" d="M378.64,149l0,6c.41.08.85.18,1.31.31l.82.18v-6c-.26,0-.54-.11-.83-.18-.46-.13-.9-.23-1.31-.31Z" transform="translate(-202.77 -87.74)"/><path class="cls-32" d="M380.78,149.5v6l.52.08,0-6c-.16,0-.33,0-.51-.08Z" transform="translate(-202.77 -87.74)"/><path class="cls-31" d="M381.29,149.58l0,6,.31,0,0-6-.31,0Z" transform="translate(-202.77 -87.74)"/><path class="cls-30" d="M381.6,149.6l0,6h.23l0-6Z" transform="translate(-202.77 -87.74)"/><path class="cls-29" d="M381.83,149.6l0,6H382l0-6Z" transform="translate(-202.77 -87.74)"/><path class="cls-28" d="M382,149.59l0,6,.17,0,0-6-.17,0Z" transform="translate(-202.77 -87.74)"/><path class="cls-27" d="M382.19,149.57l0,6,.16,0v-6l-.17,0Z" transform="translate(-202.77 -87.74)"/><path class="cls-26" d="M382.36,149.54v6l.18,0,0-6-.17,0Z" transform="translate(-202.77 -87.74)"/><path class="cls-25" d="M382.53,149.5l0,6,.2-.07v-6l-.21.07Z" transform="translate(-202.77 -87.74)"/><path class="cls-24" d="M382.74,149.43v6l.25-.11s0,0,0,0a.82.82,0,0,0,.49-.69l0-6a.82.82,0,0,1-.49.68l0,0-.24.11Z" transform="translate(-202.77 -87.74)"/></g></g></g><g class="cls-22"><g class="cls-58"><g class="cls-22"><path class="cls-24" d="M374.63,150.52v6a1.44,1.44,0,0,1,.85-1.17l.07,0a2.53,2.53,0,0,1,.37-.18l0-6a1.76,1.76,0,0,0-.37.17l-.06,0a1.42,1.42,0,0,0-.85,1.18Z" transform="translate(-202.77 -87.74)"/><path class="cls-25" d="M375.91,149.14l0,6,.3-.1v-6a1.63,1.63,0,0,0-.31.11Z" transform="translate(-202.77 -87.74)"/><path class="cls-26" d="M376.22,149v6l.26-.06,0-6-.25.06Z" transform="translate(-202.77 -87.74)"/><path class="cls-27" d="M376.47,149l0,6,.24,0,0-6-.24,0Z" transform="translate(-202.77 -87.74)"/><path class="cls-28" d="M376.71,148.93l0,6a2,2,0,0,1,.24,0l0-6a2,2,0,0,0-.24,0Z" transform="translate(-202.77 -87.74)"/><path class="cls-29" d="M377,148.9l0,6h.27l0-6Z" transform="translate(-202.77 -87.74)"/><path class="cls-30" d="M377.22,148.89l0,6a1.71,1.71,0,0,1,.32,0l0-6Z" transform="translate(-202.77 -87.74)"/><path class="cls-31" d="M377.54,148.89l0,6,.41,0v-6l-.42,0Z" transform="translate(-202.77 -87.74)"/><path class="cls-32" d="M378,148.92v6l.69.1,0-6-.68-.09Z" transform="translate(-202.77 -87.74)"/><path class="cls-33" d="M378.64,149l0,6c.41.08.85.18,1.31.31l.82.18v-6c-.26,0-.54-.11-.83-.18-.46-.13-.9-.23-1.31-.31Z" transform="translate(-202.77 -87.74)"/></g></g></g><g class="cls-22"><g class="cls-59"><g class="cls-22"><path class="cls-36" d="M376,150.69l0,6a.75.75,0,0,1,.44-.61l0,0,0-6,0,0a.74.74,0,0,0-.45.61Z" transform="translate(-202.77 -87.74)"/></g></g></g><g class="cls-22"><g class="cls-60"><g class="cls-22"><path class="cls-36" d="M376.47,150.06l0,6,.21-.1,0-6-.21.1Z" transform="translate(-202.77 -87.74)"/><path class="cls-37" d="M376.68,150l0,6,.17-.06,0-6-.17.06Z" transform="translate(-202.77 -87.74)"/><path class="cls-38" d="M376.85,149.9l0,6,.14,0,0-6-.14,0Z" transform="translate(-202.77 -87.74)"/><path class="cls-39" d="M377,149.87l0,6,.13,0v-6l-.14,0Z" transform="translate(-202.77 -87.74)"/><path class="cls-40" d="M377.13,149.85v6l.14,0,0-6-.13,0Z" transform="translate(-202.77 -87.74)"/><path class="cls-41" d="M377.26,149.83l0,6h.15v-6Z" transform="translate(-202.77 -87.74)"/><path class="cls-42" d="M377.42,149.82v6h.19v-6Z" transform="translate(-202.77 -87.74)"/><path class="cls-43" d="M377.61,149.83v6h.27v-6Z" transform="translate(-202.77 -87.74)"/><path class="cls-44" d="M377.88,149.84v6c.16,0,.33,0,.52.08l0-6c-.18,0-.35-.06-.51-.08Z" transform="translate(-202.77 -87.74)"/><path class="cls-45" d="M378.39,149.92l0,6q.51.09,1.17.27c.36.09.7.16,1,.22l0-6a8.5,8.5,0,0,1-1-.23c-.45-.11-.84-.2-1.18-.26Z" transform="translate(-202.77 -87.74)"/><path class="cls-44" d="M380.58,150.41l0,6a6,6,0,0,0,.69.1l0-6a6,6,0,0,1-.69-.1Z" transform="translate(-202.77 -87.74)"/><path class="cls-43" d="M381.27,150.51l0,6,.44,0,0-6-.44,0Z" transform="translate(-202.77 -87.74)"/><path class="cls-42" d="M381.71,150.54l0,6h.34l0-6a1.93,1.93,0,0,1-.34,0Z" transform="translate(-202.77 -87.74)"/><path class="cls-41" d="M382.05,150.54l0,6h.29l0-6Z" transform="translate(-202.77 -87.74)"/><path class="cls-40" d="M382.34,150.53l0,6,.27,0,0-6-.27,0Z" transform="translate(-202.77 -87.74)"/><path class="cls-39" d="M382.61,150.5l0,6,.27,0,0-6-.27.05Z" transform="translate(-202.77 -87.74)"/><path class="cls-38" d="M382.88,150.45l0,6,.29-.07,0-6-.29.07Z" transform="translate(-202.77 -87.74)"/><path class="cls-37" d="M383.17,150.38l0,6,.37-.13,0-6-.37.12Z" transform="translate(-202.77 -87.74)"/><path class="cls-36" d="M383.54,150.26l0,6,.45-.21.06,0a1.54,1.54,0,0,0,.89-1.26v-6a1.53,1.53,0,0,1-.9,1.25l-.06,0-.45.21Z" transform="translate(-202.77 -87.74)"/></g></g></g><g class="cls-22"><g class="cls-61"><g class="cls-22"><path class="cls-39" d="M374.63,150.52v0Z" transform="translate(-202.77 -87.74)"/><path class="cls-40" d="M374.63,150.54v6a1.35,1.35,0,0,0,0,.18l0-6a.88.88,0,0,1,0-.17Z" transform="translate(-202.77 -87.74)"/><path class="cls-41" d="M374.65,150.71l0,6a.64.64,0,0,0,.05.17l0-6a1.21,1.21,0,0,1-.05-.18Z" transform="translate(-202.77 -87.74)"/><path class="cls-42" d="M374.7,150.89l0,6a.88.88,0,0,0,.09.2l0-6a.88.88,0,0,1-.09-.2Z" transform="translate(-202.77 -87.74)"/><path class="cls-43" d="M374.79,151.09l0,6a1.43,1.43,0,0,0,.15.22l0-6a1.43,1.43,0,0,1-.15-.22Z" transform="translate(-202.77 -87.74)"/><path class="cls-44" d="M374.94,151.31l0,6a1.69,1.69,0,0,0,.26.28v-6a1.77,1.77,0,0,1-.27-.28Z" transform="translate(-202.77 -87.74)"/><path class="cls-45" d="M375.21,151.59v6l.08.08,0-6-.07-.08Z" transform="translate(-202.77 -87.74)"/></g></g></g><g class="cls-22"><g class="cls-62"><g class="cls-22"><path class="cls-27" d="M376,150.69l0,6v0l0-6v0Z" transform="translate(-202.77 -87.74)"/><path class="cls-28" d="M376,150.71l0,6a.28.28,0,0,0,0,.09l0-6s0-.06,0-.09Z" transform="translate(-202.77 -87.74)"/><path class="cls-29" d="M376,150.8l0,6a.29.29,0,0,0,0,.09v-6l0-.09Z" transform="translate(-202.77 -87.74)"/><path class="cls-30" d="M376,150.89v6l0,.1,0-6a.42.42,0,0,1,0-.1Z" transform="translate(-202.77 -87.74)"/><path class="cls-31" d="M376.07,151l0,6a.44.44,0,0,0,.08.11l0-6a1,1,0,0,1-.08-.11Z" transform="translate(-202.77 -87.74)"/><path class="cls-32" d="M376.15,151.1l0,6,.14.16,0-6a2,2,0,0,1-.14-.16Z" transform="translate(-202.77 -87.74)"/><path class="cls-33" d="M376.29,151.26l0,6a2.42,2.42,0,0,0,.36.26l0,0v-6l0,0a4.28,4.28,0,0,1-.36-.26Z" transform="translate(-202.77 -87.74)"/><path class="cls-34" d="M376.68,151.54v6a5.73,5.73,0,0,0,1.07.48v-6a5.21,5.21,0,0,1-1.07-.48Z" transform="translate(-202.77 -87.74)"/><path class="cls-33" d="M377.75,152v6a7.28,7.28,0,0,0,.9.21l0-6c-.23-.05-.54-.11-.89-.22Z" transform="translate(-202.77 -87.74)"/><path class="cls-32" d="M378.64,152.24l0,6,.06,0v-6Z" transform="translate(-202.77 -87.74)"/></g></g></g><polygon class="cls-25" points="171.16 64.67 171.18 70.68 172.54 69.94 172.52 63.93 171.16 64.67"/><polygon class="cls-49" points="171.94 65.16 171.96 71.17 173.27 70.45 173.25 64.44 171.94 65.16"/><polygon class="cls-63" points="171.16 64.67 171.18 70.68 171.96 71.17 171.94 65.16 171.16 64.67"/><g class="cls-22"><g class="cls-64"><g class="cls-22"><path class="cls-46" d="M376,152.17l0,6a5.66,5.66,0,0,0,1.2.54v-6a5.72,5.72,0,0,1-1.21-.54Z" transform="translate(-202.77 -87.74)"/><path class="cls-45" d="M377.23,152.71v6a6.57,6.57,0,0,0,.83.2v-6a5.84,5.84,0,0,1-.83-.2Z" transform="translate(-202.77 -87.74)"/><path class="cls-44" d="M378.06,152.91v6l.08,0,0-6-.07,0Z" transform="translate(-202.77 -87.74)"/></g></g></g><polygon class="cls-65" points="175.36 65.19 175.38 71.2 175.96 70.52 175.94 64.51 175.36 65.19"/><g class="cls-22"><g class="cls-66"><g class="cls-22"><path class="cls-27" d="M367.44,149.63l0,6v.11l0-6v-.11Z" transform="translate(-202.77 -87.74)"/><path class="cls-28" d="M367.44,149.74l0,6a3.43,3.43,0,0,0,.08.71l0-6a5.71,5.71,0,0,1-.08-.71Z" transform="translate(-202.77 -87.74)"/><path class="cls-29" d="M367.52,150.45l0,6a4.48,4.48,0,0,0,.2.69l0-6a6.77,6.77,0,0,1-.2-.7Z" transform="translate(-202.77 -87.74)"/><path class="cls-30" d="M367.72,151.15l0,6a5.64,5.64,0,0,0,.33.71l0-6a5.52,5.52,0,0,1-.33-.7Z" transform="translate(-202.77 -87.74)"/><path class="cls-31" d="M368.05,151.85l0,6a5.57,5.57,0,0,0,.5.73l0-6a5.57,5.57,0,0,1-.5-.73Z" transform="translate(-202.77 -87.74)"/><path class="cls-32" d="M368.55,152.58l0,6a7.24,7.24,0,0,0,.76.83l0-6a8.28,8.28,0,0,1-.76-.83Z" transform="translate(-202.77 -87.74)"/><path class="cls-33" d="M369.31,153.41l0,6a9.88,9.88,0,0,0,1.56,1.16v-6a9.8,9.8,0,0,1-1.57-1.15Z" transform="translate(-202.77 -87.74)"/><path class="cls-34" d="M370.88,154.56v6l.16.08a13.47,13.47,0,0,0,2.7,1.19l0-6a13.47,13.47,0,0,1-2.7-1.19l-.15-.09Z" transform="translate(-202.77 -87.74)"/><path class="cls-33" d="M373.73,155.84l0,6a17.41,17.41,0,0,0,2.34.59l0-6a17.8,17.8,0,0,1-2.34-.59Z" transform="translate(-202.77 -87.74)"/><path class="cls-32" d="M376.07,156.43l0,6c.52.09,1,.16,1.57.21l0-6c-.52-.06-1.05-.13-1.57-.22Z" transform="translate(-202.77 -87.74)"/><path class="cls-31" d="M377.64,156.65l0,6c.46,0,.92.08,1.37.1l0-6-1.37-.09Z" transform="translate(-202.77 -87.74)"/><path class="cls-30" d="M379,156.74l0,6h1.27l0-6Z" transform="translate(-202.77 -87.74)"/><path class="cls-29" d="M380.28,156.74l0,6c.4,0,.81,0,1.21-.06v-6c-.41,0-.81,0-1.22.06Z" transform="translate(-202.77 -87.74)"/><path class="cls-28" d="M381.5,156.68v6c.4,0,.81-.08,1.2-.14v-6c-.4.06-.8.11-1.2.14Z" transform="translate(-202.77 -87.74)"/><path class="cls-27" d="M382.7,156.54v6c.42-.06.82-.13,1.23-.21l0-6c-.4.08-.81.16-1.22.21Z" transform="translate(-202.77 -87.74)"/><path class="cls-26" d="M383.92,156.33l0,6c.43-.09.86-.2,1.29-.32l0-6c-.42.12-.85.22-1.29.31Z" transform="translate(-202.77 -87.74)"/><path class="cls-25" d="M385.21,156l0,6a14.47,14.47,0,0,0,1.49-.5v-6q-.73.28-1.5.51Z" transform="translate(-202.77 -87.74)"/><path class="cls-24" d="M386.71,155.51v6a13.33,13.33,0,0,0,1.78-.86c2.44-1.4,3.66-3.25,3.65-5.09l0-6c0,1.84-1.21,3.69-3.64,5.09a13.29,13.29,0,0,1-1.78.86Z" transform="translate(-202.77 -87.74)"/></g></g></g><path class="cls-67" d="M388.54,144.54c4.81,2.79,4.79,7.32-.05,10.11s-12.66,2.8-17.46,0-4.78-7.32.05-10.11S383.74,141.75,388.54,144.54ZM376,152.17a6.1,6.1,0,0,0,2.11.76l.58-.68a5.74,5.74,0,0,1-2.06-.73c-1-.59-.73-1.14-.21-1.44l0,0c.7-.38,1.51-.28,3.1.12,1.87.5,3.22.51,4.42-.13l.06,0a1.35,1.35,0,0,0,.22-2.44l1.4-.77-.8-.49-1.35.74a7.15,7.15,0,0,0-2.54-.86l-.59.68a6.43,6.43,0,0,1,2.4.8c.88.54,1,1.2.23,1.62l0,0a4.14,4.14,0,0,1-3,0c-1.83-.5-3.24-.65-4.41,0l-.06,0a1.28,1.28,0,0,0-.2,2.33l-1.35.74.78.48,1.31-.72Z" transform="translate(-202.77 -87.74)"/><g class="cls-22"><g class="cls-68"><g class="cls-22"><path class="cls-39" d="M364.25,149.72l0,6v.13l0-6v-.13Z" transform="translate(-202.77 -87.74)"/><path class="cls-40" d="M364.25,149.85l0,6a5.51,5.51,0,0,0,.1.9l0-6a5.28,5.28,0,0,1-.1-.9Z" transform="translate(-202.77 -87.74)"/><path class="cls-41" d="M364.35,150.75l0,6a4.66,4.66,0,0,0,.26.88l0-6a6.82,6.82,0,0,1-.26-.88Z" transform="translate(-202.77 -87.74)"/><path class="cls-42" d="M364.61,151.63l0,6a7.17,7.17,0,0,0,.41.9v-6a5.15,5.15,0,0,1-.42-.89Z" transform="translate(-202.77 -87.74)"/><path class="cls-43" d="M365,152.52v6a8.47,8.47,0,0,0,.63.93v-6a5.51,5.51,0,0,1-.63-.94Z" transform="translate(-202.77 -87.74)"/><path class="cls-44" d="M365.66,153.46v6a10.4,10.4,0,0,0,1,1.05v-6a7.83,7.83,0,0,1-1-1Z" transform="translate(-202.77 -87.74)"/><path class="cls-45" d="M366.63,154.5v6a13.31,13.31,0,0,0,2,1.46l0-6a11.57,11.57,0,0,1-2-1.47Z" transform="translate(-202.77 -87.74)"/><path class="cls-46" d="M368.61,156l0,6,.19.12a17.44,17.44,0,0,0,3.43,1.5v-6a18.17,18.17,0,0,1-3.44-1.51l-.19-.12Z" transform="translate(-202.77 -87.74)"/><path class="cls-45" d="M372.24,157.6v6a23.89,23.89,0,0,0,3,.75l0-6a21.69,21.69,0,0,1-3-.73Z" transform="translate(-202.77 -87.74)"/><path class="cls-44" d="M375.2,158.33l0,6c.66.11,1.33.21,2,.27l0-6c-.67-.06-1.34-.16-2-.28Z" transform="translate(-202.77 -87.74)"/><path class="cls-43" d="M377.2,158.61l0,6c.57.06,1.16.1,1.74.12l0-6q-.87,0-1.74-.12Z" transform="translate(-202.77 -87.74)"/><path class="cls-42" d="M378.94,158.73l0,6c.53,0,1.07,0,1.6,0v-6c-.54,0-1.07,0-1.61,0Z" transform="translate(-202.77 -87.74)"/><path class="cls-41" d="M380.55,158.74v6c.52,0,1,0,1.55-.09l0-6c-.51,0-1,.07-1.54.09Z" transform="translate(-202.77 -87.74)"/><path class="cls-40" d="M382.09,158.65l0,6c.51,0,1-.1,1.52-.17l0-6c-.5.08-1,.13-1.52.17Z" transform="translate(-202.77 -87.74)"/><path class="cls-39" d="M383.61,158.48l0,6c.52-.07,1-.16,1.55-.27l0-6c-.51.1-1,.19-1.55.26Z" transform="translate(-202.77 -87.74)"/><path class="cls-38" d="M385.16,158.22l0,6c.56-.11,1.1-.25,1.64-.4l0-6c-.53.16-1.08.29-1.64.41Z" transform="translate(-202.77 -87.74)"/><path class="cls-37" d="M386.8,157.81l0,6c.65-.18,1.28-.4,1.9-.64l0-6a19.25,19.25,0,0,1-1.9.64Z" transform="translate(-202.77 -87.74)"/><path class="cls-36" d="M388.7,157.17l0,6A16.11,16.11,0,0,0,391,162.1c3.09-1.78,4.63-4.12,4.63-6.46l0-6c0,2.34-1.54,4.68-4.62,6.46a16.79,16.79,0,0,1-2.26,1.08Z" transform="translate(-202.77 -87.74)"/></g></g></g><path class="cls-69" d="M391,143.26c6.09,3.54,6.06,9.28-.07,12.83s-16.06,3.54-22.16,0-6.06-9.29.07-12.83S384.93,139.71,391,143.26Zm-2.54,11.39c4.84-2.79,4.86-7.32.05-10.11s-12.62-2.79-17.46,0-4.86,7.32-.05,10.11,12.62,2.8,17.46,0Z" transform="translate(-202.77 -87.74)"/><path class="cls-70" d="M391.55,142.81c6.45,3.74,6.42,9.83-.07,13.58s-17,3.75-23.46,0-6.42-9.83.08-13.58S385.09,139.05,391.55,142.81ZM391,156.09c6.13-3.55,6.16-9.29.07-12.83s-16-3.55-22.16,0-6.16,9.28-.07,12.83,16,3.54,22.16,0Z" transform="translate(-202.77 -87.74)"/><path class="cls-70" d="M375.48,149.34a1.28,1.28,0,0,0-.2,2.33l-1.36.74.79.48,1.31-.72a6.1,6.1,0,0,0,2.11.76l.58-.68a5.74,5.74,0,0,1-2.06-.73c-1-.59-.73-1.14-.21-1.44l0,0c.7-.38,1.51-.28,3.1.12,1.87.5,3.22.51,4.42-.13l.06,0a1.35,1.35,0,0,0,.22-2.44l1.4-.77-.8-.49-1.35.74a7.15,7.15,0,0,0-2.54-.86l-.59.68a6.43,6.43,0,0,1,2.4.8c.88.54,1,1.2.23,1.62l0,0a4.14,4.14,0,0,1-3,0c-1.83-.5-3.24-.65-4.41,0Z" transform="translate(-202.77 -87.74)"/><path class="cls-67" d="M363.24,150.14c0,.17,0,.34.06.51s.07.29.11.44a4.34,4.34,0,0,0,.14.48,6.66,6.66,0,0,0,.31.73,1.34,1.34,0,0,0,.06.12,7,7,0,0,0,.47.78l.07.1c.17.23.35.46.55.69l.11.13a9.06,9.06,0,0,0,.7.68l.51.42.46.37c.19.14.4.27.61.4s.4.27.62.4.74.4,1.12.59l.3.14c.35.16.71.32,1.07.46l.14,0c.38.15.79.28,1.19.41l.84.24c.22.06.44.13.67.18s.61.14.92.2l.65.13.29.05,1.16.16.32,0c.22,0,.46,0,.68.06l1.11.07.72,0h.91l.76,0,.85,0,.75-.06.84-.1.74-.1.87-.16.7-.14c.34-.07.68-.16,1-.25s.45-.11.67-.18l.34-.1c.34-.11.68-.22,1-.35l.29-.1.86-.37.45-.19c.42-.2.83-.41,1.22-.64,3.27-1.89,4.9-4.36,4.89-6.84l0,6c0,2.47-1.63,5-4.9,6.84-.39.23-.8.44-1.22.64l-.39.17-.78.34-.13,0-.29.1-1,.35-.35.1-.23.08-.44.1c-.33.09-.67.18-1,.25l-.28.07-.42.07-.88.16-.35.06-.39,0-.81.09-.41.05-.38,0-.83,0-.43,0h-.33c-.31,0-.61,0-.91,0h-.45l-.27,0c-.37,0-.74,0-1.11-.08-.15,0-.31,0-.46,0h-.15c-.63-.07-1.25-.16-1.87-.27h-.1l-.57-.12-.87-.19c-.23-.05-.46-.12-.68-.18s-.56-.15-.83-.24l-.19-.05c-.34-.11-.68-.23-1-.36l-.12,0c-.37-.14-.73-.3-1.08-.46l-.3-.14c-.39-.19-.76-.38-1.12-.59l-.21-.12-.42-.28-.6-.4-.46-.37-.51-.42-.11-.09a8.21,8.21,0,0,1-.59-.59L365,160a3.68,3.68,0,0,1-.32-.37l-.22-.3-.09-.12q-.19-.28-.36-.57l-.1-.19-.06-.13a6.64,6.64,0,0,1-.28-.62.45.45,0,0,1,0-.11,4.5,4.5,0,0,1-.14-.49,2.56,2.56,0,0,1-.1-.34.28.28,0,0,1,0-.09c0-.17,0-.34-.06-.51s0-.24,0-.35v-.15l0-6C363.2,149.81,363.23,150,363.24,150.14Z" transform="translate(-202.77 -87.74)"/><path class="cls-71" d="M394.83,148.58s-2.55,1.51-3.18,2.59-1.19,2.12-.89,2.31c.73.46,1.37-.55,1.81-1.28s1.75-.93,2.51-1,3.61-1.38,3.19-3.08l-1-.81Z" transform="translate(-202.77 -87.74)"/><path class="cls-7" d="M394.82,147.45s4.52-.61,5.21,3.89A4.3,4.3,0,0,1,394.82,147.45Z" transform="translate(-202.77 -87.74)"/><path class="cls-71" d="M399.75,149a30.54,30.54,0,0,0-1.81,4.48c-.11.95-2.1,2.63-3.26,3s-4.36,1-3.79-.72,1.64-2.63,1.84-3.73a6.36,6.36,0,0,1,1.65-3.19l2.81-1.91Z" transform="translate(-202.77 -87.74)"/><path class="cls-17" d="M397.94,153.46c-.11.95-2.1,2.63-3.26,3s-3.76.85-3.84-.3c.55-.12,1.38-.32,2.63-.68,3-.85,4.86-5.49,5.45-7.16l.83.67A30.54,30.54,0,0,0,397.94,153.46Z" transform="translate(-202.77 -87.74)"/><path class="cls-9" d="M411.63,112.38s-3.3-.54-5.64,10.31-2.33,11.55-2.33,11.55l-8.84,13.21a4.75,4.75,0,0,1,5.21,3.89s7.34-7.62,8.17-10.37S421.8,113.76,411.63,112.38Z" transform="translate(-202.77 -87.74)"/><path class="cls-20" d="M394.82,147.45l8.84-13.21s0-.69,2.33-11.55,5.64-10.31,5.64-10.31a5.07,5.07,0,0,1,.93.22c-.89,4.24-3.77,4.79-7.38,22.7-1.07,5.29-6.56,9.87-8.17,12.41A5.26,5.26,0,0,0,394.82,147.45Z" transform="translate(-202.77 -87.74)"/><path class="cls-10" d="M400,151.34a5.43,5.43,0,0,0-.82-1.94l6.94-8c.83-.94,4.65-8.08,7-12.45-2,5.65-4.56,10.84-4.91,12C407.37,143.72,400,151.34,400,151.34Z" transform="translate(-202.77 -87.74)"/><path class="cls-8" d="M284.66,170a4.56,4.56,0,0,0,1.81,3.3c4.9,3.72,11,8.27,16.11,11.84,1.74,1.24,3.35,2.35,4.74,3.28,2.61,1.76,4.41,2.84,4.79,2.78,2-.3,3.79-3.68,5.14-5.17,3.85-4.24,8.67-7.46,13.43-10.65,1.09-.74,2.19-1.47,3.33-2.14a4.64,4.64,0,0,0,2.28-4h0a4.58,4.58,0,0,0-3.44-4.43,16.8,16.8,0,0,1-4.89-2.38c-1.89-1.22-16.66-12.78-20.4-13.37a14.27,14.27,0,0,0-5.59.34,16.52,16.52,0,0,0-4.66,2.13c-5.41,3.33-10.88,8.77-12.39,15.14A10.61,10.61,0,0,0,284.66,170Z" transform="translate(-202.77 -87.74)"/><path class="cls-72" d="M307,193.6c.21.6.44,1.19.68,1.78.6,1.47,1.27,2.93,1.94,4.33A42.45,42.45,0,0,0,313,206l.39.55c.3.41.63.81,1,1.2a22.3,22.3,0,0,0,6.34,5.09c2.67,1.41,24.09,15.46,28.14,17.23,4.91,2.13,8.72-2.07,8.46-2.74h0c.91.77,1.76,1.46,2.56,2.09a57,57,0,0,0,10.84,7c5.59,2.84,10.4-.19,9.16-2.17l0,0h0a8.61,8.61,0,0,0,1.9,1.46c2.53,1.47,6.35,2.35,9.33.34,2.41-1.63-1.67-7.82-3.75-9.84.73.2,2,.4,2.69.66a14.66,14.66,0,0,0,2.8.81c1.72.26,3.71-.16,4.64-1.62,1.49-2.35-.59-5.27-2.54-7.26-.36-.36-3-2.21-6.76-4.91l-.57-.41c-3.64-2.62-8.19-6-12.7-9.51l-1.26-1A118.45,118.45,0,0,1,361,191.61l-.19-.22a34.15,34.15,0,0,1-2.22-2.7,16.58,16.58,0,0,1-1.1-1.69,6.6,6.6,0,0,1-1-3.1c0-.13.21-.16.57-.12a20.6,20.6,0,0,1,2.92.69c5.5,1.6,15.9,5.42,19.07,6.35s7.08,1.92,10,.07c1.91-1.22,3.5-3.57,2.62-5.65a5.56,5.56,0,0,0-1.57-1.91,33,33,0,0,0-9.58-5.52l-.26-.1c-4.2-1.64-8.66-2.84-12.9-4.4-5.21-1.91-10.19-4.4-15.35-6.44a41.46,41.46,0,0,0-7.11-2.2,26,26,0,0,0-12.05.59,58.47,58.47,0,0,0-11.44,3.53c-6.36,3-13.39,6.77-15.36,13.54C304.94,186.05,305.64,189.89,307,193.6Z" transform="translate(-202.77 -87.74)"/><path class="cls-8" d="M357,183.13c0,.23,0,.44,0,.65a20.6,20.6,0,0,1,2.92.69c-.46-.94-.81-1.8-1-2.36a20.26,20.26,0,0,1-1.17-7.9A53.16,53.16,0,0,0,357,183.13Z" transform="translate(-202.77 -87.74)"/><path class="cls-8" d="M330.56,175.7c.58,5.85,3.32,11.09,8.56,14.07,2.34,1.32,5.14,1.62,7.75,2.18,3.78.8,10.22,1.7,13.65-.21l.5-.13-.19-.22c-7.89,1-22.2.55-26.89-9.41-2.15-4.56-.11-11-.75-15.5C330.7,168.78,330.25,172.45,330.56,175.7Z" transform="translate(-202.77 -87.74)"/><path class="cls-8" d="M341.74,178.63c1.47,9.77,15.26,10.29,16.13,10.11a4.6,4.6,0,0,1,.74-.05,16.58,16.58,0,0,1-1.1-1.69C345.33,187.24,342,179.6,341.74,178.63Z" transform="translate(-202.77 -87.74)"/><path class="cls-8" d="M341.72,178.54a.51.51,0,0,0,0,.09S341.73,178.57,341.72,178.54Z" transform="translate(-202.77 -87.74)"/><path class="cls-8" d="M350.49,196.18c-6.23,0-12.18,0-18.14-2C325.57,192,318.89,188,311.57,188c6.28.06,12.75,4.55,18.45,6.71a54.09,54.09,0,0,0,12.07,2.77c3.94.56,8.67-.72,12.43.43Z" transform="translate(-202.77 -87.74)"/><path class="cls-8" d="M339.74,200c-3.35.24-7.32-2.58-10.63-3.32-4.2-.93-8.68-1.05-12.8-2.06,1.62,0,3.53.94,5,1.52a39.76,39.76,0,0,0,7.84,2C332.77,198.78,337.39,198.77,339.74,200Z" transform="translate(-202.77 -87.74)"/><path class="cls-8" d="M334,205c2.72.88,7.64,5.62,9.2,6.78s14.78,9,14.07,15.63c-.16,1.41-.79,2.2-4.69,3.25,0,0,4.16-2.77,3.25-4.89s-4.36-7.31-6.39-7.38-7.6,2.1-7.6,2.1c4.48-2.76,5.14-3.47,5.14-4.08,0-1.27-11.35-10.3-14-10.12s-4,1.37-7.3,3.81S328.83,203.28,334,205Z" transform="translate(-202.77 -87.74)"/><path class="cls-8" d="M379.9,234.3s-.55-5.11-14.09-16.6c0,0-13.14-12.89-20.06-15,0,0-6,.35-7.51,2,0,0,5.74-1.2,7.51-.47s12,7.64,10.76,8-4.41,1.34-4.75,2.84c0,0,5.92-2.81,6.85-1.56s10.11,7.76,9.15,8.52-6.12,3-6,4.12c0,0,5.26-3.76,7.91-2.38C369.7,223.81,378.77,230,379.9,234.3Z" transform="translate(-202.77 -87.74)"/><path class="cls-8" d="M391.9,233.74s-.66-5.49-14.91-17.8c0,0-14-13.6-21.33-15.78,0,0-3.8-.07-5.45,1.69,0,0,3.67-1.52,5.56-.76s13.27,8.36,12,8.72-5.32,1.82-5.7,3.4c0,0,6.31-3,7.3-1.64s10.18,7.59,9.16,8.39-3.47,2.24-3.3,3.47c0,0,3.11-2.49,5.92-1C381.12,222.4,390.23,228.81,391.9,233.74Z" transform="translate(-202.77 -87.74)"/><path class="cls-8" d="M398,224.29s1.89-3.95-15.17-14.44c0,0-12-11.69-18.34-13.57,0,0-3.26-.06-4.68,1.46,0,0,3.16-1.31,4.78-.66s11.41,7.19,10.29,7.5-4.58,1.56-4.9,2.92c0,0,5.42-2.55,6.27-1.41s8.76,6.52,7.88,7.2-3,1.93-2.84,3c0,0,4.63-2.61,7-1.36C388.35,214.93,395.87,219.81,398,224.29Z" transform="translate(-202.77 -87.74)"/><g class="cls-22"><g class="cls-73"><g class="cls-22"><path class="cls-24" d="M380.54,192.41l0,9.33c0-3.63-2.39-7.26-7.18-10a29.18,29.18,0,0,0-3.51-1.69l0-9.32a25.69,25.69,0,0,1,3.5,1.68c4.8,2.77,7.2,6.4,7.18,10Z" transform="translate(-202.77 -87.74)"/><path class="cls-25" d="M369.86,180.7l0,9.32c-.95-.37-1.94-.7-2.95-1l0-9.33a31,31,0,0,1,2.95,1Z" transform="translate(-202.77 -87.74)"/><path class="cls-26" d="M366.91,179.7l0,9.33c-.83-.23-1.68-.44-2.54-.62l0-9.33c.86.18,1.71.38,2.54.62Z" transform="translate(-202.77 -87.74)"/><path class="cls-27" d="M364.37,179.08l0,9.33c-.8-.17-1.6-.31-2.41-.42l0-9.33c.81.12,1.62.26,2.41.42Z" transform="translate(-202.77 -87.74)"/><path class="cls-28" d="M362,178.66l0,9.33c-.78-.11-1.57-.2-2.36-.26l0-9.34q1.2.11,2.37.27Z" transform="translate(-202.77 -87.74)"/><path class="cls-29" d="M359.59,178.39l0,9.34c-.8-.07-1.6-.12-2.4-.13l0-9.33c.8,0,1.6.06,2.39.12Z" transform="translate(-202.77 -87.74)"/><path class="cls-30" d="M357.2,178.27l0,9.33c-.83,0-1.66,0-2.49,0l0-9.33c.83,0,1.67,0,2.5,0Z" transform="translate(-202.77 -87.74)"/><path class="cls-31" d="M354.7,178.28l0,9.33q-1.35,0-2.7.18l0-9.33c.89-.09,1.79-.15,2.69-.18Z" transform="translate(-202.77 -87.74)"/><path class="cls-32" d="M352,178.46l0,9.33c-1,.1-2.08.25-3.1.43l0-9.33c1-.19,2.06-.33,3.1-.43Z" transform="translate(-202.77 -87.74)"/><path class="cls-33" d="M348.91,178.89l0,9.33a35.54,35.54,0,0,0-4.6,1.14l0-9.32a35.15,35.15,0,0,1,4.6-1.15Z" transform="translate(-202.77 -87.74)"/><path class="cls-34" d="M344.31,180l0,9.32a27.67,27.67,0,0,0-5.33,2.35l-.3.18,0-9.33c.1-.07.2-.12.3-.18a27.13,27.13,0,0,1,5.34-2.34Z" transform="translate(-202.77 -87.74)"/></g></g></g><g class="cls-22"><g class="cls-74"><g class="cls-22"><path class="cls-36" d="M375.59,192.28l0,9.33c0-2.86-1.87-5.72-5.66-7.9a20.1,20.1,0,0,0-2.76-1.33l0-9.33a22,22,0,0,1,2.76,1.33c3.78,2.18,5.67,5,5.66,7.9Z" transform="translate(-202.77 -87.74)"/><path class="cls-37" d="M367.17,183.05l0,9.33a22,22,0,0,0-2.33-.78l0-9.34a24.52,24.52,0,0,1,2.33.79Z" transform="translate(-202.77 -87.74)"/><path class="cls-38" d="M364.84,182.26l0,9.34c-.65-.2-1.32-.36-2-.5l0-9.33c.68.14,1.34.31,2,.49Z" transform="translate(-202.77 -87.74)"/><path class="cls-39" d="M362.84,181.77l0,9.33c-.63-.13-1.26-.24-1.9-.33l0-9.33c.64.09,1.27.2,1.9.33Z" transform="translate(-202.77 -87.74)"/><path class="cls-40" d="M360.94,181.44l0,9.33c-.62-.08-1.24-.16-1.86-.21l0-9.32c.63,0,1.25.11,1.87.2Z" transform="translate(-202.77 -87.74)"/><path class="cls-41" d="M359.07,181.24l0,9.32c-.63-.05-1.26-.08-1.89-.1l0-9.33c.63,0,1.26.05,1.88.11Z" transform="translate(-202.77 -87.74)"/><path class="cls-42" d="M357.19,181.13l0,9.33c-.65,0-1.31,0-2,0l0-9.33c.65,0,1.3,0,2,0Z" transform="translate(-202.77 -87.74)"/><path class="cls-43" d="M355.23,181.14l0,9.33c-.71,0-1.42.07-2.13.14l0-9.33c.7-.06,1.41-.11,2.13-.14Z" transform="translate(-202.77 -87.74)"/><path class="cls-44" d="M353.1,181.28l0,9.33c-.82.08-1.64.2-2.44.34l0-9.32c.8-.15,1.61-.27,2.44-.35Z" transform="translate(-202.77 -87.74)"/><path class="cls-45" d="M350.66,181.63l0,9.32a29.62,29.62,0,0,0-3.63.9l0-9.32a26,26,0,0,1,3.63-.9Z" transform="translate(-202.77 -87.74)"/><path class="cls-46" d="M347,182.53l0,9.32a22.19,22.19,0,0,0-4.2,1.86l-.24.13,0-9.33.23-.13a20.81,20.81,0,0,1,4.21-1.85Z" transform="translate(-202.77 -87.74)"/></g></g></g><polygon class="cls-47" points="145.76 99.39 145.74 108.71 144.49 109.48 144.52 100.15 145.76 99.39"/><polygon class="cls-25" points="147.86 100.54 147.84 109.87 145.74 108.71 145.76 99.39 147.86 100.54"/><g class="cls-22"><g class="cls-75"><g class="cls-22"><path class="cls-32" d="M354.57,186.94l0,9.33-.5.07,0-9.33.51-.07Z" transform="translate(-202.77 -87.74)"/><path class="cls-33" d="M354.06,187l0,9.33a10.27,10.27,0,0,0-1.32.34l0-9.33a10.14,10.14,0,0,1,1.31-.34Z" transform="translate(-202.77 -87.74)"/><path class="cls-34" d="M352.75,187.35l0,9.33a10.64,10.64,0,0,0-2.12.93l0-9.34a11,11,0,0,1,2.12-.92Z" transform="translate(-202.77 -87.74)"/></g></g></g><polygon class="cls-49" points="146.69 101.34 146.66 110.66 144.49 109.48 144.52 100.15 146.69 101.34"/><g class="cls-22"><g class="cls-76"><g class="cls-22"><path class="cls-44" d="M355.48,188l0,9.33-.48.08,0-9.33.48-.08Z" transform="translate(-202.77 -87.74)"/><path class="cls-45" d="M355,188.07l0,9.33a9.36,9.36,0,0,0-1.41.35l0-9.33a10.88,10.88,0,0,1,1.42-.35Z" transform="translate(-202.77 -87.74)"/><path class="cls-46" d="M353.58,188.42l0,9.33a8.47,8.47,0,0,0-1.79.79l0-9.33a8.17,8.17,0,0,1,1.78-.79Z" transform="translate(-202.77 -87.74)"/><path class="cls-45" d="M351.8,189.21l0,9.33,0,0a4.53,4.53,0,0,0-.56.42l0-9.32a3.29,3.29,0,0,1,.56-.43l.05,0Z" transform="translate(-202.77 -87.74)"/><path class="cls-44" d="M351.19,189.66l0,9.32a3,3,0,0,0-.25.27l0-9.32a1.27,1.27,0,0,1,.25-.27Z" transform="translate(-202.77 -87.74)"/><path class="cls-43" d="M350.94,189.93l0,9.32a1.43,1.43,0,0,0-.15.22l0-9.33a1.37,1.37,0,0,1,.15-.21Z" transform="translate(-202.77 -87.74)"/><path class="cls-42" d="M350.79,190.14l0,9.33-.09.19,0-9.33a1.63,1.63,0,0,1,.09-.19Z" transform="translate(-202.77 -87.74)"/><path class="cls-41" d="M350.7,190.33l0,9.33c0,.05,0,.11,0,.17l0-9.34c0-.05,0-.11.05-.16Z" transform="translate(-202.77 -87.74)"/><path class="cls-40" d="M350.65,190.49l0,9.34a.88.88,0,0,0,0,.16l0-9.33a1,1,0,0,1,0-.17Z" transform="translate(-202.77 -87.74)"/><path class="cls-39" d="M350.64,190.66l0,9.33v0l0-9.33v0Z" transform="translate(-202.77 -87.74)"/></g></g></g><g class="cls-22"><g class="cls-77"><g class="cls-22"><path class="cls-33" d="M349.46,189.07l0,9.33-.13.11,0-9.33a1.5,1.5,0,0,1,.13-.11Z" transform="translate(-202.77 -87.74)"/><path class="cls-32" d="M349.33,189.18l0,9.33a4.18,4.18,0,0,0-.41.45l0-9.33a4.32,4.32,0,0,1,.42-.45Z" transform="translate(-202.77 -87.74)"/><path class="cls-31" d="M348.91,189.63l0,9.33a2.43,2.43,0,0,0-.24.35l0-9.33a1.92,1.92,0,0,1,.23-.35Z" transform="translate(-202.77 -87.74)"/><path class="cls-30" d="M348.68,190l0,9.33a2.89,2.89,0,0,0-.15.31l0-9.33a1.75,1.75,0,0,1,.15-.31Z" transform="translate(-202.77 -87.74)"/><path class="cls-29" d="M348.53,190.29l0,9.33a1.67,1.67,0,0,0-.08.3l0-9.33a1.71,1.71,0,0,1,.09-.3Z" transform="translate(-202.77 -87.74)"/><path class="cls-28" d="M348.44,190.59l0,9.33c0,.1,0,.19,0,.28l0-9.33a1.41,1.41,0,0,1,0-.28Z" transform="translate(-202.77 -87.74)"/><path class="cls-27" d="M348.41,190.87l0,9.33v.05l0-9.33v0Z" transform="translate(-202.77 -87.74)"/></g></g></g><g class="cls-22"><g class="cls-78"><g class="cls-22"><path class="cls-24" d="M351.84,192l0,9.34-.38-.18-.06,0a1.27,1.27,0,0,1-.77-1.06l0-9.33a1.28,1.28,0,0,0,.76,1.07.11.11,0,0,1,.07,0l.37.17Z" transform="translate(-202.77 -87.74)"/></g></g></g><g class="cls-22"><g class="cls-79"><g class="cls-22"><path class="cls-34" d="M344.31,180l0,9.32a27.67,27.67,0,0,0-5.33,2.35l-.3.18,0-9.33c.1-.07.2-.12.3-.18a27.13,27.13,0,0,1,5.34-2.34Z" transform="translate(-202.77 -87.74)"/><path class="cls-33" d="M338.67,182.56l0,9.33a19.05,19.05,0,0,0-3.08,2.27l0-9.32a18.41,18.41,0,0,1,3.07-2.28Z" transform="translate(-202.77 -87.74)"/><path class="cls-32" d="M335.6,184.84l0,9.32a14.23,14.23,0,0,0-1.51,1.63l0-9.33a12,12,0,0,1,1.51-1.62Z" transform="translate(-202.77 -87.74)"/><path class="cls-31" d="M334.09,186.46l0,9.33a11.55,11.55,0,0,0-1,1.45l0-9.33a10.57,10.57,0,0,1,1-1.45Z" transform="translate(-202.77 -87.74)"/><path class="cls-30" d="M333.11,187.91l0,9.33a11.61,11.61,0,0,0-.65,1.39l0-9.33a9.17,9.17,0,0,1,.65-1.39Z" transform="translate(-202.77 -87.74)"/><path class="cls-29" d="M332.46,189.3l0,9.33A8.5,8.5,0,0,0,332,200l0-9.34a8.69,8.69,0,0,1,.39-1.36Z" transform="translate(-202.77 -87.74)"/><path class="cls-28" d="M332.07,190.66l0,9.34a8.23,8.23,0,0,0-.16,1.39l0-9.32a7.52,7.52,0,0,1,.16-1.41Z" transform="translate(-202.77 -87.74)"/><path class="cls-27" d="M331.91,192.07l0,9.32v.22l0-9.34a1.41,1.41,0,0,1,0-.2Z" transform="translate(-202.77 -87.74)"/></g></g></g><g class="cls-22"><g class="cls-80"><g class="cls-22"><path class="cls-46" d="M347,182.53l0,9.32a22.19,22.19,0,0,0-4.2,1.86l-.24.13,0-9.33.23-.13a20.81,20.81,0,0,1,4.21-1.85Z" transform="translate(-202.77 -87.74)"/><path class="cls-45" d="M342.59,184.51l0,9.33a16,16,0,0,0-2.43,1.8l0-9.33a15.33,15.33,0,0,1,2.43-1.8Z" transform="translate(-202.77 -87.74)"/><path class="cls-44" d="M340.16,186.31l0,9.33a12.81,12.81,0,0,0-1.19,1.28l0-9.33a11.73,11.73,0,0,1,1.19-1.28Z" transform="translate(-202.77 -87.74)"/><path class="cls-43" d="M339,187.59l0,9.33a10.88,10.88,0,0,0-.77,1.14l0-9.33a10.88,10.88,0,0,1,.77-1.14Z" transform="translate(-202.77 -87.74)"/><path class="cls-42" d="M338.2,188.73l0,9.33a8.25,8.25,0,0,0-.51,1.09l0-9.33a8.89,8.89,0,0,1,.51-1.09Z" transform="translate(-202.77 -87.74)"/><path class="cls-41" d="M337.69,189.82l0,9.33a7.25,7.25,0,0,0-.3,1.08l0-9.33a8.76,8.76,0,0,1,.31-1.08Z" transform="translate(-202.77 -87.74)"/><path class="cls-40" d="M337.38,190.9l0,9.33a6,6,0,0,0-.13,1.1l0-9.33a7,7,0,0,1,.12-1.1Z" transform="translate(-202.77 -87.74)"/><path class="cls-39" d="M337.26,192l0,9.33v.17l0-9.33a1,1,0,0,1,0-.17Z" transform="translate(-202.77 -87.74)"/></g></g></g><g class="cls-22"><g class="cls-81"><g class="cls-22"><path class="cls-24" d="M380.54,192.41l0,9.33c0-3.63-2.39-7.26-7.18-10a29.18,29.18,0,0,0-3.51-1.69l0-9.32a25.69,25.69,0,0,1,3.5,1.68c4.8,2.77,7.2,6.4,7.18,10Z" transform="translate(-202.77 -87.74)"/></g></g></g><g class="cls-22"><g class="cls-82"><g class="cls-22"><path class="cls-36" d="M375.59,192.28l0,9.33c0-2.86-1.87-5.72-5.66-7.9a20.1,20.1,0,0,0-2.76-1.33l0-9.33a22,22,0,0,1,2.76,1.33c3.78,2.18,5.67,5,5.66,7.9Z" transform="translate(-202.77 -87.74)"/></g></g></g><g class="cls-22"><g class="cls-83"><g class="cls-22"><path class="cls-33" d="M358.2,191.32l0,9.33a20,20,0,0,0-2,.47c-.46.12-.89.21-1.29.29l0-9.33c.4-.07.83-.17,1.29-.29.71-.19,1.39-.35,2-.47Z" transform="translate(-202.77 -87.74)"/><path class="cls-32" d="M354.88,192.08l0,9.33c-.28.05-.54.08-.8.11l0-9.33a8.05,8.05,0,0,0,.8-.11Z" transform="translate(-202.77 -87.74)"/><path class="cls-31" d="M354.08,192.19l0,9.33-.48,0,0-9.33.47,0Z" transform="translate(-202.77 -87.74)"/><path class="cls-30" d="M353.61,192.22l0,9.33h-.36l0-9.33Z" transform="translate(-202.77 -87.74)"/><path class="cls-29" d="M353.25,192.23l0,9.33-.29,0,0-9.33.3,0Z" transform="translate(-202.77 -87.74)"/><path class="cls-28" d="M353,192.21l0,9.33-.27,0,0-9.33a1.15,1.15,0,0,0,.26,0Z" transform="translate(-202.77 -87.74)"/><path class="cls-27" d="M352.69,192.18l0,9.33-.25,0,0-9.33.26,0Z" transform="translate(-202.77 -87.74)"/><path class="cls-26" d="M352.43,192.14l0,9.33-.28-.07,0-9.33.27.07Z" transform="translate(-202.77 -87.74)"/><path class="cls-25" d="M352.16,192.07l0,9.33-.31-.1,0-9.34.32.11Z" transform="translate(-202.77 -87.74)"/><path class="cls-24" d="M351.84,192l0,9.34-.38-.18-.06,0a1.27,1.27,0,0,1-.77-1.06l0-9.33a1.28,1.28,0,0,0,.76,1.07.11.11,0,0,1,.07,0l.37.17Z" transform="translate(-202.77 -87.74)"/></g></g></g><g class="cls-22"><g class="cls-84"><g class="cls-22"><path class="cls-24" d="M364.43,193.65l0,9.33a2.18,2.18,0,0,0-1.31-1.82l-.1,0a4.35,4.35,0,0,0-.58-.27l0-9.33a4.35,4.35,0,0,1,.58.27l.09.05a2.21,2.21,0,0,1,1.32,1.82Z" transform="translate(-202.77 -87.74)"/><path class="cls-25" d="M362.44,191.51l0,9.33a3.71,3.71,0,0,0-.47-.16l0-9.33a3.86,3.86,0,0,1,.48.16Z" transform="translate(-202.77 -87.74)"/><path class="cls-26" d="M362,191.35l0,9.33-.4-.1,0-9.33.39.1Z" transform="translate(-202.77 -87.74)"/><path class="cls-27" d="M361.57,191.25l0,9.33-.37-.07,0-9.32.37.06Z" transform="translate(-202.77 -87.74)"/><path class="cls-28" d="M361.2,191.19l0,9.32-.38,0,0-9.33.38.05Z" transform="translate(-202.77 -87.74)"/><path class="cls-29" d="M360.82,191.14l0,9.33-.41,0,0-9.33.42,0Z" transform="translate(-202.77 -87.74)"/><path class="cls-30" d="M360.4,191.12l0,9.33a2.68,2.68,0,0,0-.49,0l0-9.34Z" transform="translate(-202.77 -87.74)"/><path class="cls-31" d="M359.91,191.12l0,9.34c-.22,0-.43,0-.65,0l0-9.33.64,0Z" transform="translate(-202.77 -87.74)"/><path class="cls-32" d="M359.27,191.17l0,9.33c-.35,0-.7.09-1.07.15l0-9.33a10.19,10.19,0,0,1,1.07-.15Z" transform="translate(-202.77 -87.74)"/><path class="cls-33" d="M358.2,191.32l0,9.33a20,20,0,0,0-2,.47c-.46.12-.89.21-1.29.29l0-9.33c.4-.07.83-.17,1.29-.29.71-.19,1.39-.35,2-.47Z" transform="translate(-202.77 -87.74)"/></g></g></g><g class="cls-22"><g class="cls-85"><g class="cls-22"><path class="cls-36" d="M362.31,193.93l0,9.33a1.2,1.2,0,0,0-.69-1l-.05,0,0-9.33s0,0,.05,0a1.14,1.14,0,0,1,.69,1Z" transform="translate(-202.77 -87.74)"/></g></g></g><g class="cls-22"><g class="cls-86"><g class="cls-22"><path class="cls-36" d="M361.57,193l0,9.33-.33-.16,0-9.33a2.53,2.53,0,0,1,.33.16Z" transform="translate(-202.77 -87.74)"/><path class="cls-37" d="M361.24,192.79l0,9.33L361,202l0-9.33.26.09Z" transform="translate(-202.77 -87.74)"/><path class="cls-38" d="M361,192.7l0,9.33-.21-.05,0-9.33.22,0Z" transform="translate(-202.77 -87.74)"/><path class="cls-39" d="M360.76,192.65l0,9.33-.21,0,0-9.33.21,0Z" transform="translate(-202.77 -87.74)"/><path class="cls-40" d="M360.55,192.61l0,9.33-.21,0,0-9.33.21,0Z" transform="translate(-202.77 -87.74)"/><path class="cls-41" d="M360.34,192.59l0,9.33-.24,0,0-9.32Z" transform="translate(-202.77 -87.74)"/><path class="cls-42" d="M360.1,192.58l0,9.32h-.3l0-9.33Z" transform="translate(-202.77 -87.74)"/><path class="cls-43" d="M359.8,192.58l0,9.33-.42,0,0-9.32.42,0Z" transform="translate(-202.77 -87.74)"/><path class="cls-44" d="M359.38,192.61l0,9.32-.8.12,0-9.33c.28-.05.55-.09.79-.11Z" transform="translate(-202.77 -87.74)"/><path class="cls-45" d="M358.59,192.72l0,9.33c-.52.1-1.13.24-1.82.42s-1.08.26-1.58.35l0-9.33c.5-.09,1-.21,1.58-.36s1.3-.31,1.83-.41Z" transform="translate(-202.77 -87.74)"/><path class="cls-44" d="M355.18,193.49l0,9.33c-.37.07-.73.12-1.07.15l0-9.32c.34,0,.69-.09,1.06-.16Z" transform="translate(-202.77 -87.74)"/><path class="cls-43" d="M354.12,193.65l0,9.32c-.23,0-.46,0-.68.05l0-9.33.69,0Z" transform="translate(-202.77 -87.74)"/><path class="cls-42" d="M353.43,193.69l0,9.33h-.53l0-9.33Z" transform="translate(-202.77 -87.74)"/><path class="cls-41" d="M352.9,193.69l0,9.33-.45,0,0-9.33.44,0Z" transform="translate(-202.77 -87.74)"/><path class="cls-40" d="M352.46,193.67l0,9.33L352,203l0-9.32.42,0Z" transform="translate(-202.77 -87.74)"/><path class="cls-39" d="M352,193.63l0,9.32-.42-.07,0-9.33.42.08Z" transform="translate(-202.77 -87.74)"/><path class="cls-38" d="M351.62,193.55l0,9.33-.45-.11,0-9.33.45.11Z" transform="translate(-202.77 -87.74)"/><path class="cls-37" d="M351.17,193.44l0,9.33a5.49,5.49,0,0,1-.57-.2l0-9.32.58.19Z" transform="translate(-202.77 -87.74)"/><path class="cls-36" d="M350.59,193.25l0,9.32a6.29,6.29,0,0,1-.7-.32l-.09-.05a2.39,2.39,0,0,1-1.4-1.95l0-9.33a2.38,2.38,0,0,0,1.39,2l.1,0,.69.33Z" transform="translate(-202.77 -87.74)"/></g></g></g><g class="cls-22"><g class="cls-87"><g class="cls-22"><path class="cls-39" d="M364.43,193.65l0,9.33v0l0-9.33v0Z" transform="translate(-202.77 -87.74)"/><path class="cls-40" d="M364.43,193.69l0,9.33a1.24,1.24,0,0,1,0,.27l0-9.33a1.24,1.24,0,0,0,0-.27Z" transform="translate(-202.77 -87.74)"/><path class="cls-41" d="M364.4,194l0,9.33a1.72,1.72,0,0,1-.08.28l0-9.33c0-.09.06-.19.08-.28Z" transform="translate(-202.77 -87.74)"/><path class="cls-42" d="M364.32,194.24l0,9.33a1.35,1.35,0,0,1-.14.3l0-9.33a2,2,0,0,0,.14-.3Z" transform="translate(-202.77 -87.74)"/><path class="cls-43" d="M364.18,194.54l0,9.33a3.5,3.5,0,0,1-.23.35l0-9.33a2,2,0,0,0,.24-.35Z" transform="translate(-202.77 -87.74)"/><path class="cls-44" d="M363.94,194.89l0,9.33a3.29,3.29,0,0,1-.41.43l0-9.33a3.93,3.93,0,0,0,.4-.43Z" transform="translate(-202.77 -87.74)"/><path class="cls-45" d="M363.54,195.32l0,9.33-.13.12,0-9.33.13-.12Z" transform="translate(-202.77 -87.74)"/></g></g></g><g class="cls-22"><g class="cls-88"><g class="cls-22"><path class="cls-27" d="M362.31,193.93l0,9.33v0l0-9.33v0Z" transform="translate(-202.77 -87.74)"/><path class="cls-28" d="M362.31,194l0,9.33s0,.09,0,.14l0-9.33a.66.66,0,0,0,0-.14Z" transform="translate(-202.77 -87.74)"/><path class="cls-29" d="M362.3,194.09l0,9.33a1.21,1.21,0,0,1,0,.14l0-9.33a.74.74,0,0,0,0-.14Z" transform="translate(-202.77 -87.74)"/><path class="cls-30" d="M362.26,194.23l0,9.33-.07.16,0-9.33a.79.79,0,0,0,.08-.16Z" transform="translate(-202.77 -87.74)"/><path class="cls-31" d="M362.18,194.39l0,9.33a.94.94,0,0,1-.12.18l0-9.34a.88.88,0,0,0,.12-.17Z" transform="translate(-202.77 -87.74)"/><path class="cls-32" d="M362.06,194.56l0,9.34a2.28,2.28,0,0,1-.22.23l0-9.33a2.25,2.25,0,0,0,.21-.24Z" transform="translate(-202.77 -87.74)"/><path class="cls-33" d="M361.85,194.8l0,9.33a3.39,3.39,0,0,1-.56.41l0,0,0-9.33,0,0a3.39,3.39,0,0,0,.56-.41Z" transform="translate(-202.77 -87.74)"/><path class="cls-34" d="M361.25,195.24l0,9.33a7.33,7.33,0,0,1-1.65.74l0-9.33a8.1,8.1,0,0,0,1.66-.74Z" transform="translate(-202.77 -87.74)"/><path class="cls-33" d="M359.59,196l0,9.33a10.1,10.1,0,0,1-1.39.34l0-9.33a9.68,9.68,0,0,0,1.38-.34Z" transform="translate(-202.77 -87.74)"/><path class="cls-32" d="M358.21,196.32l0,9.33-.11,0,0-9.33.11,0Z" transform="translate(-202.77 -87.74)"/></g></g></g><polygon class="cls-25" points="162.75 108.85 162.73 118.18 160.62 117.03 160.64 107.7 162.75 108.85"/><polygon class="cls-49" points="161.53 109.6 161.51 118.93 159.48 117.82 159.5 108.49 161.53 109.6"/><polygon class="cls-63" points="162.75 108.85 162.73 118.18 161.51 118.93 161.53 109.6 162.75 108.85"/><g class="cls-22"><g class="cls-89"><g class="cls-22"><path class="cls-46" d="M362.27,196.23l0,9.32a9.1,9.1,0,0,1-1.88.83l0-9.33a9.28,9.28,0,0,0,1.87-.82Z" transform="translate(-202.77 -87.74)"/><path class="cls-45" d="M360.4,197.05l0,9.33a8.07,8.07,0,0,1-1.29.32l0-9.33a9.31,9.31,0,0,0,1.29-.32Z" transform="translate(-202.77 -87.74)"/><path class="cls-44" d="M359.11,197.37l0,9.33-.11,0,0-9.34.12,0Z" transform="translate(-202.77 -87.74)"/></g></g></g><polygon class="cls-65" points="156.22 109.66 156.2 118.99 155.3 117.93 155.33 108.61 156.22 109.66"/><g class="cls-22"><g class="cls-90"><g class="cls-22"><path class="cls-27" d="M375.59,192.28l0,9.33v.17l0-9.33v-.17Z" transform="translate(-202.77 -87.74)"/><path class="cls-28" d="M375.59,192.45l0,9.33a5.8,5.8,0,0,1-.13,1.1l0-9.33a5.9,5.9,0,0,0,.13-1.1Z" transform="translate(-202.77 -87.74)"/><path class="cls-29" d="M375.46,193.55l0,9.33a7.25,7.25,0,0,1-.3,1.08l0-9.33a7.25,7.25,0,0,0,.3-1.08Z" transform="translate(-202.77 -87.74)"/><path class="cls-30" d="M375.16,194.63l0,9.33a8.25,8.25,0,0,1-.51,1.09l0-9.33a9,9,0,0,0,.52-1.09Z" transform="translate(-202.77 -87.74)"/><path class="cls-31" d="M374.64,195.72l0,9.33a11,11,0,0,1-.78,1.14l0-9.33a8.78,8.78,0,0,0,.77-1.14Z" transform="translate(-202.77 -87.74)"/><path class="cls-32" d="M373.87,196.86l0,9.33a10.78,10.78,0,0,1-1.18,1.28l0-9.33a10.1,10.1,0,0,0,1.19-1.28Z" transform="translate(-202.77 -87.74)"/><path class="cls-33" d="M372.68,198.14l0,9.33a15.33,15.33,0,0,1-2.43,1.8l0-9.33a14.46,14.46,0,0,0,2.43-1.8Z" transform="translate(-202.77 -87.74)"/><path class="cls-34" d="M370.25,199.94l0,9.33-.24.13a21,21,0,0,1-4.2,1.85l0-9.32a21.89,21.89,0,0,0,4.2-1.85l.23-.14Z" transform="translate(-202.77 -87.74)"/><path class="cls-33" d="M365.82,201.93l0,9.32a27.92,27.92,0,0,1-3.63.91l0-9.33a30.08,30.08,0,0,0,3.63-.9Z" transform="translate(-202.77 -87.74)"/><path class="cls-32" d="M362.19,202.83l0,9.33c-.8.14-1.62.26-2.44.34l0-9.33c.83-.08,1.65-.2,2.45-.34Z" transform="translate(-202.77 -87.74)"/><path class="cls-31" d="M359.74,203.17l0,9.33c-.71.06-1.42.12-2.12.14l0-9.33c.71,0,1.42-.07,2.12-.14Z" transform="translate(-202.77 -87.74)"/><path class="cls-30" d="M357.62,203.31l0,9.33c-.66,0-1.32,0-2,0l0-9.33c.65,0,1.31,0,2,0Z" transform="translate(-202.77 -87.74)"/><path class="cls-29" d="M355.66,203.32l0,9.33c-.63,0-1.26-.05-1.89-.1l0-9.33c.62.05,1.26.08,1.89.1Z" transform="translate(-202.77 -87.74)"/><path class="cls-28" d="M353.77,203.22l0,9.33q-.93-.08-1.86-.21l0-9.33q.91.13,1.86.21Z" transform="translate(-202.77 -87.74)"/><path class="cls-27" d="M351.91,203l0,9.33c-.64-.09-1.28-.2-1.9-.33l0-9.33c.63.13,1.26.24,1.91.33Z" transform="translate(-202.77 -87.74)"/><path class="cls-26" d="M350,202.68l0,9.33c-.68-.14-1.35-.3-2-.49l0-9.33c.65.19,1.32.35,2,.49Z" transform="translate(-202.77 -87.74)"/><path class="cls-25" d="M348,202.19l0,9.33c-.8-.23-1.58-.49-2.33-.78l0-9.34a24.52,24.52,0,0,0,2.33.79Z" transform="translate(-202.77 -87.74)"/><path class="cls-24" d="M345.68,201.4l0,9.34a20.14,20.14,0,0,1-2.76-1.34c-3.79-2.17-5.67-5-5.66-7.9l0-9.33c0,2.86,1.88,5.73,5.66,7.91a20.76,20.76,0,0,0,2.77,1.32Z" transform="translate(-202.77 -87.74)"/></g></g></g><path class="cls-67" d="M369.93,184.38c7.51,4.33,7.55,11.36.09,15.7s-19.6,4.33-27.11,0-7.55-11.37-.09-15.7S362.42,180,369.93,184.38Zm-7.66,11.85,2,1.11,1.22-.75-2.11-1.15c1.46-1.26,1.34-2.66-.3-3.61l-.09-.05c-1.81-1-4-.76-6.85,0-2.08.55-3.56.63-4.7,0a.11.11,0,0,0-.07,0c-1.13-.66-1-1.69.35-2.53a10,10,0,0,1,3.73-1.24l-.91-1.05a10.89,10.89,0,0,0-3.94,1.33l-2.1-1.15-1.24.77,2.17,1.18c-1.64,1.41-1.23,2.88.34,3.8l.1,0c1.85,1,4,1,6.86.21,2.46-.63,3.74-.77,4.81-.18,0,0,0,0,.05,0,.81.46,1.16,1.32-.33,2.23a8.93,8.93,0,0,1-3.19,1.13l.89,1a9.55,9.55,0,0,0,3.28-1.16Z" transform="translate(-202.77 -87.74)"/><g class="cls-22"><g class="cls-91"><g class="cls-22"><path class="cls-39" d="M380.54,192.41l0,9.33V202l0-9.33v-.21Z" transform="translate(-202.77 -87.74)"/><path class="cls-40" d="M380.54,192.62l0,9.33a9.25,9.25,0,0,1-.16,1.39l0-9.32a7.33,7.33,0,0,0,.16-1.4Z" transform="translate(-202.77 -87.74)"/><path class="cls-41" d="M380.38,194l0,9.32a9.84,9.84,0,0,1-.4,1.38l0-9.33a8.8,8.8,0,0,0,.39-1.37Z" transform="translate(-202.77 -87.74)"/><path class="cls-42" d="M380,195.39l0,9.33a9.54,9.54,0,0,1-.65,1.38l0-9.33a9.6,9.6,0,0,0,.65-1.38Z" transform="translate(-202.77 -87.74)"/><path class="cls-43" d="M379.34,196.77l0,9.33a10,10,0,0,1-1,1.45l0-9.33a10.87,10.87,0,0,0,1-1.45Z" transform="translate(-202.77 -87.74)"/><path class="cls-44" d="M378.36,198.22l0,9.33a13.28,13.28,0,0,1-1.5,1.63l0-9.34a13.38,13.38,0,0,0,1.51-1.62Z" transform="translate(-202.77 -87.74)"/><path class="cls-45" d="M376.85,199.84l0,9.34a19.69,19.69,0,0,1-3.08,2.28l0-9.33a19,19,0,0,0,3.07-2.29Z" transform="translate(-202.77 -87.74)"/><path class="cls-46" d="M373.78,202.13l0,9.33-.3.17a27.64,27.64,0,0,1-5.33,2.34l0-9.33a27.13,27.13,0,0,0,5.34-2.34l.3-.17Z" transform="translate(-202.77 -87.74)"/><path class="cls-45" d="M368.14,204.64l0,9.33a34.14,34.14,0,0,1-4.61,1.15l0-9.33a33.62,33.62,0,0,0,4.6-1.15Z" transform="translate(-202.77 -87.74)"/><path class="cls-44" d="M363.54,205.79l0,9.33c-1,.19-2.06.33-3.1.43l0-9.33c1.05-.1,2.09-.24,3.11-.43Z" transform="translate(-202.77 -87.74)"/><path class="cls-43" d="M360.43,206.22l0,9.33q-1.35.13-2.7.18l0-9.33q1.36,0,2.7-.18Z" transform="translate(-202.77 -87.74)"/><path class="cls-42" d="M357.73,206.4l0,9.33c-.83,0-1.66,0-2.49,0l0-9.32c.84,0,1.67,0,2.49,0Z" transform="translate(-202.77 -87.74)"/><path class="cls-41" d="M355.24,206.42l0,9.32q-1.2,0-2.4-.12l0-9.33c.79.06,1.59.11,2.39.13Z" transform="translate(-202.77 -87.74)"/><path class="cls-40" d="M352.85,206.29l0,9.33c-.79-.07-1.58-.16-2.36-.27l0-9.33c.78.12,1.58.2,2.37.27Z" transform="translate(-202.77 -87.74)"/><path class="cls-39" d="M350.48,206l0,9.33c-.82-.11-1.62-.25-2.41-.42l0-9.32c.8.16,1.6.3,2.41.41Z" transform="translate(-202.77 -87.74)"/><path class="cls-38" d="M348.07,205.61l0,9.32c-.86-.18-1.71-.39-2.54-.62l0-9.33c.82.24,1.67.44,2.53.63Z" transform="translate(-202.77 -87.74)"/><path class="cls-37" d="M345.54,205l0,9.33a30.93,30.93,0,0,1-2.95-1l0-9.34a31.16,31.16,0,0,0,3,1Z" transform="translate(-202.77 -87.74)"/><path class="cls-36" d="M342.58,204l0,9.34a26.44,26.44,0,0,1-3.51-1.69c-4.79-2.77-7.18-6.4-7.17-10l0-9.34c0,3.64,2.39,7.27,7.18,10a24.56,24.56,0,0,0,3.5,1.68Z" transform="translate(-202.77 -87.74)"/></g></g></g><path class="cls-69" d="M373.36,182.38c9.54,5.5,9.59,14.42.12,19.92s-24.87,5.51-34.4,0-9.57-14.42-.11-19.92S363.84,176.88,373.36,182.38Zm-30.45,17.7c7.51,4.33,19.65,4.33,27.11,0s7.42-11.37-.09-15.7-19.65-4.34-27.11,0-7.42,11.36.09,15.7Z" transform="translate(-202.77 -87.74)"/><path class="cls-70" d="M374.57,181.68c10.09,5.82,10.14,15.27.12,21.09s-26.33,5.83-36.42,0-10.14-15.27-.12-21.09S364.48,175.85,374.57,181.68ZM339.08,202.3c9.53,5.51,24.93,5.5,34.4,0s9.42-14.42-.12-19.92-24.92-5.5-34.39,0-9.42,14.42.11,19.92Z" transform="translate(-202.77 -87.74)"/><path class="cls-70" d="M363.11,191.83c1.64.95,1.76,2.35.3,3.61l2.11,1.15-1.22.75-2-1.11a9.55,9.55,0,0,1-3.28,1.16l-.89-1a8.93,8.93,0,0,0,3.19-1.13c1.49-.91,1.14-1.77.33-2.23,0,0,0,0-.05,0-1.07-.59-2.35-.45-4.81.18-2.9.77-5,.8-6.86-.21l-.1,0c-1.57-.92-2-2.39-.34-3.8l-2.17-1.18,1.24-.77,2.1,1.15a10.89,10.89,0,0,1,3.94-1.33l.91,1.05a10,10,0,0,0-3.73,1.24c-1.36.84-1.48,1.87-.35,2.53a.09.09,0,0,1,.07,0c1.14.63,2.62.55,4.7,0,2.84-.77,5-1,6.85,0Z" transform="translate(-202.77 -87.74)"/><path class="cls-67" d="M382.11,193.07c0,.26,0,.53-.09.79s-.11.45-.17.68-.13.5-.22.75a9.23,9.23,0,0,1-.48,1.14l-.09.18a11.78,11.78,0,0,1-.73,1.21l-.12.16c-.26.36-.54.71-.85,1.06-.06.06-.11.13-.17.2-.33.36-.69.71-1.08,1.06s-.53.44-.8.66-.46.38-.72.56-.61.42-.93.63-.63.42-1,.62c-.56.33-1.14.63-1.74.92-.15.07-.31.15-.47.21-.54.26-1.09.49-1.66.71l-.2.09c-.61.23-1.23.44-1.86.64l-1.3.37c-.35.09-.69.19-1,.27s-.95.22-1.43.31-.67.15-1,.21l-.44.07c-.6.1-1.2.18-1.8.26l-.5,0c-.35,0-.71.06-1.07.09-.56.05-1.14.09-1.71.12l-1.12,0h-1.41l-1.18,0-1.32-.07c-.38,0-.78-.06-1.17-.1l-1.3-.14-1.15-.17c-.45-.07-.9-.14-1.35-.23l-1.08-.22c-.54-.11-1.06-.25-1.58-.38-.35-.1-.71-.18-1.05-.29l-.53-.16c-.53-.17-1-.35-1.56-.53l-.46-.17c-.46-.18-.89-.38-1.33-.57l-.7-.3q-1-.47-1.89-1c-5.08-2.93-7.61-6.78-7.6-10.62l0,9.33c0,3.84,2.53,7.7,7.61,10.62.61.36,1.24.68,1.89,1,.2.1.41.18.61.26.4.19.8.37,1.21.53l.21.08.45.17c.51.18,1,.36,1.56.53l.54.16.36.12c.23.06.46.1.68.17.52.13,1,.27,1.58.38l.43.11.66.11c.45.08.89.17,1.35.24l.54.09.62.07,1.26.14.63.07c.2,0,.39,0,.6,0l1.27.07.67,0h.52q.71,0,1.41,0h.7l.42,0c.58,0,1.15-.07,1.72-.12.24,0,.48,0,.72-.05l.23,0c1-.1,1.94-.23,2.9-.4l.16,0,.89-.19,1.35-.29,1.06-.29c.42-.11.86-.23,1.27-.36a2.63,2.63,0,0,0,.3-.09c.53-.17,1.06-.36,1.57-.55l.19-.08q.86-.33,1.68-.72l.46-.21c.6-.29,1.18-.59,1.74-.92.11-.06.21-.13.32-.18s.43-.3.65-.44.65-.41.94-.63.48-.37.72-.56.54-.44.79-.66l.16-.13c.33-.3.63-.61.92-.93.07-.07.12-.14.18-.21l.5-.57c.12-.16.22-.32.34-.47l.13-.18c.2-.3.4-.6.56-.9L381,206c0-.07.07-.13.1-.2a9.25,9.25,0,0,0,.43-1,1,1,0,0,1,.05-.16c.09-.25.15-.51.22-.76s.11-.36.15-.53a.36.36,0,0,1,0-.14c0-.26.06-.53.08-.8a5.06,5.06,0,0,0,.06-.53,1.85,1.85,0,0,0,0-.23l0-9.33C382.17,192.56,382.13,192.81,382.11,193.07Z" transform="translate(-202.77 -87.74)"/><g class="cls-6"><path d="M447.76,255.67c10.95,6.32,11,16.58.13,22.89s-28.56,6.32-39.51,0-11-16.57-.13-22.89S436.82,249.35,447.76,255.67Z" transform="translate(-202.77 -87.74)"/></g><polygon class="cls-92" points="129.1 96.19 129.66 97.1 127.99 96.13 127.43 95.23 129.1 96.19"/><path class="cls-11" d="M302.48,254.16s2.73.41,2.06,2-3.81,4-4.22,5-3,4.56-3.81,4.23-3,.16-2.73-3.9S298.83,254,302.48,254.16Z" transform="translate(-202.77 -87.74)"/><path class="cls-11" d="M307.25,268.85s-1.33,3.89,2,4.8,2.33-1.16,9.54.67,7.85-1.89,7.86-2.74c0-1.94-5-2.31-6.54-2.73a36.86,36.86,0,0,1-4.72-2l-8.38.82Z" transform="translate(-202.77 -87.74)"/><path class="cls-93" d="M293.63,201.21s0,23.53,0,26.18-3,23.52-1.19,32.64c0,0,5.13,5.14,9.67,0,0,0,1.45-26.13,2.76-32s.88-23.94.88-23.94Z" transform="translate(-202.77 -87.74)"/><path class="cls-93" d="M302.63,204.56s1.17,15.19,2.38,30.25c0,0,.75,29.9,1.45,34.2,0,0,9.65,2.39,10.61-2.16,0,0-.24-26.3,0-31.79s.81-20.85-1.36-29.69S302.63,204.56,302.63,204.56Z" transform="translate(-202.77 -87.74)"/><path class="cls-94" d="M306.46,269c-.7-4.3-1.45-34.2-1.45-34.2-.82-10.14-1.61-20.33-2-25.91l5.95,1.46s4.29,11.27,3.63,28.17c-.5,13.08-.71,26-.78,31.1A23.7,23.7,0,0,1,306.46,269Z" transform="translate(-202.77 -87.74)"/><path class="cls-94" d="M292.4,260c-1.77-9.12,1.19-30,1.19-32.64s0-24,0-26l5.17,4s1.65,16.82,0,26.4c-1.49,8.71-.53,25.68-1.26,30.54A8.26,8.26,0,0,1,292.4,260Z" transform="translate(-202.77 -87.74)"/><path class="cls-93" d="M303.07,153.44s-4.67-1.16-5.93,6.69c-1,6.34-1.09,16.41.13,20.55s5.34,12.81,5.34,12.81,5.63.19,5.31-3.31l-4.29-13.29S308.43,153.62,303.07,153.44Z" transform="translate(-202.77 -87.74)"/><path class="cls-94" d="M302.67,153.31s-5.41,1.24-4.68,10.12,1.37,14.66.47,17.68-4.55,13-5.71,15c0,0-2.45,6.56,12,14.36,0,0,12.4,4.39,12.35-4.49s2.45-22.6,3.55-25.74,4.61-9.11-2.37-15.42S307.91,154.25,302.67,153.31Z" transform="translate(-202.77 -87.74)"/><path class="cls-95" d="M320.67,180.22c-1.1,3.14-3.59,16.86-3.55,25.74,0,6.16-5.91,5.93-9.56,5.22-.25-4,3.33-10.21,2.64-19-.86-10.89,1.24-17.44,4.32-22.37,2-3.21,4.11-2.79,5.73-2.91C324.53,172.4,321.66,177.42,320.67,180.22Z" transform="translate(-202.77 -87.74)"/><path class="cls-96" d="M292.75,196.09c1.16-1.94,4.8-12,5.71-15s.2-8.8-.47-17.68c-.62-8.4,2.83-9.72,4.68-10.12-.12,4.24,13.41,9.34,12.41,11.95-1.11,2.91-5.52,4.8-7,10.11A81.27,81.27,0,0,0,305.25,193c0,3.65-2.47,11.89-4.12,15.29C290.74,201.48,292.75,196.09,292.75,196.09Z" transform="translate(-202.77 -87.74)"/><path class="cls-8" d="M309.38,150.65s-.53,4.41-2.66,6.74c-1.93,2.11,7.64,6.8,8.42,4.6a10,10,0,0,1,2.56-8.18C319.54,151.82,309.38,150.65,309.38,150.65Z" transform="translate(-202.77 -87.74)"/><path class="cls-15" d="M306.74,157.55c1.58-1.72,2.28-4.61,2.53-6l6.49,5.46s0,0,0,0c-.28,0-5.58.05-7.53,3.36C306.85,159.44,306,158.32,306.74,157.55Z" transform="translate(-202.77 -87.74)"/><path class="cls-8" d="M322.81,141.85a19,19,0,0,1-.51,7.56c-1.22,3.52-.86,4.38-1.48,5.94a4,4,0,0,1-1.39,2.16c-1.39.8-3.77.64-6.61-1.25-3.43-2.3-6.13-8.44-3.39-12.7S318.07,136.68,322.81,141.85Z" transform="translate(-202.77 -87.74)"/><path class="cls-17" d="M308.38,148.63c2.53-3.82,7.5-7.92,7.53-8.2a12.55,12.55,0,0,1,3.06-1.14,8.82,8.82,0,0,1,3.84,2.56,21.72,21.72,0,0,1,.16,2.7c-1.14.79-3.24,1.48-3.73,2.27a11.3,11.3,0,0,0-1.24,6.46c.27,1.49-2.63,2.86-2.4,4.17a.31.31,0,0,1,0,.17,10.43,10.43,0,0,1-7.19-9Z" transform="translate(-202.77 -87.74)"/><path class="cls-97" d="M324.31,140.53a4.94,4.94,0,0,1-3.95,4.27c-2.22.49-2.82,3.72-2.86,4.34s-.13,3.43-.45,3.72c-.63.55-1.67-1.89-2.44-1.92-2-.1-1.66,1.82-.4,4.07s-3.62,2-5.43-.13c-1-1.13-1.27-1.75-2.06-5.18-1.15-5,0-10.37,6-11.94S320.73,141,324.31,140.53Z" transform="translate(-202.77 -87.74)"/><path class="cls-98" d="M308.78,154.88c-1-1.13-1.27-1.75-2.06-5.18-1.15-5,0-10.37,6-11.94s8,3.27,11.59,2.77a4.62,4.62,0,0,1-.35,1.33c-1.74-.14-6.52-.35-8.18,1.33-2,2.06-3.45.89-4.07,3.92s-2.26,6.53,2.2,9.35C311.79,157.32,309.48,155.72,308.78,154.88Z" transform="translate(-202.77 -87.74)"/><path class="cls-99" d="M314.9,160.52l2.62,3.57s-11,.44-12.75-5.32a3,3,0,0,1,2.74-3.08S306.87,159.86,314.9,160.52Z" transform="translate(-202.77 -87.74)"/><path class="cls-8" d="M328.68,183s.56-2.31,1.29-2.65a16.43,16.43,0,0,0,3.07-2.68c.29-.42,1.42-.85,1.47-.38a19.5,19.5,0,0,1-1.63,3.8c-.29.51,2.5.46,3.33-.26s1.9-1.45,2-1.07a5.09,5.09,0,0,1-2.3,5,12.84,12.84,0,0,1-5.6,1.92Z" transform="translate(-202.77 -87.74)"/><path class="cls-93" d="M319.22,168.32c1.46.21,3.61,1.71,3,5s-6.85,15.45-6.85,15.45L328.5,182s3.34,3,2.05,5.62c0,0-20.85,12.62-22.73,11.77C302.76,197.07,311.57,167.19,319.22,168.32Z" transform="translate(-202.77 -87.74)"/><path class="cls-96" d="M307.82,199.36c1.88.85,22.73-11.77,22.73-11.77a3,3,0,0,0,.29-1.46l-.16-.9c0-.07-.05-.14-.07-.2-.55.28-16.72,8.69-21.06,9.95-4.06,1.19,8.17-22.75,10.13-26.55a2,2,0,0,0-.46-.11C311.57,167.19,302.76,197.07,307.82,199.36Z" transform="translate(-202.77 -87.74)"/><g class="cls-6"><path d="M328.93,253.38c11.47,6.62,11.53,17.36.13,24s-29.92,6.63-41.38,0-11.53-17.35-.14-24S317.47,246.76,328.93,253.38Z" transform="translate(-202.77 -87.74)"/></g><path class="cls-100" d="M436.12,164.35s-3.7-2.82-7.89,2.28a114.88,114.88,0,0,0-7.72,10.78l-15.2.89s-1.46,2.52-.38,4.19c0,0,14.58,3.11,19.75.51C424.68,183,445.18,169.54,436.12,164.35Z" transform="translate(-202.77 -87.74)"/><path class="cls-8" d="M405.06,178.83s-2.85-1.83-4.34-1.94a5.8,5.8,0,0,0-2.91.41c-.37.19,1.35.62,1.9.74s1.49,1.16-2,1.62-2.64.7-2.44.92,5.65,2.7,9.48,1.57A4.83,4.83,0,0,1,405.06,178.83Z" transform="translate(-202.77 -87.74)"/><path class="cls-101" d="M424.68,183c-5.17,2.6-19.75-.51-19.75-.51a2.7,2.7,0,0,1-.39-1.53c3,.31,11.85,1.16,16.91,1.13,6.16,0,16.16-16.43,16.1-16.59C442.51,171.29,424.68,183,424.68,183Z" transform="translate(-202.77 -87.74)"/><path class="cls-11" d="M433.77,253.65s-2.47.37-1.87,1.79,3.43,3.58,3.8,4.48,2.69,4.1,3.43,3.8,2.69.15,2.46-3.51S437.05,253.5,433.77,253.65Z" transform="translate(-202.77 -87.74)"/><path class="cls-11" d="M429.06,267.08s1.2,3.51-1.79,4.33-2.09-1.05-8.58.59-7.23-1.71-7.08-2.46,4.47-2.09,5.89-2.46l4.1-1.05h7.7Z" transform="translate(-202.77 -87.74)"/><path class="cls-102" d="M441.32,205.51s0,21.18,0,23.56,2.67,21.19,1.07,29.39c0,0-4.62,4.63-8.7,0,0,0-1.31-23.52-2.49-28.83s-.79-21.56-.79-21.56Z" transform="translate(-202.77 -87.74)"/><path class="cls-102" d="M433.22,208.52s-1.05,13.68-2.13,27.23c0,0-.68,26.93-1.32,30.8,0,0-8.68,2.15-9.55-1.94,0,0,.22-23.69,0-28.63s-1.4-20.47.55-28.44S433.22,208.52,433.22,208.52Z" transform="translate(-202.77 -87.74)"/><path class="cls-103" d="M429.77,266.55c.64-3.87,1.32-30.8,1.32-30.8.72-9.12,1.56-19.82,2-24.84L427.15,212a93.82,93.82,0,0,0-2.87,27.06c.45,11.78.65,23.37.71,28A21.62,21.62,0,0,0,429.77,266.55Z" transform="translate(-202.77 -87.74)"/><path class="cls-103" d="M442.43,258.46c1.6-8.2-1.07-27-1.07-29.39s0-21.58,0-23.41l-4.67,3.58s-1.48,15.15,0,23.77c1.35,7.85.49,23.13,1.14,27.51A7.42,7.42,0,0,0,442.43,258.46Z" transform="translate(-202.77 -87.74)"/><path class="cls-100" d="M435.13,164.07s5.18,1.46,4,10-2,14.1-1.32,17.05,3.59,13.9,4.61,15.83c0,0,1,3.37-11.5,7.54,0,0-11.32,3.55-10.83-5s-2.79-17.22-3.7-20.31-4-9,3.07-14.78S430,164.71,435.13,164.07Z" transform="translate(-202.77 -87.74)"/><path class="cls-8" d="M428.79,161.16s.29,4.29,2.24,6.65c1.76,2.13-7.72,6.18-8.37,4a9.68,9.68,0,0,0-2.06-8C418.93,161.79,428.79,161.16,428.79,161.16Z" transform="translate(-202.77 -87.74)"/><path class="cls-15" d="M431,168a12.68,12.68,0,0,1-2.15-5.9L422.31,167a0,0,0,0,0,0,0c.27,0,5.38.33,7.1,3.63C430.79,169.77,431.64,168.74,431,168Z" transform="translate(-202.77 -87.74)"/><path class="cls-8" d="M416.26,152a18.5,18.5,0,0,0,.11,7.33c1,3.47.61,4.28,1.14,5.81a3.82,3.82,0,0,0,1.24,2.16c1.29.85,3.61.81,6.44-.88,3.43-2,6.34-7.85,3.9-12.1S421.09,147.23,416.26,152Z" transform="translate(-202.77 -87.74)"/><path class="cls-17" d="M429.87,159.26c-2.26-3.81-6.85-8-6.87-8.3a12.18,12.18,0,0,0-2.92-1.24,8.41,8.41,0,0,0-3.82,2.27,20.16,20.16,0,0,0-.3,2.6c1.06.82,3.06,1.59,3.49,2.38a10.82,10.82,0,0,1,.88,6.3c-.33,1.42,2.4,2.9,2.12,4.16a.22.22,0,0,0,0,.16,11.26,11.26,0,0,0,2.73-1.18A10.88,10.88,0,0,0,429.87,159.26Z" transform="translate(-202.77 -87.74)"/><path class="cls-97" d="M414.87,150.64a4.8,4.8,0,0,0,3.61,4.33c2.11.58,2.53,3.73,2.55,4.32s0,3.33.25,3.63c.57.56,1.7-1.75,2.45-1.75,1.9,0,1.5,1.85.18,4s3.4,2.13,5.25.15c1-1.05,1.31-1.63,2.25-4.9,1.35-4.78.47-10-5.21-11.84S418.31,151.3,414.87,150.64Z" transform="translate(-202.77 -87.74)"/><path class="cls-98" d="M429.16,165.28c1-1.05,1.31-1.63,2.25-4.9,1.35-4.78.47-10-5.21-11.84s-7.89,2.76-11.33,2.1a4.79,4.79,0,0,0,.28,1.3c1.68,0,6.32,0,7.83,1.69,1.86,2.09,3.3,1,3.73,4s1.87,6.42-2.59,8.93C426.13,167.48,428.44,166.05,429.16,165.28Z" transform="translate(-202.77 -87.74)"/><path class="cls-101" d="M423,170.42l-2.71,3.32s10.57,1,12.57-4.5a2.89,2.89,0,0,0-2.49-3.11S430.76,170.19,423,170.42Z" transform="translate(-202.77 -87.74)"/><path class="cls-101" d="M420.11,209.47c.49-8.58-2.79-17.22-3.7-20.31s-3.93-8.91,2.87-14.6c3,1.1,7.45,3.83,6.38,10.1-1.31,7.75.79,23.62,1.56,30.52C424,215.42,419.8,214.74,420.11,209.47Z" transform="translate(-202.77 -87.74)"/><path class="cls-100" d="M422.19,176.21s-3.83-1.74-6.49,3.6a103.36,103.36,0,0,0-4.63,11.05l-13.2,3.85s-.78,2.51.51,3.77c0,0,13.47-.21,17.49-3.54C415.87,194.94,431.21,179,422.19,176.21Z" transform="translate(-202.77 -87.74)"/><path class="cls-8" d="M397.75,195.22s-2.87-1-4.21-.83a5.39,5.39,0,0,0-2.48.94c-.28.25,1.31.28,1.82.28s1.56.72-1.44,1.83-2.18,1.15-1.95,1.3,5.51,1.24,8.66-.52A4.41,4.41,0,0,1,397.75,195.22Z" transform="translate(-202.77 -87.74)"/><path class="cls-101" d="M415.87,194.94c-4,3.33-17.49,3.54-17.49,3.54a2.43,2.43,0,0,1-.65-1.27c2.73-.34,10.67-1.37,15.11-2.42,5.43-1.28,10.93-17.73,10.84-17.85C429.21,181,415.87,194.94,415.87,194.94Z" transform="translate(-202.77 -87.74)"/><g class="cls-6"><polygon points="128.98 214.64 158.6 231.3 214.48 199.04 183.32 181.59 128.98 214.64"/></g><polygon class="cls-104" points="168.78 178.2 168.84 201.39 189.44 213.35 189.37 190.17 168.78 178.2"/><polygon class="cls-105" points="168.78 178.2 168.84 201.39 189.44 213.35 189.37 190.17 168.78 178.2"/><polygon class="cls-106" points="177.1 183.09 177.11 187.6 181.12 189.93 181.1 185.42 177.1 183.09"/><polygon class="cls-107" points="189.37 190.17 189.44 213.35 210.16 201.39 210.1 178.2 189.37 190.17"/><polygon class="cls-108" points="168.78 178.2 189.37 190.17 210.1 178.2 189.5 166.23 168.78 178.2"/><polygon class="cls-109" points="210.16 201.39 189.37 190.17 210.1 178.2 210.16 201.39"/><polygon class="cls-110" points="189.37 190.17 196.6 196.59 216.66 184.5 210.1 178.2 189.37 190.17"/><polygon class="cls-111" points="210.1 178.2 215.59 175.02 195.02 162.79 189.5 166.23 210.1 178.2"/><polygon class="cls-110" points="189.5 166.23 183.46 159.83 163.03 171.52 168.78 178.2 189.5 166.23"/><polygon class="cls-111" points="189.37 190.17 183.86 195.78 163.03 184.05 168.78 178.2 189.37 190.17"/><polygon class="cls-104" points="141.02 198.66 141.07 215.89 156.37 224.78 156.32 207.55 141.02 198.66"/><polygon class="cls-105" points="141.02 198.66 141.07 215.89 156.37 224.78 156.32 207.55 141.02 198.66"/><polygon class="cls-106" points="147.2 202.29 147.21 205.64 150.19 207.38 150.18 204.02 147.2 202.29"/><polygon class="cls-107" points="156.32 207.55 156.37 224.78 171.78 215.89 171.73 198.66 156.32 207.55"/><polygon class="cls-108" points="141.02 198.66 156.32 207.55 171.73 198.66 156.42 189.76 141.02 198.66"/><polygon class="cls-109" points="171.78 215.89 156.32 207.55 171.73 198.66 171.78 215.89"/><polygon class="cls-110" points="156.32 207.55 161.7 212.33 176.61 203.34 171.73 198.66 156.32 207.55"/><polygon class="cls-110" points="171.73 198.66 175.81 196.29 160.52 187.2 156.42 189.76 171.73 198.66"/><polygon class="cls-107" points="156.42 189.76 151.93 185 136.75 193.69 141.02 198.66 156.42 189.76"/><polygon class="cls-111" points="156.32 207.55 152.23 211.72 136.75 203 141.02 198.66 156.32 207.55"/><g class="cls-6"><polygon points="16.29 148.87 46.76 165.79 77.23 148.2 46.08 130.75 16.29 148.87"/></g><polygon class="cls-104" points="26.78 124.86 26.85 148.04 47.45 160.01 47.38 136.82 26.78 124.86"/><polygon class="cls-105" points="26.78 124.86 26.85 148.04 47.45 160.01 47.38 136.82 26.78 124.86"/><polygon class="cls-106" points="35.1 129.74 35.11 134.25 39.12 136.59 39.11 132.07 35.1 129.74"/><polygon class="cls-107" points="47.38 136.82 47.45 160.01 68.17 148.04 68.11 124.86 47.38 136.82"/><polygon class="cls-108" points="26.78 124.86 47.38 136.82 68.11 124.86 47.51 112.89 26.78 124.86"/><polygon class="cls-109" points="68.17 148.04 47.38 136.82 68.11 124.86 68.17 148.04"/><polygon class="cls-110" points="47.38 136.82 54.61 143.25 74.67 131.15 68.11 124.86 47.38 136.82"/><polygon class="cls-111" points="68.11 124.86 73.6 121.68 53.03 109.44 47.51 112.89 68.11 124.86"/><polygon class="cls-110" points="47.51 112.89 41.47 106.48 21.04 118.18 26.78 124.86 47.51 112.89"/><polygon class="cls-111" points="47.38 136.82 41.87 142.44 21.04 130.7 26.78 124.86 47.38 136.82"/></svg>