<?xml version="1.0" encoding="iso-8859-1"?>
<!-- Generator: Adobe Illustrator 19.1.0, SVG Export Plug-In . SVG Version: 6.00 Build 0)  -->
<svg version="1.1" id="Capa_1" xmlns="http://www.w3.org/2000/svg" xmlns:xlink="http://www.w3.org/1999/xlink" x="0px" y="0px"
	 viewBox="0 0 422.422 422.422" style="enable-background:new 0 0 422.422 422.422;" xml:space="preserve">
<g>
	<circle style="fill:#AFEBFF;" cx="209.309" cy="211.211" r="209.309"/>
	<path style="fill:#E2F8FF;" d="M65.114,81.95c7.077,8.753,20.916,22.336,39.03,22.996c0.462,0.017,0.924,0.026,1.385,0.026
		c13.97,0,27.381-7.734,39.955-23.022c7.078,8.753,20.918,22.336,39.033,22.996c0.462,0.017,0.923,0.026,1.385,0.026
		c13.969,0,27.379-7.734,39.955-23.022c7.078,8.753,20.918,22.336,39.032,22.996c0.463,0.017,0.923,0.026,1.385,0.026
		c15.939,0,31.149-10.065,45.222-29.933c1.852-2.614,1.233-6.232-1.379-8.084c-2.617-1.852-6.231-1.232-8.083,1.379
		c-11.773,16.622-23.809,25.04-35.792,25.04c-0.297,0-0.592-0.004-0.89-0.015c-16.204-0.564-28.915-16.284-33.22-22.335
		c-0.184-1.579-0.989-3.078-2.387-4.069c-1.111-0.787-2.404-1.102-3.666-1.033c-1.177-0.1-2.394,0.141-3.484,0.803
		c-1.507,0.911-2.427,2.404-2.694,4.016c-11.212,15.018-22.645,22.633-34.031,22.633c-0.296,0-0.592-0.004-0.891-0.015
		c-16.203-0.564-28.913-16.284-33.219-22.335c-0.183-1.579-0.989-3.078-2.388-4.069c-1.114-0.787-2.405-1.102-3.666-1.033
		c-1.178-0.1-2.394,0.141-3.484,0.803c-1.508,0.911-2.428,2.404-2.695,4.016c-11.211,15.018-22.645,22.633-34.03,22.633
		c-0.297,0-0.593-0.004-0.892-0.015c-16.202-0.564-28.911-16.284-33.219-22.335c-0.181-1.579-0.988-3.078-2.386-4.069
		c-1.113-0.787-2.404-1.102-3.665-1.033c-1.178-0.1-2.397,0.141-3.484,0.803c-1.51,0.911-2.427,2.404-2.696,4.016
		c-6.692,8.963-13.46,15.267-20.255,18.911c-3.484,4.877-6.757,9.917-9.822,15.091C41.639,103.428,53.718,95.801,65.114,81.95z"/>
	<path style="fill:#E2F8FF;" d="M407.302,252.212c-0.297,0-0.593-0.004-0.891-0.015c-16.203-0.565-28.914-16.284-33.22-22.336
		c-0.183-1.579-0.988-3.078-2.388-4.069c-1.111-0.787-2.404-1.102-3.665-1.033c-1.177-0.1-2.395,0.141-3.484,0.802
		c-1.508,0.912-2.427,2.405-2.696,4.017c-11.211,15.018-22.643,22.633-34.03,22.633c-0.297,0-0.592-0.004-0.89-0.015
		c-16.204-0.565-28.915-16.284-33.22-22.336c-0.184-1.579-0.989-3.078-2.387-4.069c-1.113-0.787-2.404-1.102-3.666-1.033
		c-1.177-0.1-2.394,0.141-3.484,0.802c-1.507,0.912-2.427,2.405-2.694,4.017c-11.212,15.018-22.645,22.633-34.031,22.633
		c-0.296,0-0.592-0.004-0.891-0.015c-16.203-0.565-28.913-16.284-33.219-22.336c-0.183-1.579-0.989-3.078-2.388-4.069
		c-1.114-0.787-2.405-1.102-3.665-1.033c-1.179-0.1-2.395,0.141-3.485,0.802c-1.508,0.912-2.427,2.405-2.695,4.017
		c-11.211,15.018-22.645,22.633-34.03,22.633c-0.297,0-0.593-0.004-0.891-0.015c-19.91-0.693-34.552-24.274-34.798-24.676
		c-1.657-2.736-5.218-3.62-7.958-1.959c-2.741,1.656-3.62,5.219-1.963,7.961c0.721,1.195,18,29.305,44.256,30.26
		c0.463,0.017,0.923,0.027,1.385,0.027c13.97,0,27.381-7.734,39.955-23.022c7.078,8.754,20.918,22.337,39.033,22.995
		c0.462,0.017,0.923,0.027,1.385,0.027c13.969,0,27.379-7.734,39.955-23.022c7.078,8.754,20.918,22.337,39.032,22.995
		c0.463,0.017,0.923,0.027,1.385,0.027c13.97,0,27.38-7.734,39.956-23.022c7.077,8.754,20.917,22.337,39.031,22.995
		c0.463,0.017,0.923,0.027,1.385,0.027c1.576,0,3.142-0.126,4.704-0.322c1.049-4.084,1.964-8.22,2.771-12.394
		C412.305,251.823,409.802,252.212,407.302,252.212z"/>
	<path style="fill:#00B5AE;" d="M171.315,325.136c0,12.754-10.338,23.094-23.091,23.094H97.777
		c-12.753,0-23.092-10.339-23.092-23.094l0,0c0-12.753,10.339-23.092,23.092-23.092h50.447
		C160.977,302.044,171.315,312.383,171.315,325.136L171.315,325.136z"/>
	<path style="fill:#E96660;" d="M267.948,325.136c0,12.754-10.338,23.094-23.093,23.094h-50.445
		c-12.754,0-23.094-10.339-23.094-23.094l0,0c0-12.753,10.34-23.092,23.094-23.092h50.445
		C257.61,302.044,267.948,312.383,267.948,325.136L267.948,325.136z"/>
	<path style="fill:#00B5AE;" d="M364.581,325.136c0,12.754-10.339,23.094-23.094,23.094h-50.444
		c-12.755,0-23.095-10.339-23.095-23.094l0,0c0-12.753,10.34-23.092,23.095-23.092h50.444
		C354.242,302.044,364.581,312.383,364.581,325.136L364.581,325.136z"/>
	<path style="fill:#00B5AE;" d="M179.863,40.581c0,7.774-6.3,14.074-14.072,14.074h-30.743c-7.772,0-14.073-6.3-14.073-14.074l0,0
		c0-7.773,6.301-14.073,14.073-14.073h30.743C173.563,26.508,179.863,32.808,179.863,40.581L179.863,40.581z"/>
	<path style="fill:#E96660;" d="M238.753,40.581c0,7.774-6.3,14.074-14.074,14.074h-30.742c-7.775,0-14.075-6.3-14.075-14.074l0,0
		c0-7.773,6.3-14.073,14.075-14.073h30.742C232.453,26.508,238.753,32.808,238.753,40.581L238.753,40.581z"/>
	<path style="fill:#00B5AE;" d="M297.642,40.581c0,7.774-6.3,14.074-14.075,14.074h-30.741c-7.772,0-14.074-6.3-14.074-14.074l0,0
		c0-7.773,6.302-14.073,14.074-14.073h30.741C291.342,26.508,297.642,32.808,297.642,40.581L297.642,40.581z"/>
	<path style="fill:#E96660;" d="M74.685,325.136c0-12.753-10.338-23.092-23.091-23.092H20.686
		c8.084,16.758,18.336,32.276,30.39,46.185h0.518C64.347,348.229,74.685,337.89,74.685,325.136z"/>
	<path style="fill:#E96660;" d="M387.675,302.044c-12.755,0-23.094,10.339-23.094,23.092c0,6.883,3.027,13.045,7.804,17.275
		c9.971-12.378,18.572-25.906,25.549-40.367H387.675z"/>
	<path style="fill:#E96660;" d="M106.902,54.655c7.773,0,14.074-6.3,14.074-14.074c0-6.68-4.658-12.259-10.901-13.699
		C96.147,34.396,83.17,43.446,71.366,53.8c1.497,0.543,3.108,0.855,4.793,0.855H106.902z"/>
	<path style="fill:#E96660;" d="M297.642,40.581c0,7.774,6.302,14.074,14.074,14.074h30.741c1.687,0,3.297-0.311,4.796-0.855
		c-11.805-10.354-24.781-19.404-38.71-26.919C302.302,28.32,297.642,33.901,297.642,40.581z"/>
	<path style="fill:#E2F8FF;" d="M107.831,388.106c13.969,0,27.38-7.734,39.955-23.022c7.078,8.754,20.918,22.337,39.032,22.996
		c0.463,0.017,0.923,0.026,1.385,0.026c15.939,0,31.149-10.065,45.223-29.934c1.852-2.614,1.233-6.232-1.38-8.084
		c-2.617-1.851-6.231-1.232-8.082,1.38c-11.774,16.622-23.81,25.039-35.793,25.039c-0.296,0-0.591-0.003-0.89-0.015
		c-16.204-0.564-28.915-16.284-33.219-22.335c-0.184-1.58-0.99-3.078-2.388-4.07c-1.112-0.787-2.405-1.102-3.667-1.032
		c-1.177-0.1-2.394,0.142-3.484,0.802c-1.507,0.912-2.427,2.404-2.694,4.016c-11.211,15.018-22.645,22.633-34.031,22.633
		c-0.296,0-0.592-0.003-0.891-0.015c-16.203-0.564-28.913-16.284-33.217-22.335c-0.185-1.58-0.988-3.078-2.389-4.07
		c-1.114-0.787-2.405-1.102-3.665-1.032c-1.179-0.1-2.393,0.142-3.484,0.802c-1.507,0.912-2.428,2.404-2.696,4.016
		c-0.788,1.061-1.582,2.075-2.378,3.062c10.146,10.456,21.368,19.864,33.495,28.029c4.273,1.76,8.905,2.933,13.872,3.115
		C106.908,388.096,107.368,388.106,107.831,388.106z"/>
	<g>
		<path style="fill:#EA7053;" d="M409.763,206.168c26.611-51.103,9.902-112.463-37.326-137.052
			c-47.225-24.589-107.077-3.093-133.684,48.013L409.763,206.168z"/>
		<path style="fill:#EC8168;" d="M371.66,77.032c33.851,17.625,52.017,54.142,49.795,92.234
			c5.414-40.868-12.826-81.308-49.018-100.15c-47.225-24.589-107.077-3.093-133.684,48.013l2.868,1.492
			C269.744,72.193,326.471,53.504,371.66,77.032z"/>
		
			<rect x="254.698" y="108.016" transform="matrix(0.5295 0.8483 -0.8483 0.5295 242.2019 -205.9505)" style="fill:#505B66;" width="104.144" height="14.72"/>
		<polygon style="fill:#656F78;" points="290.258,75.198 285.44,67.305 272.954,75.101 277.849,82.943 		"/>
	</g>
	<path style="fill:#AFEBFF;" d="M412.067,212.861c2.141-2.376,4.211-4.832,6.224-7.362c-1.939-0.389-3.762-1.007-5.44-1.885
		c-0.2-0.107-0.4-0.212-0.594-0.326c-10.699-6.083-13.712-21.131-14.477-26.714c0.434-1.129,0.422-2.419-0.17-3.577
		c-0.471-0.92-1.231-1.587-2.104-1.987c-0.757-0.478-1.661-0.748-2.626-0.685c-1.334,0.085-2.477,0.764-3.228,1.752
		c-12.823,6.152-23.195,7.25-30.851,3.239c-0.197-0.102-0.397-0.211-0.593-0.321c-10.696-6.084-13.711-21.133-14.475-26.717
		c0.435-1.126,0.421-2.418-0.172-3.574c-0.471-0.924-1.228-1.588-2.103-1.987c-0.755-0.48-1.662-0.747-2.625-0.689
		c-1.336,0.084-2.478,0.765-3.229,1.755c-12.822,6.151-23.195,7.249-30.85,3.241c-0.201-0.105-0.398-0.212-0.59-0.323
		c-10.699-6.086-13.717-21.132-14.477-26.717c0.432-1.125,0.416-2.417-0.173-3.576c-0.473-0.921-1.229-1.588-2.102-1.982
		c-0.759-0.485-1.66-0.75-2.626-0.688c-1.335,0.079-2.479,0.761-3.228,1.749c-12.826,6.151-23.193,7.249-30.851,3.24
		c-0.201-0.105-0.396-0.212-0.597-0.323c-13.142-7.474-16.729-21.307-16.752-21.665c-0.15-2.424-0.859-0.152-3.287,0
		c-2.427,0.148-3.607-9.063-3.458-6.638c0.039,0.608,0.627,9.082,4.381,18.064l-4.303,4.756c8.825,5.805,19.1,17.888,25.095,27.181
		c9.67,14.99,22.643,25.96,37.628,35.33c6.662,4.166,12.964,6.999,18.756,12.127c11.768,10.425,24.759,18.515,38.88,25.3
		c11.495,5.52,20.823,12.39,33.702,11.735c8.638-0.443,16.829,2.027,23.407-4.682c3.531-3.599,4.586-6.246,4.192-8.729
		c0.145,0.08,0.29,0.162,0.439,0.24C409.847,211.977,410.944,212.442,412.067,212.861z"/>
	<path style="fill:#F4B7A9;" d="M52.611,99.421l50.432,73.333l106.265-16.12c0,0-86.202-88.122-132.343-107.579
		C42.577,77.156,17.299,115.975,6.219,160.417C27.055,139.494,52.611,99.421,52.611,99.421z"/>
	<path style="opacity:0.44;fill:#F2AA99;" d="M201.96,149.275l-98.917,15.006L52.611,90.947c0,0-22.898,35.902-43.015,57.484
		c-1.24,3.947-2.369,7.943-3.377,11.987c20.835-20.923,46.391-60.996,46.391-60.996l50.432,73.333l106.265-16.12
		C209.308,156.635,206.622,153.89,201.96,149.275z"/>
	<path style="fill:#AFEBFF;" d="M247.31,140.49c-0.165-3.194-0.439-6.395-0.804-9.607c-1.646,1.097-3.372,1.948-5.18,2.514
		c-0.217,0.066-0.432,0.133-0.65,0.19c-11.867,3.263-24.639-5.247-29.127-8.653c-0.491-1.105-1.413-2.009-2.65-2.409
		c-0.983-0.317-1.993-0.252-2.893,0.083c-0.872,0.197-1.703,0.646-2.341,1.373c-0.883,1.003-1.211,2.291-1.043,3.521
		c-4.717,13.417-11.275,21.527-19.524,24.105c-0.211,0.067-0.43,0.132-0.647,0.193c-11.866,3.261-24.639-5.249-29.128-8.656
		c-0.489-1.104-1.413-2.007-2.649-2.406c-0.987-0.321-1.992-0.254-2.892,0.082c-0.873,0.194-1.704,0.647-2.344,1.369
		c-0.885,1.005-1.211,2.293-1.042,3.524c-4.718,13.415-11.276,21.527-19.523,24.106c-0.217,0.068-0.431,0.132-0.646,0.189
		c-11.869,3.262-24.642-5.243-29.129-8.654c-0.49-1.101-1.416-2.003-2.651-2.407c-0.985-0.316-1.993-0.254-2.888,0.084
		c-0.879,0.194-1.705,0.644-2.344,1.371c-0.888,1-1.214,2.291-1.044,3.519c-4.72,13.419-11.274,21.526-19.525,24.106
		c-0.217,0.068-0.429,0.13-0.65,0.193c-14.579,4.008-26.896-3.237-27.165-3.474c-1.821-1.608-0.714,0.5-2.324,2.324
		c-1.611,1.821-8.96-3.858-7.14-2.249c0.458,0.402,6.866,5.979,15.872,9.675l0.32,6.406c10.345-2.135,26.155-0.857,36.965,1.475
		c17.437,3.762,34.367,2.346,51.589-1.625c7.657-1.765,14.117-4.218,21.838-4.688c15.693-0.949,30.6-4.415,45.382-9.602
		c12.032-4.225,23.485-5.963,32.128-15.534c5.796-6.421,13.334-10.467,13.241-19.862c-0.048-5.042-1.173-7.659-3.208-9.137
		c0.159-0.046,0.319-0.09,0.48-0.141C245.117,141.435,246.22,140.988,247.31,140.49z"/>
</g>
<g>
</g>
<g>
</g>
<g>
</g>
<g>
</g>
<g>
</g>
<g>
</g>
<g>
</g>
<g>
</g>
<g>
</g>
<g>
</g>
<g>
</g>
<g>
</g>
<g>
</g>
<g>
</g>
<g>
</g>
</svg>
