<?xml version="1.0" encoding="iso-8859-1"?>
<!-- Generator: Adobe Illustrator 19.0.0, SVG Export Plug-In . SVG Version: 6.00 Build 0)  -->
<svg xmlns="http://www.w3.org/2000/svg" xmlns:xlink="http://www.w3.org/1999/xlink" version="1.1" id="Layer_1" x="0px" y="0px" viewBox="0 0 410.68 410.68" style="enable-background:new 0 0 410.68 410.68;" xml:space="preserve" width="512" height="512">
<g>
	<g>
		<path style="fill:#454F58;" d="M124.203,237.148c1.979,1.98,4.624,15.082-5.271,24.979L4.593,376.464    c-6.123,6.124-6.123,16.144,0,22.268l7.355,7.355c6.123,6.123,16.143,6.123,22.267,0l114.339-114.34    c9.896-9.896,22.998-7.25,24.978-5.271L124.203,237.148z"/>
		
			<rect x="44.569" y="311.165" transform="matrix(0.7071 -0.7071 0.7071 0.7071 -211.8256 152.8296)" style="fill:#5C6670;" width="68" height="41.892"/>
		<path style="fill:#FF6361;" d="M39.716,341.341L4.593,376.464c-6.123,6.124-6.123,16.144,0,22.268l7.355,7.355    c6.123,6.123,16.143,6.123,22.267,0l35.123-35.124L39.716,341.341z"/>
	</g>
	<path style="fill:#A77F73;" d="M404.246,92.431c6.295-6.297,8.322-18.03,4.504-26.074l-13.797-29.061   c-3.82-8.043-13.525-17.75-21.57-21.568L344.322,1.93c-8.043-3.819-19.777-1.792-26.072,4.505L114.756,209.927   c-6.296,6.297-6.296,16.6,0,22.896l63.1,63.1c6.297,6.297,16.6,6.297,22.895,0L404.246,92.431z"/>
	<path style="fill:#7C5C5B;" d="M313.525,17.711c-0.414-1.818-0.822-3.61-1.199-5.352L299.775,24.91   c4.086,18.286,7.373,38.393-8.615,54.38c-13.68,13.682-30.959,13.476-49.259,13.25c-3.234-0.04-6.489-0.079-9.728-0.029   l-17.23,17.229c7.414-2.424,16.625-2.322,26.776-2.201c19.647,0.24,41.897,0.508,60.048-17.642   C324.75,66.914,318.264,38.476,313.525,17.711z M272.16,182.581c-20.66,20.552-20.648,42.222-20.639,59.634   c0.001,0.993,0,1.971-0.003,2.942l15.238-15.238c0.731-12.446,3.733-24.518,15.981-36.703   c12.977-12.907,24.691-15.143,38.131-17.409l20.041-20.039c-7.309,2.682-14.322,3.865-21.512,5.075   C304.379,163.37,288.848,165.982,272.16,182.581z"/>
</g>















</svg>
