<?xml version="1.0" encoding="iso-8859-1"?>
<!-- Generator: Adobe Illustrator 19.1.0, SVG Export Plug-In . SVG Version: 6.00 Build 0)  -->
<svg version="1.1" id="Capa_1" xmlns="http://www.w3.org/2000/svg" xmlns:xlink="http://www.w3.org/1999/xlink" x="0px" y="0px"
	 viewBox="0 0 437.438 437.438" style="enable-background:new 0 0 437.438 437.438;" xml:space="preserve">
<g>
	<circle style="fill:#9FBE5B;" cx="218.719" cy="229.529" r="207.909"/>
	<path style="fill:#EB7B61;" d="M218.72,21.619c-78.658,0-147.106,43.683-182.427,108.111h364.853
		C365.824,65.302,297.378,21.619,218.72,21.619z"/>
	<path style="fill:#9FBE5B;" d="M381.514,342.145c-11.767-0.109-23.538-0.147-35.306-0.151c-0.061,0-0.122,0-0.184,0v0.002
		c-27.749-0.006-55.503,0.275-83.261,0.914c-39.589,0.999-79.186,2.46-118.798,5.75c39.543,4.049,79.103,6.265,118.666,8.022
		c27.739,1.167,55.481,1.98,83.227,2.505c0,0,0.014,0,0.019,0c11.645,0.219,23.296,0.403,34.944,0.518
		c4.482-5.575,8.687-11.379,12.584-17.405C389.442,342.249,385.479,342.183,381.514,342.145z"/>
	<path style="opacity:0.29;fill:#758C43;" d="M381.514,342.145c-11.767-0.109-23.538-0.147-35.306-0.151c-0.061,0-0.122,0-0.184,0
		v0.002c-27.749-0.006-55.503,0.275-83.261,0.914c-39.589,0.999-79.186,2.46-118.798,5.75c39.543,4.049,79.103,6.265,118.666,8.022
		c27.739,1.167,55.481,1.98,83.227,2.505c0,0,0.014,0,0.019,0c11.645,0.219,23.296,0.403,34.944,0.518
		c4.482-5.575,8.687-11.379,12.584-17.405C389.442,342.249,385.479,342.183,381.514,342.145z"/>
	<ellipse style="fill:#FFFFFF;" cx="143.966" cy="349.447" rx="5.255" ry="1.491"/>
	<g>
		<path style="fill:#B6A875;" d="M143.966,349.447c11.848-30.47,25.043-60.265,38.577-89.893
			c13.599-29.595,27.704-58.935,42.245-88.06c14.536-29.126,29.527-58.025,45.022-86.673C285.367,56.206,301.272,27.763,318.537,0
			c-11.83,30.479-25.021,60.276-38.559,89.902c-13.599,29.593-27.705,58.935-42.263,88.05
			c-14.556,29.117-29.544,58.018-45.039,86.664C177.115,293.231,161.215,321.676,143.966,349.447z"/>
		<path style="opacity:0.42;fill:#EA7053;" d="M143.966,349.447c11.848-30.47,25.043-60.265,38.577-89.893
			c13.599-29.595,27.704-58.935,42.245-88.06c14.536-29.126,29.527-58.025,45.022-86.673C285.367,56.206,301.272,27.763,318.537,0
			c-11.83,30.479-25.021,60.276-38.559,89.902c-13.599,29.593-27.705,58.935-42.263,88.05
			c-14.556,29.117-29.544,58.018-45.039,86.664C177.115,293.231,161.215,321.676,143.966,349.447z"/>
		<path style="fill:#F9D363;" d="M224.788,171.495c-4.344,8.706-8.641,17.437-12.906,26.181l12.651,6.321
			c4.43-8.664,8.831-17.341,13.183-26.044c4.352-8.702,8.647-17.43,12.918-26.175l-12.674-6.331
			C233.533,154.112,229.134,162.79,224.788,171.495z"/>
	</g>
	<path style="opacity:0.25;fill:#EA7053;" d="M305.846,20.912c-9.552,23.251-19.764,46.172-30.189,68.987
		c-9.535,20.747-19.333,41.365-29.345,61.875c-0.014,0.026-0.024,0.05-0.037,0.076c-4.257,8.718-8.542,17.424-12.881,26.099
		c-4.338,8.679-8.73,17.334-13.147,25.973c-0.012,0.024-0.025,0.047-0.036,0.071c-9.689,21.067-19.549,42.073-31.856,60.621
		c-13.484,20.323-23.494,42.756-35.95,63.781c-2.876,6.987-5.695,14-8.439,21.053c17.249-27.772,33.149-56.217,48.71-84.831
		c10.864-20.084,21.466-40.3,31.856-60.62c0.012-0.023,0.023-0.046,0.034-0.071c4.419-8.639,8.81-17.294,13.149-25.973
		c4.339-8.676,8.623-17.382,12.881-26.099c0.012-0.025,0.024-0.05,0.037-0.076c10.014-20.51,19.811-41.128,29.345-61.876
		C293.516,60.276,306.707,30.479,318.537,0C314.228,6.93,310.002,13.905,305.846,20.912z"/>
</g>
<g>
</g>
<g>
</g>
<g>
</g>
<g>
</g>
<g>
</g>
<g>
</g>
<g>
</g>
<g>
</g>
<g>
</g>
<g>
</g>
<g>
</g>
<g>
</g>
<g>
</g>
<g>
</g>
<g>
</g>
</svg>
