<?xml version="1.0" encoding="iso-8859-1"?>
<!-- Generator: Adobe Illustrator 19.0.0, SVG Export Plug-In . SVG Version: 6.00 Build 0)  -->
<svg version="1.1" id="Layer_1" xmlns="http://www.w3.org/2000/svg" xmlns:xlink="http://www.w3.org/1999/xlink" x="0px" y="0px"
	 viewBox="0 0 448 448" style="enable-background:new 0 0 448 448;" xml:space="preserve">
<g transform="translate(0 -1020.36)" shape-rendering="auto" image-rendering="auto" color-rendering="auto" color-interpolation="sRGB">
	<path style="fill:#29A3EC;" d="M15.954,1116.329h415.984v255.943H15.954V1116.329z"/>
	<path style="fill:#3CDEF6;" d="M25.946,1128.299h396v232h-396C25.946,1360.299,25.946,1128.299,25.946,1128.299z"/>
	<g>
		<path style="fill:#FFFFFF;" d="M216.033,1108.296v272.008h15.945v-272.008H216.033z"/>
		<path style="fill:#FFFFFF;" d="M4.025,1148.337v15.943h439.961v-15.943H4.025L4.025,1148.337z"/>
		<path style="fill:#FFFFFF;" d="M4.025,1324.321v16.063h439.961v-16.063H4.025L4.025,1324.321z"/>
		<path style="fill:#FFFFFF;" d="M39.93,1152.352v184.014h16.063v-184.014H39.93z"/>
		<path style="fill:#FFFFFF;" d="M79.97,1152.352v184.014h16.063v-184.014C96.033,1152.352,79.97,1152.352,79.97,1152.352z"/>
		<path style="fill:#FFFFFF;" d="M392.017,1152.352v184.014h15.945v-184.014H392.017z"/>
		<path style="fill:#FFFFFF;" d="M351.978,1152.352v184.014h16.063v-184.014H351.978z"/>
	</g>
	<path style="fill:#5A3392;" d="M0,1100.376v287.969h448v-8.031v-279.938H0z M15.969,1116.313h415.969v255.969H15.969
		L15.969,1116.313L15.969,1116.313z"/>
</g>
<g>
</g>
<g>
</g>
<g>
</g>
<g>
</g>
<g>
</g>
<g>
</g>
<g>
</g>
<g>
</g>
<g>
</g>
<g>
</g>
<g>
</g>
<g>
</g>
<g>
</g>
<g>
</g>
<g>
</g>
</svg>
