<?xml version="1.0" encoding="iso-8859-1"?>
<!-- Generator: Adobe Illustrator 19.1.0, SVG Export Plug-In . SVG Version: 6.00 Build 0)  -->
<svg version="1.1" id="Capa_1" xmlns="http://www.w3.org/2000/svg" xmlns:xlink="http://www.w3.org/1999/xlink" x="0px" y="0px"
	 viewBox="0 0 474.856 474.856" style="enable-background:new 0 0 474.856 474.856;" xml:space="preserve">
<g>
	<path style="opacity:0.67;fill:#EA7053;" d="M474.856,237.432c0-114.602-92.903-207.506-207.506-207.506
		c-114.604,0-207.506,92.903-207.506,207.506c0,114.595,92.901,207.499,207.506,207.499
		C381.953,444.93,474.856,352.027,474.856,237.432z"/>
	<path style="opacity:0.67;fill:#EA7053;" d="M474.856,237.432c0-114.602-92.903-207.506-207.506-207.506
		c-114.604,0-207.506,92.903-207.506,207.506c0,114.595,92.901,207.499,207.506,207.499
		C381.953,444.93,474.856,352.027,474.856,237.432z"/>
	<path style="opacity:0.91;fill:#EA7053;" d="M403.303,377.641c0,5.533-24.381,10.02-54.456,10.02
		c-30.076,0-54.457-4.487-54.457-10.02c0-5.537,24.382-10.024,54.457-10.024C378.922,367.618,403.303,372.104,403.303,377.641z"/>
	<path style="fill:#F5ECE1;" d="M474.218,221.086H60.483c-0.42,5.394-0.639,10.844-0.639,16.346c0,5.499,0.218,10.947,0.638,16.339
		h413.735c0.42-5.392,0.638-10.84,0.638-16.339C474.856,231.93,474.638,226.479,474.218,221.086z"/>
	<path style="fill:#F4B7A9;" d="M343.479,375.856c-0.355-0.081-0.716-0.165-1.075-0.248
		C342.764,375.691,343.123,375.776,343.479,375.856z"/>
	<path style="fill:#F4B7A9;" d="M292.244,355.656c-0.209-0.142-0.42-0.282-0.623-0.424
		C291.824,355.374,292.035,355.514,292.244,355.656z"/>
	<path style="fill:#F4B7A9;" d="M289.802,353.897c-0.018-0.013-0.036-0.028-0.054-0.041
		C289.765,353.869,289.784,353.884,289.802,353.897z"/>
	<path style="fill:#F4B7A9;" d="M296.854,358.517c-0.075-0.041-0.153-0.087-0.228-0.13
		C296.7,358.431,296.778,358.476,296.854,358.517z"/>
	<path style="fill:#F4B7A9;" d="M330.235,372.299c-0.388-0.12-0.776-0.237-1.167-0.36
		C329.459,372.062,329.846,372.18,330.235,372.299z"/>
	<path style="fill:#F4B7A9;" d="M322.878,369.895c-0.382-0.133-0.763-0.268-1.145-0.402
		C322.115,369.627,322.495,369.762,322.878,369.895z"/>
	<path style="fill:#F4B7A9;" d="M340.499,375.151c-0.367-0.09-0.734-0.18-1.103-0.274
		C339.766,374.971,340.131,375.061,340.499,375.151z"/>
	<path style="fill:#F4B7A9;" d="M294.43,357.076c-0.231-0.142-0.453-0.286-0.677-0.428
		C293.978,356.79,294.199,356.934,294.43,357.076z"/>
	<path style="fill:#F4B7A9;" d="M333.431,373.255c-0.38-0.111-0.762-0.224-1.144-0.336
		C332.668,373.031,333.051,373.144,333.431,373.255z"/>
	<path style="fill:#F4B7A9;" d="M326.479,371.109c-0.289-0.095-0.578-0.188-0.867-0.284
		C325.901,370.921,326.189,371.014,326.479,371.109z"/>
	<path style="fill:#F4B7A9;" d="M352.376,377.511c-0.298-0.041-0.606-0.088-0.912-0.134
		C351.77,377.422,352.078,377.469,352.376,377.511z"/>
	<path style="fill:#F4B7A9;" d="M286.714,351.124c-0.126-0.133-0.256-0.268-0.374-0.399
		C286.458,350.857,286.588,350.992,286.714,351.124z"/>
	<path style="fill:#F4B7A9;" d="M288.148,352.514c-0.152-0.135-0.293-0.27-0.438-0.404
		C287.855,352.245,287.995,352.38,288.148,352.514z"/>
	<path style="fill:#F4B7A9;" d="M336.917,374.229c-0.264-0.071-0.528-0.141-0.793-0.213
		C336.39,374.088,336.652,374.157,336.917,374.229z"/>
	<path style="fill:#F4B7A9;" d="M319.636,368.739c-0.377-0.139-0.754-0.276-1.129-0.414
		C318.883,368.463,319.259,368.6,319.636,368.739z"/>
	<path style="fill:#F4B7A9;" d="M312.436,365.955c-0.355-0.145-0.705-0.293-1.057-0.441
		C311.732,365.662,312.082,365.81,312.436,365.955z"/>
	<path style="fill:#F4B7A9;" d="M302.739,361.619c-0.301-0.148-0.593-0.296-0.888-0.443
		C302.145,361.323,302.438,361.471,302.739,361.619z"/>
	<path style="fill:#F4B7A9;" d="M309.351,364.653c-0.343-0.147-0.686-0.295-1.026-0.443
		C308.664,364.359,309.008,364.507,309.351,364.653z"/>
	<path style="fill:#F4B7A9;" d="M346.671,376.536c-0.255-0.051-0.508-0.102-0.765-0.156
		C346.163,376.434,346.416,376.484,346.671,376.536z"/>
	<path style="fill:#F4B7A9;" d="M305.748,363.05c-0.145-0.065-0.29-0.133-0.434-0.2C305.458,362.917,305.603,362.985,305.748,363.05
		z"/>
	<path style="fill:#F4B7A9;" d="M299.997,360.227c-0.28-0.146-0.561-0.292-0.836-0.44
		C299.436,359.935,299.718,360.081,299.997,360.227z"/>
	<path style="fill:#F4B7A9;" d="M349.816,377.113c-0.322-0.054-0.642-0.107-0.971-0.166
		C349.174,377.007,349.494,377.059,349.816,377.113z"/>
	<path style="fill:#F4B7A9;" d="M315.831,367.307c-0.215-0.082-0.43-0.164-0.644-0.248
		C315.401,367.143,315.616,367.224,315.831,367.307z"/>
	<path style="opacity:0.67;fill:#EA7053;" d="M348.846,376.947c-0.71-0.128-1.436-0.266-2.175-0.411
		C347.41,376.681,348.135,376.82,348.846,376.947z"/>
	<path style="opacity:0.44;fill:#F2AA99;" d="M348.846,376.947c-0.71-0.128-1.436-0.266-2.175-0.411
		C347.41,376.681,348.135,376.82,348.846,376.947z"/>
	<path style="opacity:0.67;fill:#EA7053;" d="M336.124,374.015c-0.891-0.245-1.789-0.498-2.694-0.76
		C334.335,373.518,335.234,373.77,336.124,374.015z"/>
	<path style="opacity:0.44;fill:#F2AA99;" d="M336.124,374.015c-0.891-0.245-1.789-0.498-2.694-0.76
		C334.335,373.518,335.234,373.77,336.124,374.015z"/>
	<path style="opacity:0.67;fill:#EA7053;" d="M342.403,375.608c-0.629-0.146-1.264-0.3-1.904-0.457
		C341.141,375.308,341.775,375.462,342.403,375.608z"/>
	<path style="opacity:0.44;fill:#F2AA99;" d="M342.403,375.608c-0.629-0.146-1.264-0.3-1.904-0.457
		C341.141,375.308,341.775,375.462,342.403,375.608z"/>
	<path style="opacity:0.67;fill:#EA7053;" d="M351.465,377.377c-0.54-0.081-1.089-0.168-1.648-0.263
		C350.376,377.209,350.925,377.295,351.465,377.377z"/>
	<path style="opacity:0.44;fill:#F2AA99;" d="M351.465,377.377c-0.54-0.081-1.089-0.168-1.648-0.263
		C350.376,377.209,350.925,377.295,351.465,377.377z"/>
	<path style="opacity:0.67;fill:#EA7053;" d="M339.396,374.877c-0.819-0.207-1.646-0.424-2.479-0.649
		C337.751,374.453,338.577,374.67,339.396,374.877z"/>
	<path style="opacity:0.44;fill:#F2AA99;" d="M339.396,374.877c-0.819-0.207-1.646-0.424-2.479-0.649
		C337.751,374.453,338.577,374.67,339.396,374.877z"/>
	<path style="opacity:0.67;fill:#EA7053;" d="M332.287,372.919c-0.682-0.203-1.366-0.408-2.051-0.62
		C330.922,372.511,331.605,372.716,332.287,372.919z"/>
	<path style="opacity:0.44;fill:#F2AA99;" d="M332.287,372.919c-0.682-0.203-1.366-0.408-2.051-0.62
		C330.922,372.511,331.605,372.716,332.287,372.919z"/>
	<path style="opacity:0.67;fill:#EA7053;" d="M345.906,376.38c-0.796-0.163-1.606-0.339-2.427-0.524
		C344.3,376.041,345.11,376.217,345.906,376.38z"/>
	<path style="opacity:0.44;fill:#F2AA99;" d="M345.906,376.38c-0.796-0.163-1.606-0.339-2.427-0.524
		C344.3,376.041,345.11,376.217,345.906,376.38z"/>
	<path style="opacity:0.67;fill:#EA7053;" d="M315.187,367.058c-0.925-0.363-1.841-0.731-2.751-1.103
		C313.346,366.327,314.262,366.695,315.187,367.058z"/>
	<path style="opacity:0.44;fill:#F2AA99;" d="M315.187,367.058c-0.925-0.363-1.841-0.731-2.751-1.103
		C313.346,366.327,314.262,366.695,315.187,367.058z"/>
	<path style="opacity:0.67;fill:#EA7053;" d="M305.314,362.85c-0.876-0.405-1.733-0.818-2.575-1.231
		C303.581,362.032,304.439,362.445,305.314,362.85z"/>
	<path style="opacity:0.44;fill:#F2AA99;" d="M305.314,362.85c-0.876-0.405-1.733-0.818-2.575-1.231
		C303.581,362.032,304.439,362.445,305.314,362.85z"/>
	<path style="opacity:0.67;fill:#EA7053;" d="M301.851,361.175c-0.629-0.314-1.247-0.631-1.853-0.948
		C300.604,360.545,301.221,360.862,301.851,361.175z"/>
	<path style="opacity:0.44;fill:#F2AA99;" d="M301.851,361.175c-0.629-0.314-1.247-0.631-1.853-0.948
		C300.604,360.545,301.221,360.862,301.851,361.175z"/>
	<path style="opacity:0.67;fill:#EA7053;" d="M299.161,359.787c-0.79-0.421-1.562-0.844-2.307-1.27
		C297.599,358.944,298.371,359.366,299.161,359.787z"/>
	<path style="opacity:0.44;fill:#F2AA99;" d="M299.161,359.787c-0.79-0.421-1.562-0.844-2.307-1.27
		C297.599,358.944,298.371,359.366,299.161,359.787z"/>
	<path style="opacity:0.67;fill:#EA7053;" d="M296.625,358.387c-0.759-0.435-1.488-0.873-2.196-1.312
		C295.138,357.514,295.865,357.952,296.625,358.387z"/>
	<path style="opacity:0.44;fill:#F2AA99;" d="M296.625,358.387c-0.759-0.435-1.488-0.873-2.196-1.312
		C295.138,357.514,295.865,357.952,296.625,358.387z"/>
	<path style="opacity:0.67;fill:#EA7053;" d="M354.45,377.767c-0.669-0.071-1.361-0.158-2.073-0.256
		C353.089,377.609,353.781,377.696,354.45,377.767z"/>
	<path style="opacity:0.44;fill:#F2AA99;" d="M354.45,377.767c-0.669-0.071-1.361-0.158-2.073-0.256
		C353.089,377.609,353.781,377.696,354.45,377.767z"/>
	<path style="opacity:0.67;fill:#EA7053;" d="M318.507,368.325c-0.896-0.334-1.789-0.673-2.676-1.018
		C316.718,367.652,317.611,367.991,318.507,368.325z"/>
	<path style="opacity:0.44;fill:#F2AA99;" d="M318.507,368.325c-0.896-0.334-1.789-0.673-2.676-1.018
		C316.718,367.652,317.611,367.991,318.507,368.325z"/>
	<path style="opacity:0.67;fill:#EA7053;" d="M308.324,364.211c-0.871-0.384-1.731-0.769-2.576-1.161
		C306.593,363.441,307.454,363.827,308.324,364.211z"/>
	<path style="opacity:0.44;fill:#F2AA99;" d="M308.324,364.211c-0.871-0.384-1.731-0.769-2.576-1.161
		C306.593,363.441,307.454,363.827,308.324,364.211z"/>
	<path style="opacity:0.67;fill:#EA7053;" d="M311.379,365.514c-0.682-0.284-1.358-0.57-2.028-0.861
		C310.021,364.944,310.697,365.231,311.379,365.514z"/>
	<path style="opacity:0.44;fill:#F2AA99;" d="M311.379,365.514c-0.682-0.284-1.358-0.57-2.028-0.861
		C310.021,364.944,310.697,365.231,311.379,365.514z"/>
	<path style="opacity:0.67;fill:#EA7053;" d="M293.752,356.647c-0.519-0.331-1.022-0.66-1.509-0.992
		C292.73,355.987,293.232,356.316,293.752,356.647z"/>
	<path style="opacity:0.44;fill:#F2AA99;" d="M293.752,356.647c-0.519-0.331-1.022-0.66-1.509-0.992
		C292.73,355.987,293.232,356.316,293.752,356.647z"/>
	<path style="opacity:0.67;fill:#EA7053;" d="M325.612,370.825c-0.911-0.304-1.822-0.614-2.734-0.93
		C323.789,370.211,324.7,370.521,325.612,370.825z"/>
	<path style="opacity:0.44;fill:#F2AA99;" d="M325.612,370.825c-0.911-0.304-1.822-0.614-2.734-0.93
		C323.789,370.211,324.7,370.521,325.612,370.825z"/>
	<path style="opacity:0.67;fill:#EA7053;" d="M291.621,355.231c-0.636-0.446-1.25-0.891-1.819-1.334
		C290.37,354.34,290.984,354.786,291.621,355.231z"/>
	<path style="opacity:0.44;fill:#F2AA99;" d="M291.621,355.231c-0.636-0.446-1.25-0.891-1.819-1.334
		C290.37,354.34,290.984,354.786,291.621,355.231z"/>
	<path style="opacity:0.67;fill:#EA7053;" d="M329.069,371.939c-0.862-0.269-1.725-0.547-2.59-0.831
		C327.343,371.392,328.207,371.671,329.069,371.939z"/>
	<path style="opacity:0.44;fill:#F2AA99;" d="M329.069,371.939c-0.862-0.269-1.725-0.547-2.59-0.831
		C327.343,371.392,328.207,371.671,329.069,371.939z"/>
	<path style="opacity:0.67;fill:#EA7053;" d="M321.733,369.492c-0.701-0.248-1.4-0.5-2.097-0.753
		C320.334,368.992,321.032,369.244,321.733,369.492z"/>
	<path style="opacity:0.44;fill:#F2AA99;" d="M321.733,369.492c-0.701-0.248-1.4-0.5-2.097-0.753
		C320.334,368.992,321.032,369.244,321.733,369.492z"/>
	<path style="opacity:0.67;fill:#EA7053;" d="M287.71,352.11c-0.355-0.329-0.687-0.659-0.996-0.986
		C287.023,351.451,287.355,351.781,287.71,352.11z"/>
	<path style="opacity:0.44;fill:#F2AA99;" d="M287.71,352.11c-0.355-0.329-0.687-0.659-0.996-0.986
		C287.023,351.451,287.355,351.781,287.71,352.11z"/>
	<path style="opacity:0.67;fill:#EA7053;" d="M286.34,350.725c-0.395-0.443-0.761-0.883-1.066-1.319
		C285.579,349.842,285.945,350.283,286.34,350.725z"/>
	<path style="opacity:0.44;fill:#F2AA99;" d="M286.34,350.725c-0.395-0.443-0.761-0.883-1.066-1.319
		C285.579,349.842,285.945,350.283,286.34,350.725z"/>
	<path style="opacity:0.67;fill:#EA7053;" d="M289.748,353.856c-0.575-0.45-1.1-0.896-1.6-1.342
		C288.647,352.96,289.173,353.407,289.748,353.856z"/>
	<path style="opacity:0.44;fill:#F2AA99;" d="M289.748,353.856c-0.575-0.45-1.1-0.896-1.6-1.342
		C288.647,352.96,289.173,353.407,289.748,353.856z"/>
	<path style="fill:#F4B7A9;" d="M354.665,377.793c-0.016-0.004-0.033-0.008-0.049-0.012c-0.058-0.007-0.109-0.009-0.166-0.014
		C354.52,377.774,354.596,377.785,354.665,377.793z"/>
	<path style="fill:#F4B7A9;" d="M237.911,116.985c60.055,38.09,93.597,55.003,93.597,55.003
		c-25.547,45.104-41.853,145.613-41.853,145.613s-10.077,22.57-4.13,31.046c10.029,14.295,74.259,33.742,74.68,23.768
		c0.701-16.662-42.541-40.986-42.541-40.986c19.369-27.476,94.143-140.267,92.531-165.589
		c-1.237-19.419-74.381-97.793-109.415-133.22c-10.885-1.763-22.048-2.694-33.43-2.694c-15.396,0-30.396,1.692-44.836,4.872
		C194.203,52.089,179.881,80.177,237.911,116.985z"/>
	<path style="opacity:0.41;fill:#F89BA0;" d="M403.131,183.544c-4.137,0.22-7.859-6.5-8.314-15.011
		c-0.455-8.513,2.531-15.591,6.663-15.812c4.137-0.22,7.859,6.5,8.313,15.01C410.247,176.244,407.262,183.324,403.131,183.544z"/>
	<path style="fill:#F4B7A9;" d="M0.737,227.448c-0.033-0.363-0.065-0.732-0.096-1.099C0.672,226.717,0.703,227.084,0.737,227.448z"
		/>
	<path style="fill:#F4B7A9;" d="M4.138,172.479c0.071-0.242,0.138-0.486,0.212-0.724C4.277,171.993,4.209,172.237,4.138,172.479z"/>
	<path style="fill:#F4B7A9;" d="M5.058,169.613c0.007-0.021,0.015-0.043,0.022-0.064C5.073,169.571,5.064,169.593,5.058,169.613z"/>
	<path style="fill:#F4B7A9;" d="M2.839,177.747c0.017-0.085,0.035-0.173,0.053-0.257C2.874,177.575,2.856,177.663,2.839,177.747z"/>
	<path style="fill:#F4B7A9;" d="M0.032,213.753c-0.005-0.406-0.014-0.812-0.017-1.221C0.018,212.941,0.026,213.346,0.032,213.753z"
		/>
	<path style="fill:#F4B7A9;" d="M0.049,206.012c0.009-0.404,0.019-0.809,0.03-1.213C0.068,205.205,0.057,205.607,0.049,206.012z"/>
	<path style="fill:#F4B7A9;" d="M0.487,224.396c-0.028-0.377-0.055-0.754-0.08-1.134C0.433,223.643,0.459,224.018,0.487,224.396z"/>
	<path style="fill:#F4B7A9;" d="M3.463,174.997c0.063-0.263,0.132-0.518,0.198-0.776C3.595,174.48,3.526,174.734,3.463,174.997z"/>
	<path style="fill:#F4B7A9;" d="M0.109,217.087c-0.012-0.395-0.022-0.795-0.034-1.192C0.087,216.293,0.098,216.692,0.109,217.087z"
		/>
	<path style="fill:#F4B7A9;" d="M0.005,209.812c0.001-0.303,0.001-0.608,0.003-0.912C0.006,209.204,0.006,209.508,0.005,209.812z"/>
	<path style="fill:#F4B7A9;" d="M1.908,236.422c-0.052-0.297-0.102-0.603-0.153-0.909C1.806,235.818,1.856,236.125,1.908,236.422z"
		/>
	<path style="fill:#F4B7A9;" d="M6.742,165.822c0.087-0.161,0.176-0.326,0.264-0.48C6.918,165.495,6.829,165.66,6.742,165.822z"/>
	<path style="fill:#F4B7A9;" d="M5.862,167.614c0.081-0.187,0.166-0.362,0.249-0.541C6.028,167.252,5.943,167.427,5.862,167.614z"/>
	<path style="fill:#F4B7A9;" d="M0.26,220.704c-0.014-0.273-0.03-0.546-0.042-0.82C0.23,220.159,0.246,220.43,0.26,220.704z"/>
	<path style="fill:#F4B7A9;" d="M0.148,202.573c0.016-0.402,0.029-0.803,0.046-1.202C0.177,201.771,0.164,202.171,0.148,202.573z"/>
	<path style="fill:#F4B7A9;" d="M0.573,194.865c0.029-0.382,0.061-0.761,0.093-1.142C0.635,194.104,0.602,194.483,0.573,194.865z"/>
	<path style="fill:#F4B7A9;" d="M1.705,184.302c0.048-0.332,0.098-0.656,0.148-0.981C1.804,183.646,1.753,183.97,1.705,184.302z"/>
	<path style="fill:#F4B7A9;" d="M0.86,191.528c0.034-0.371,0.068-0.743,0.104-1.112C0.928,190.785,0.894,191.157,0.86,191.528z"/>
	<path style="fill:#F4B7A9;" d="M1.074,230.693c-0.029-0.258-0.06-0.514-0.088-0.775C1.014,230.179,1.046,230.435,1.074,230.693z"/>
	<path style="fill:#F4B7A9;" d="M1.273,187.607c0.017-0.158,0.037-0.317,0.056-0.475C1.31,187.29,1.29,187.448,1.273,187.607z"/>
	<path style="fill:#F4B7A9;" d="M2.183,181.265c0.053-0.311,0.105-0.624,0.16-0.931C2.288,180.641,2.236,180.954,2.183,181.265z"/>
	<path style="fill:#F4B7A9;" d="M1.496,233.864c-0.047-0.323-0.097-0.643-0.141-0.974C1.4,233.22,1.449,233.541,1.496,233.864z"/>
	<path style="fill:#F4B7A9;" d="M0.336,198.511c0.012-0.23,0.023-0.46,0.037-0.689C0.359,198.051,0.348,198.281,0.336,198.511z"/>
	<path style="opacity:0.67;fill:#EA7053;" d="M1.355,232.889c-0.098-0.715-0.19-1.448-0.281-2.196
		C1.165,231.441,1.257,232.174,1.355,232.889z"/>
	<path style="opacity:0.44;fill:#F2AA99;" d="M1.355,232.889c-0.098-0.715-0.19-1.448-0.281-2.196
		C1.165,231.441,1.257,232.174,1.355,232.889z"/>
	<path style="opacity:0.67;fill:#EA7053;" d="M0.217,219.884c-0.041-0.923-0.078-1.855-0.108-2.797
		C0.139,218.029,0.176,218.961,0.217,219.884z"/>
	<path style="opacity:0.44;fill:#F2AA99;" d="M0.217,219.884c-0.041-0.923-0.078-1.855-0.108-2.797
		C0.139,218.029,0.176,218.961,0.217,219.884z"/>
	<path style="opacity:0.67;fill:#EA7053;" d="M0.641,226.348c-0.055-0.643-0.105-1.295-0.153-1.952
		C0.536,225.054,0.585,225.705,0.641,226.348z"/>
	<path style="opacity:0.44;fill:#F2AA99;" d="M0.641,226.348c-0.055-0.643-0.105-1.295-0.153-1.952
		C0.536,225.054,0.585,225.705,0.641,226.348z"/>
	<path style="opacity:0.67;fill:#EA7053;" d="M1.755,235.513c-0.09-0.539-0.177-1.088-0.259-1.65
		C1.579,234.426,1.665,234.974,1.755,235.513z"/>
	<path style="opacity:0.44;fill:#F2AA99;" d="M1.755,235.513c-0.09-0.539-0.177-1.088-0.259-1.65
		C1.579,234.426,1.665,234.974,1.755,235.513z"/>
	<path style="opacity:0.67;fill:#EA7053;" d="M0.407,223.262c-0.055-0.843-0.104-1.697-0.147-2.558
		C0.303,221.566,0.352,222.419,0.407,223.262z"/>
	<path style="opacity:0.44;fill:#F2AA99;" d="M0.407,223.262c-0.055-0.843-0.104-1.697-0.147-2.558
		C0.303,221.566,0.352,222.419,0.407,223.262z"/>
	<path style="opacity:0.67;fill:#EA7053;" d="M0.075,215.895c-0.017-0.712-0.033-1.425-0.044-2.142
		C0.043,214.471,0.058,215.184,0.075,215.895z"/>
	<path style="opacity:0.44;fill:#F2AA99;" d="M0.075,215.895c-0.017-0.712-0.033-1.425-0.044-2.142
		C0.043,214.471,0.058,215.184,0.075,215.895z"/>
	<path style="opacity:0.67;fill:#EA7053;" d="M0.987,229.918c-0.091-0.807-0.174-1.632-0.25-2.47
		C0.813,228.285,0.896,229.111,0.987,229.918z"/>
	<path style="opacity:0.44;fill:#F2AA99;" d="M0.987,229.918c-0.091-0.807-0.174-1.632-0.25-2.47
		C0.813,228.285,0.896,229.111,0.987,229.918z"/>
	<path style="opacity:0.67;fill:#EA7053;" d="M0.373,197.822c0.059-0.992,0.127-1.977,0.2-2.957
		C0.5,195.845,0.433,196.829,0.373,197.822z"/>
	<path style="opacity:0.44;fill:#F2AA99;" d="M0.373,197.822c0.059-0.992,0.127-1.977,0.2-2.957
		C0.5,195.845,0.433,196.829,0.373,197.822z"/>
	<path style="opacity:0.67;fill:#EA7053;" d="M1.329,187.132c0.115-0.958,0.243-1.9,0.376-2.829
		C1.572,185.232,1.444,186.174,1.329,187.132z"/>
	<path style="opacity:0.44;fill:#F2AA99;" d="M1.329,187.132c0.115-0.958,0.243-1.9,0.376-2.829
		C1.572,185.232,1.444,186.174,1.329,187.132z"/>
	<path style="opacity:0.67;fill:#EA7053;" d="M1.853,183.321c0.104-0.696,0.215-1.381,0.33-2.056
		C2.069,181.941,1.957,182.625,1.853,183.321z"/>
	<path style="opacity:0.44;fill:#F2AA99;" d="M1.853,183.321c0.104-0.696,0.215-1.381,0.33-2.056
		C2.069,181.941,1.957,182.625,1.853,183.321z"/>
	<path style="opacity:0.67;fill:#EA7053;" d="M2.343,180.334c0.157-0.881,0.321-1.747,0.496-2.586
		C2.664,178.587,2.5,179.453,2.343,180.334z"/>
	<path style="opacity:0.44;fill:#F2AA99;" d="M2.343,180.334c0.157-0.881,0.321-1.747,0.496-2.586
		C2.664,178.587,2.5,179.453,2.343,180.334z"/>
	<path style="opacity:0.67;fill:#EA7053;" d="M2.892,177.49c0.18-0.857,0.372-1.684,0.57-2.493
		C3.264,175.806,3.072,176.632,2.892,177.49z"/>
	<path style="opacity:0.44;fill:#F2AA99;" d="M2.892,177.49c0.18-0.857,0.372-1.684,0.57-2.493
		C3.264,175.806,3.072,176.632,2.892,177.49z"/>
	<path style="opacity:0.67;fill:#EA7053;" d="M2.304,238.473c-0.138-0.658-0.27-1.344-0.396-2.051
		C2.034,237.129,2.167,237.815,2.304,238.473z"/>
	<path style="opacity:0.44;fill:#F2AA99;" d="M2.304,238.473c-0.138-0.658-0.27-1.344-0.396-2.051
		C2.034,237.129,2.167,237.815,2.304,238.473z"/>
	<path style="opacity:0.67;fill:#EA7053;" d="M0.194,201.37c0.04-0.955,0.087-1.909,0.142-2.859
		C0.281,199.461,0.234,200.415,0.194,201.37z"/>
	<path style="opacity:0.44;fill:#F2AA99;" d="M0.194,201.37c0.04-0.955,0.087-1.909,0.142-2.859
		C0.281,199.461,0.234,200.415,0.194,201.37z"/>
	<path style="opacity:0.67;fill:#EA7053;" d="M0.964,190.416c0.097-0.947,0.197-1.884,0.309-2.809
		C1.161,188.531,1.061,189.468,0.964,190.416z"/>
	<path style="opacity:0.44;fill:#F2AA99;" d="M0.964,190.416c0.097-0.947,0.197-1.884,0.309-2.809
		C1.161,188.531,1.061,189.468,0.964,190.416z"/>
	<path style="opacity:0.67;fill:#EA7053;" d="M0.666,193.723c0.059-0.736,0.123-1.468,0.193-2.195
		C0.79,192.255,0.726,192.987,0.666,193.723z"/>
	<path style="opacity:0.44;fill:#F2AA99;" d="M0.666,193.723c0.059-0.736,0.123-1.468,0.193-2.195
		C0.79,192.255,0.726,192.987,0.666,193.723z"/>
	<path style="opacity:0.67;fill:#EA7053;" d="M3.661,174.22c0.155-0.596,0.312-1.176,0.478-1.741
		C3.973,173.044,3.815,173.624,3.661,174.22z"/>
	<path style="opacity:0.44;fill:#F2AA99;" d="M3.661,174.22c0.155-0.596,0.312-1.176,0.478-1.741
		C3.973,173.044,3.815,173.624,3.661,174.22z"/>
	<path style="opacity:0.67;fill:#EA7053;" d="M0.008,208.9c0.008-0.961,0.021-1.923,0.041-2.888
		C0.029,206.977,0.016,207.94,0.008,208.9z"/>
	<path style="opacity:0.44;fill:#F2AA99;" d="M0.008,208.9c0.008-0.961,0.021-1.923,0.041-2.888
		C0.029,206.977,0.016,207.94,0.008,208.9z"/>
	<path style="opacity:0.67;fill:#EA7053;" d="M4.35,171.755c0.227-0.743,0.462-1.464,0.708-2.142
		C4.812,170.291,4.577,171.013,4.35,171.755z"/>
	<path style="opacity:0.44;fill:#F2AA99;" d="M4.35,171.755c0.227-0.743,0.462-1.464,0.708-2.142
		C4.812,170.291,4.577,171.013,4.35,171.755z"/>
	<path style="opacity:0.67;fill:#EA7053;" d="M0.015,212.532c-0.012-0.903-0.013-1.81-0.01-2.72
		C0.003,210.722,0.004,211.629,0.015,212.532z"/>
	<path style="opacity:0.44;fill:#F2AA99;" d="M0.015,212.532c-0.012-0.903-0.013-1.81-0.01-2.72
		C0.003,210.722,0.004,211.629,0.015,212.532z"/>
	<path style="opacity:0.67;fill:#EA7053;" d="M0.079,204.799c0.02-0.743,0.043-1.486,0.069-2.227
		C0.122,203.315,0.098,204.056,0.079,204.799z"/>
	<path style="opacity:0.44;fill:#F2AA99;" d="M0.079,204.799c0.02-0.743,0.043-1.486,0.069-2.227
		C0.122,203.315,0.098,204.056,0.079,204.799z"/>
	<path style="opacity:0.67;fill:#EA7053;" d="M6.112,167.073c0.203-0.439,0.414-0.857,0.63-1.251
		C6.526,166.216,6.315,166.634,6.112,167.073z"/>
	<path style="opacity:0.44;fill:#F2AA99;" d="M6.112,167.073c0.203-0.439,0.414-0.857,0.63-1.251
		C6.526,166.216,6.315,166.634,6.112,167.073z"/>
	<path style="opacity:0.67;fill:#EA7053;" d="M7.006,165.342c0.299-0.511,0.605-0.997,0.925-1.421
		C7.611,164.345,7.306,164.83,7.006,165.342z"/>
	<path style="opacity:0.44;fill:#F2AA99;" d="M7.006,165.342c0.299-0.511,0.605-0.997,0.925-1.421
		C7.611,164.345,7.306,164.83,7.006,165.342z"/>
	<path style="opacity:0.67;fill:#EA7053;" d="M5.08,169.55c0.25-0.685,0.513-1.323,0.783-1.936
		C5.593,168.226,5.33,168.864,5.08,169.55z"/>
	<path style="opacity:0.44;fill:#F2AA99;" d="M5.08,169.55c0.25-0.685,0.513-1.323,0.783-1.936
		C5.593,168.226,5.33,168.864,5.08,169.55z"/>
	<path style="fill:#F4B7A9;" d="M2.346,238.686c-0.001-0.016-0.003-0.034-0.004-0.05c-0.011-0.057-0.025-0.106-0.038-0.163
		C2.32,238.542,2.332,238.618,2.346,238.686z"/>
	<path style="opacity:0.41;fill:#F89BA0;" d="M202.07,224.837c-1.486-3.867,3.758-9.482,11.712-12.541
		c7.957-3.06,15.612-2.404,17.096,1.458c1.486,3.867-3.757,9.482-11.711,12.539C211.211,229.353,203.555,228.697,202.07,224.837z"/>
	<path style="opacity:0.41;fill:#F89BA0;" d="M331.508,171.988c-25.547,45.104-41.853,145.613-41.853,145.613
		s-10.077,22.57-4.13,31.046c7.518,10.714,45.491,24.326,64.215,26.269c-19.623-4.753-45.585-15.296-51.662-23.958
		c-5.947-8.474,4.13-31.043,4.13-31.043s16.306-100.51,41.852-145.615c0,0-17.236-8.692-49.112-27.64l-2.404,3.666
		C317.904,165.125,331.508,171.988,331.508,171.988z"/>
	<path style="fill:#F4B7A9;" d="M5.576,170.66c0.331-1.035,0.681-2.001,1.052-2.888C6.257,168.659,5.907,169.625,5.576,170.66z"/>
	<path style="fill:#F4B7A9;" d="M1.431,203.109c0.031-1.6,0.081-3.204,0.151-4.8C1.512,199.905,1.462,201.507,1.431,203.109z"/>
	<path style="fill:#F4B7A9;" d="M4.547,174.367c0.288-1.189,0.596-2.316,0.925-3.374C5.143,172.051,4.835,173.179,4.547,174.367z"/>
	<path style="fill:#F4B7A9;" d="M3.181,231.155c-0.203-1.129-0.39-2.321-0.56-3.571C2.791,228.834,2.978,230.027,3.181,231.155z"/>
	<path style="fill:#F4B7A9;" d="M8.09,164.877c0.209-0.337,0.421-0.66,0.641-0.952C8.512,164.217,8.299,164.54,8.09,164.877z"/>
	<path style="fill:#F4B7A9;" d="M1.598,197.932c0.073-1.6,0.166-3.191,0.279-4.764C1.764,194.741,1.672,196.332,1.598,197.932z"/>
	<path style="fill:#F4B7A9;" d="M2.087,222.88c-0.128-1.372-0.239-2.788-0.332-4.239C1.848,220.092,1.958,221.508,2.087,222.88z"/>
	<path style="fill:#F4B7A9;" d="M1.498,213.326c-0.051-1.532-0.084-3.087-0.097-4.658C1.415,210.238,1.447,211.793,1.498,213.326z"
		/>
	<path style="fill:#F4B7A9;" d="M6.757,167.47c0.373-0.862,0.766-1.645,1.181-2.342C7.523,165.825,7.13,166.608,6.757,167.47z"/>
	<path style="fill:#F4B7A9;" d="M1.903,192.811c0.115-1.571,0.252-3.121,0.407-4.644C2.155,189.69,2.019,191.24,1.903,192.811z"/>
	<path style="fill:#F4B7A9;" d="M2.348,187.815c0.159-1.514,0.338-2.996,0.538-4.44C2.686,184.819,2.507,186.301,2.348,187.815z"/>
	<path style="fill:#F4B7A9;" d="M2.124,223.276c0.132,1.362,0.281,2.678,0.448,3.94C2.405,225.954,2.257,224.638,2.124,223.276z"/>
	<path style="fill:#F4B7A9;" d="M1.398,208.27c-0.01-1.581-0.002-3.174,0.026-4.771C1.396,205.097,1.388,206.689,1.398,208.27z"/>
	<path style="fill:#F4B7A9;" d="M2.934,183.025c0.202-1.431,0.425-2.819,0.668-4.159C3.359,180.206,3.137,181.594,2.934,183.025z"/>
	<path style="fill:#F4B7A9;" d="M3.667,178.516c0.245-1.321,0.511-2.59,0.797-3.8C4.177,175.926,3.912,177.195,3.667,178.516z"/>
	<path style="fill:#F4B7A9;" d="M1.728,218.22c-0.09-1.459-0.161-2.953-0.215-4.472C1.567,215.267,1.638,216.759,1.728,218.22z"/>
	<g>
		<path style="fill:#F4B7A9;" d="M3.563,233.113c-0.001-0.012-0.002-0.023-0.003-0.035c-0.014-0.068-0.03-0.133-0.044-0.202
			C3.532,232.954,3.547,233.037,3.563,233.113z"/>
		<path style="fill:#F4B7A9;" d="M236.551,124.93l-32.34-16.327c-8.52,37.421-11.578,57.195-11.578,57.195
			c-28.399-5.804-72.379-3.513-105.639-0.366c-26.223,2.481-45.784,5.495-45.784,5.495s-24.577-2.62-30.803,5.652
			c-6.36,8.45-8.377,36.37-6.847,56.5c1.313,6.164,3.2,9.889,5.611,9.218c16.065-4.475,25.857-53.114,25.857-53.114
			c8.694,2.692,24.596,7.318,43.624,12.447c51.256,13.814,125.236,31.28,142.439,24.463c10.352-4.103,31.802-36.567,52.547-71.881
			c1.59-2.707,3.175-5.43,4.752-8.16L236.551,124.93z"/>
	</g>
	<path style="opacity:0.44;fill:#F2AA99;" d="M1.401,208.668c-0.001-0.133-0.002-0.265-0.003-0.397
		C1.399,208.403,1.4,208.535,1.401,208.668z"/>
	<path style="opacity:0.44;fill:#F2AA99;" d="M1.877,193.168c0.009-0.119,0.017-0.238,0.026-0.357
		C1.894,192.93,1.885,193.049,1.877,193.168z"/>
	<path style="opacity:0.44;fill:#F2AA99;" d="M1.424,203.499c0.002-0.131,0.004-0.26,0.006-0.391
		C1.428,203.239,1.426,203.369,1.424,203.499z"/>
	<path style="opacity:0.44;fill:#F2AA99;" d="M7.938,165.128c0.051-0.085,0.102-0.169,0.152-0.251
		C8.039,164.959,7.989,165.043,7.938,165.128z"/>
	<path style="opacity:0.44;fill:#F2AA99;" d="M2.886,183.375c0.016-0.117,0.032-0.234,0.049-0.35
		C2.918,183.141,2.902,183.258,2.886,183.375z"/>
	<path style="opacity:0.44;fill:#F2AA99;" d="M2.31,188.168c0.013-0.118,0.025-0.235,0.037-0.353
		C2.335,187.932,2.323,188.049,2.31,188.168z"/>
	<path style="opacity:0.44;fill:#F2AA99;" d="M3.603,178.866c0.021-0.117,0.043-0.234,0.064-0.35
		C3.646,178.632,3.624,178.749,3.603,178.866z"/>
	<path style="opacity:0.44;fill:#F2AA99;" d="M4.464,174.716c0.027-0.117,0.055-0.233,0.083-0.349
		C4.519,174.483,4.491,174.599,4.464,174.716z"/>
	<path style="opacity:0.44;fill:#F2AA99;" d="M6.628,167.772c0.043-0.102,0.085-0.202,0.129-0.302
		C6.714,167.57,6.671,167.67,6.628,167.772z"/>
	<path style="opacity:0.44;fill:#F2AA99;" d="M5.472,170.992c0.034-0.112,0.069-0.222,0.105-0.332
		C5.541,170.77,5.506,170.881,5.472,170.992z"/>
	<path style="opacity:0.44;fill:#F2AA99;" d="M1.582,198.309c0.005-0.126,0.011-0.251,0.017-0.377
		C1.592,198.058,1.587,198.183,1.582,198.309z"/>
	<path style="opacity:0.44;fill:#F2AA99;" d="M3.242,231.49c-0.021-0.111-0.041-0.222-0.061-0.335
		C3.202,231.268,3.222,231.38,3.242,231.49z"/>
	<path style="opacity:0.44;fill:#F2AA99;" d="M2.124,223.276c-0.012-0.131-0.025-0.264-0.038-0.396
		C2.099,223.012,2.112,223.144,2.124,223.276z"/>
	<path style="opacity:0.44;fill:#F2AA99;" d="M1.754,218.641c-0.009-0.14-0.018-0.28-0.026-0.421
		C1.737,218.361,1.746,218.5,1.754,218.641z"/>
	<path style="opacity:0.44;fill:#F2AA99;" d="M2.621,227.585c-0.016-0.123-0.033-0.245-0.049-0.369
		C2.589,227.339,2.605,227.462,2.621,227.585z"/>
	<path style="opacity:0.44;fill:#F2AA99;" d="M1.513,213.748c-0.005-0.14-0.01-0.281-0.015-0.422
		C1.503,213.467,1.507,213.608,1.513,213.748z"/>
	<path style="fill:#F4B7A9;" d="M10.408,176.579c6.225-8.271,30.803-5.652,30.803-5.652s19.561-3.014,45.784-5.495
		c1.467-4.478,3.075-8.898,4.836-13.245c-29.428,2.564-52.294,6.086-52.294,6.086s-24.578-2.619-30.805,5.653
		c-0.22,0.292-0.432,0.615-0.641,0.952c-0.051,0.082-0.102,0.166-0.152,0.251c-0.414,0.697-0.808,1.48-1.181,2.342
		c-0.043,0.1-0.086,0.2-0.129,0.302c-0.371,0.887-0.722,1.852-1.052,2.888c-0.035,0.11-0.07,0.221-0.105,0.332
		c-0.329,1.059-0.637,2.186-0.925,3.374c-0.028,0.116-0.056,0.232-0.083,0.349c-0.287,1.21-0.552,2.479-0.797,3.8
		c-0.021,0.116-0.043,0.233-0.064,0.35c-0.243,1.34-0.466,2.728-0.668,4.159c-0.017,0.116-0.033,0.233-0.049,0.35
		c-0.2,1.443-0.379,2.926-0.538,4.44c-0.013,0.117-0.025,0.235-0.037,0.353c-0.156,1.522-0.292,3.073-0.407,4.644
		c-0.009,0.119-0.018,0.237-0.026,0.357c-0.113,1.573-0.205,3.164-0.279,4.764c-0.006,0.126-0.012,0.252-0.017,0.377
		c-0.07,1.596-0.12,3.2-0.151,4.8c-0.002,0.13-0.005,0.26-0.006,0.391c-0.028,1.597-0.036,3.19-0.026,4.771
		c0.001,0.132,0.002,0.264,0.003,0.397c0.014,1.571,0.046,3.126,0.097,4.658c0.005,0.141,0.009,0.282,0.015,0.422
		c0.054,1.519,0.125,3.012,0.215,4.472c0.009,0.141,0.018,0.281,0.026,0.421c0.094,1.451,0.204,2.867,0.332,4.239
		c0.013,0.132,0.026,0.264,0.038,0.396c0.132,1.362,0.281,2.678,0.448,3.94c0.017,0.124,0.033,0.246,0.049,0.369
		c0.17,1.249,0.357,2.442,0.56,3.571c0.021,0.113,0.041,0.224,0.061,0.335c0.103,0.556,0.21,1.101,0.321,1.623
		C2.029,212.981,4.044,185.032,10.408,176.579z"/>
	<path style="opacity:0.44;fill:#F2AA99;" d="M10.408,176.579c6.225-8.271,30.803-5.652,30.803-5.652s19.561-3.014,45.784-5.495
		c1.467-4.478,3.075-8.898,4.836-13.245c-29.428,2.564-52.294,6.086-52.294,6.086s-24.578-2.619-30.805,5.653
		c-0.22,0.292-0.432,0.615-0.641,0.952c-0.051,0.082-0.102,0.166-0.152,0.251c-0.414,0.697-0.808,1.48-1.181,2.342
		c-0.043,0.1-0.086,0.2-0.129,0.302c-0.371,0.887-0.722,1.852-1.052,2.888c-0.035,0.11-0.07,0.221-0.105,0.332
		c-0.329,1.059-0.637,2.186-0.925,3.374c-0.028,0.116-0.056,0.232-0.083,0.349c-0.287,1.21-0.552,2.479-0.797,3.8
		c-0.021,0.116-0.043,0.233-0.064,0.35c-0.243,1.34-0.466,2.728-0.668,4.159c-0.017,0.116-0.033,0.233-0.049,0.35
		c-0.2,1.443-0.379,2.926-0.538,4.44c-0.013,0.117-0.025,0.235-0.037,0.353c-0.156,1.522-0.292,3.073-0.407,4.644
		c-0.009,0.119-0.018,0.237-0.026,0.357c-0.113,1.573-0.205,3.164-0.279,4.764c-0.006,0.126-0.012,0.252-0.017,0.377
		c-0.07,1.596-0.12,3.2-0.151,4.8c-0.002,0.13-0.005,0.26-0.006,0.391c-0.028,1.597-0.036,3.19-0.026,4.771
		c0.001,0.132,0.002,0.264,0.003,0.397c0.014,1.571,0.046,3.126,0.097,4.658c0.005,0.141,0.009,0.282,0.015,0.422
		c0.054,1.519,0.125,3.012,0.215,4.472c0.009,0.141,0.018,0.281,0.026,0.421c0.094,1.451,0.204,2.867,0.332,4.239
		c0.013,0.132,0.026,0.264,0.038,0.396c0.132,1.362,0.281,2.678,0.448,3.94c0.017,0.124,0.033,0.246,0.049,0.369
		c0.17,1.249,0.357,2.442,0.56,3.571c0.021,0.113,0.041,0.224,0.061,0.335c0.103,0.556,0.21,1.101,0.321,1.623
		C2.029,212.981,4.044,185.032,10.408,176.579z"/>
	<path style="fill:#F4B7A9;" d="M192.634,165.797c0,0,3.058-19.774,11.578-57.195l-4.052-2.046
		c-6.723,30.548-9.201,46.587-9.201,46.587c-26.581-5.432-66.811-3.773-99.127-0.957c-1.761,4.347-3.369,8.767-4.836,13.245
		C120.255,162.284,164.235,159.993,192.634,165.797z"/>
	<path style="opacity:0.44;fill:#F2AA99;" d="M192.634,165.797c0,0,3.058-19.774,11.578-57.195l-4.052-2.046
		c-6.723,30.548-9.201,46.587-9.201,46.587c-26.581-5.432-66.811-3.773-99.127-0.957c-1.761,4.347-3.369,8.767-4.836,13.245
		C120.255,162.284,164.235,159.993,192.634,165.797z"/>
	<path style="fill:#71BE5B;" d="M241.438,113.576c-15.222-7.397-26.016-14.762-33.261-21.968c-1.358-1.35-2.598-2.695-3.712-4.034
		c-0.823,3.529-1.602,6.921-2.339,10.175c-0.693,3.059-1.348,5.995-1.967,8.808l4.052,2.046l32.34,16.327l41.838,21.121
		c2.292-3.967,4.563-7.943,6.798-11.898C272.597,128.441,257.988,121.618,241.438,113.576z"/>
	<g style="opacity:0.17;">
		<path style="fill:#F4B7A9;" d="M3.563,233.113c-0.001-0.012-0.002-0.023-0.003-0.035c-0.014-0.068-0.03-0.133-0.044-0.202
			C3.532,232.954,3.547,233.037,3.563,233.113z"/>
		<path style="fill:#F4B7A9;" d="M236.551,124.93l-32.34-16.327c-8.52,37.421-11.578,57.195-11.578,57.195
			c-28.399-5.804-72.379-3.513-105.639-0.366c-26.223,2.481-45.784,5.495-45.784,5.495s-24.577-2.62-30.803,5.652
			c-6.36,8.45-8.377,36.37-6.847,56.5c1.313,6.164,3.2,9.889,5.611,9.218c16.065-4.475,25.857-53.114,25.857-53.114
			c8.694,2.692,24.596,7.318,43.624,12.447c51.256,13.814,125.236,31.28,142.439,24.463c10.352-4.103,31.802-36.567,52.547-71.881
			c1.59-2.707,3.175-5.43,4.752-8.16L236.551,124.93z"/>
	</g>
	<path style="opacity:0.41;fill:#F89BA0;" d="M10.408,176.579c6.225-8.271,30.803-5.652,30.803-5.652s19.561-3.014,45.784-5.495
		c1.467-4.478,3.075-8.898,4.836-13.245c-29.428,2.564-52.294,6.086-52.294,6.086s-24.578-2.619-30.805,5.653
		c-0.22,0.292-0.432,0.615-0.641,0.952c-0.051,0.082-0.102,0.166-0.152,0.251c-0.414,0.697-0.808,1.48-1.181,2.342
		c-0.043,0.1-0.086,0.2-0.129,0.302c-0.371,0.887-0.722,1.852-1.052,2.888c-0.035,0.11-0.07,0.221-0.105,0.332
		c-0.329,1.059-0.637,2.186-0.925,3.374c-0.028,0.116-0.056,0.232-0.083,0.349c-0.287,1.21-0.552,2.479-0.797,3.8
		c-0.021,0.116-0.043,0.233-0.064,0.35c-0.243,1.34-0.466,2.728-0.668,4.159c-0.017,0.116-0.033,0.233-0.049,0.35
		c-0.2,1.443-0.379,2.926-0.538,4.44c-0.013,0.117-0.025,0.235-0.037,0.353c-0.156,1.522-0.292,3.073-0.407,4.644
		c-0.009,0.119-0.018,0.237-0.026,0.357c-0.113,1.573-0.205,3.164-0.279,4.764c-0.006,0.126-0.012,0.252-0.017,0.377
		c-0.07,1.596-0.12,3.2-0.151,4.8c-0.002,0.13-0.005,0.26-0.006,0.391c-0.028,1.597-0.036,3.19-0.026,4.771
		c0.001,0.132,0.002,0.264,0.003,0.397c0.014,1.571,0.046,3.126,0.097,4.658c0.005,0.141,0.009,0.282,0.015,0.422
		c0.054,1.519,0.125,3.012,0.215,4.472c0.009,0.141,0.018,0.281,0.026,0.421c0.094,1.451,0.204,2.867,0.332,4.239
		c0.013,0.132,0.026,0.264,0.038,0.396c0.132,1.362,0.281,2.678,0.448,3.94c0.017,0.124,0.033,0.246,0.049,0.369
		c0.17,1.249,0.357,2.442,0.56,3.571c0.021,0.113,0.041,0.224,0.061,0.335c0.103,0.556,0.21,1.101,0.321,1.623
		C2.029,212.981,4.044,185.032,10.408,176.579z"/>
	<path style="opacity:0.41;fill:#F89BA0;" d="M192.634,165.797c0,0,3.058-19.774,11.578-57.195l-4.052-2.046
		c-6.723,30.548-9.201,46.587-9.201,46.587c-26.581-5.432-66.811-3.773-99.127-0.957c-1.761,4.347-3.369,8.767-4.836,13.245
		C120.255,162.284,164.235,159.993,192.634,165.797z"/>
	<path style="opacity:0.17;fill:#71BE5B;" d="M241.438,113.576c-15.222-7.397-26.016-14.762-33.261-21.968
		c-1.358-1.35-2.598-2.695-3.712-4.034c-0.823,3.529-1.602,6.921-2.339,10.175c-0.693,3.059-1.348,5.995-1.967,8.808l4.052,2.046
		l32.34,16.327l41.838,21.121c2.292-3.967,4.563-7.943,6.798-11.898C272.597,128.441,257.988,121.618,241.438,113.576z"/>
	<path style="fill:#71BE5B;" d="M319.785,52.205c0.007,0.014,0.013,0.028,0.02,0.042c-2.811-5.791-6.231-11.967-10.136-17.997
		c-3.521-0.73-7.072-1.374-10.655-1.923c-10.324-1.581-20.898-2.401-31.663-2.401c-7,0-13.918,0.352-20.74,1.029
		c-4.788,0.475-9.524,1.122-14.21,1.917c-2.734,0.464-5.45,0.978-8.146,1.548c-0.581,0.123-1.16,0.251-1.739,0.378
		c-20.033,12.235-33.061,29.874-18.411,52.184c0.956,1.456,2.036,2.932,3.234,4.427c6.387,7.976,16.282,16.511,30.574,25.576
		c15.539,9.855,29.286,18.281,41.153,25.375c3.755,2.244,7.329,4.361,10.701,6.339c0.946,0.555,1.865,1.092,2.781,1.626l2.404-3.666
		l6.172-9.411l40.492-61.747C334.11,67.341,326.696,59.447,319.785,52.205z"/>
	<path style="fill:#F9D363;" d="M7.932,163.921c-11.35,15.076-9.918,87.579,0.473,84.688c17.36-4.836,27.941-57.395,27.941-57.395
		c0.49,0.151,1.008,0.31,1.538,0.473c-2.69-11.765-5.005-22.855-1.948-34.22C27.832,157.154,12.765,157.5,7.932,163.921z"/>
	<path style="fill:#505B66;" d="M35.634,203.072c-1.087-5-7.39-8.319-12.088-8.722c-1.231-0.106-1.126,1.81,0.085,1.914
		c3.902,0.335,9.288,3.298,10.179,7.399C34.073,204.87,35.894,204.267,35.634,203.072z"/>
	<path style="fill:#505B66;" d="M32.619,212.252c-1.935-4.547-5.614-7.642-10.515-8.499c-1.216-0.214-1.625,1.658-0.408,1.871
		c4.207,0.738,7.425,3.282,9.099,7.22C31.275,213.971,33.101,213.39,32.619,212.252z"/>
	<path style="fill:#505B66;" d="M29.982,221.626c-1.299-4.582-6.082-7.828-10.414-9.163c-1.182-0.366-1.579,1.511-0.407,1.872
		c3.696,1.141,7.892,3.979,8.998,7.883C28.495,223.408,30.316,222.812,29.982,221.626z"/>
	<path style="fill:#71BE5B;" d="M28.083,174.605c-3.051-9.402-17.631-4.672-14.58,4.731
		C16.554,188.739,31.134,184.008,28.083,174.605z"/>
	<path style="fill:#F9D363;" d="M285.274,349.406c10.838,15.448,80.243,36.462,80.7,25.686
		c0.758-18.005-45.971-44.291-45.971-44.291c0.295-0.419,0.606-0.863,0.925-1.318c-12.021-1.072-23.284-2.293-33.151-8.708
		C284.978,328.388,280.658,342.828,285.274,349.406z"/>
	<path style="fill:#505B66;" d="M331.063,335.139c-5.091-0.509-10.194,4.461-12.026,8.806c-0.481,1.138,1.374,1.629,1.847,0.509
		c1.523-3.608,6.004-7.816,10.18-7.399C332.292,337.179,332.28,335.261,331.063,335.139z"/>
	<path style="fill:#505B66;" d="M338.865,340.84c-4.922,0.437-9.001,2.981-11.329,7.379c-0.578,1.09,1.076,2.058,1.654,0.966
		c2-3.774,5.414-6.05,9.675-6.427C340.085,342.649,340.096,340.732,338.865,340.84z"/>
	<path style="fill:#505B66;" d="M346.967,346.242c-4.759-0.179-9.323,3.369-11.93,7.077c-0.713,1.012,0.95,1.968,1.655,0.966
		c2.226-3.164,6.221-6.279,10.276-6.126C348.203,348.206,348.198,346.289,346.967,346.242z"/>
	<path style="fill:#71BE5B;" d="M301.656,333.536c-9.885,0-9.885,15.328,0,15.328S311.541,333.536,301.656,333.536z"/>
</g>
<g>
</g>
<g>
</g>
<g>
</g>
<g>
</g>
<g>
</g>
<g>
</g>
<g>
</g>
<g>
</g>
<g>
</g>
<g>
</g>
<g>
</g>
<g>
</g>
<g>
</g>
<g>
</g>
<g>
</g>
</svg>
