<?xml version="1.0" encoding="iso-8859-1"?>
<!-- Generator: Adobe Illustrator 19.1.0, SVG Export Plug-In . SVG Version: 6.00 Build 0)  -->
<svg version="1.1" id="Capa_1" xmlns="http://www.w3.org/2000/svg" xmlns:xlink="http://www.w3.org/1999/xlink" x="0px" y="0px"
	 viewBox="0 0 425.423 425.423" style="enable-background:new 0 0 425.423 425.423;" xml:space="preserve">
<g>
	<path style="opacity:0.7;fill:#F2AA99;" d="M0.38,226.077c-0.063-1.045-0.126-2.089-0.171-3.138
		C0.254,223.989,0.318,225.033,0.38,226.077z"/>
	<path style="opacity:0.7;fill:#FBE5A3;" d="M0.38,226.077c-0.063-1.045-0.126-2.089-0.171-3.138
		C0.254,223.989,0.318,225.033,0.38,226.077z"/>
	<path style="opacity:0.7;fill:#FBE5A3;" d="M0.38,226.077c-0.063-1.045-0.126-2.089-0.171-3.138
		C0.254,223.989,0.318,225.033,0.38,226.077z"/>
	<path style="opacity:0.7;fill:#F2AA99;" d="M1.303,236.919c-0.148-1.355-0.29-2.711-0.418-4.071
		C1.009,234.208,1.155,235.565,1.303,236.919z"/>
	<path style="opacity:0.7;fill:#FBE5A3;" d="M1.303,236.919c-0.148-1.355-0.29-2.711-0.418-4.071
		C1.009,234.208,1.155,235.565,1.303,236.919z"/>
	<path style="opacity:0.7;fill:#FBE5A3;" d="M1.303,236.919c-0.148-1.355-0.29-2.711-0.418-4.071
		C1.009,234.208,1.155,235.565,1.303,236.919z"/>
	<path style="opacity:0.7;fill:#F2AA99;" d="M0.78,231.599c-0.102-1.22-0.205-2.44-0.29-3.666
		C0.575,229.159,0.677,230.379,0.78,231.599z"/>
	<path style="opacity:0.7;fill:#FBE5A3;" d="M0.78,231.599c-0.102-1.22-0.205-2.44-0.29-3.666
		C0.575,229.159,0.677,230.379,0.78,231.599z"/>
	<path style="opacity:0.7;fill:#FBE5A3;" d="M0.78,231.599c-0.102-1.22-0.205-2.44-0.29-3.666
		C0.575,229.159,0.677,230.379,0.78,231.599z"/>
	<path style="opacity:0.7;fill:#F2AA99;" d="M0.002,212.707c0.008-2.238,0.065-4.464,0.151-6.686
		C0.071,208.242,0.01,210.468,0.002,212.707z"/>
	<path style="opacity:0.7;fill:#FBE5A3;" d="M0.002,212.707c0.008-2.238,0.065-4.464,0.151-6.686
		C0.071,208.242,0.01,210.468,0.002,212.707z"/>
	<path style="opacity:0.7;fill:#FBE5A3;" d="M0.002,212.707c0.008-2.238,0.065-4.464,0.151-6.686
		C0.071,208.242,0.01,210.468,0.002,212.707z"/>
	<path style="opacity:0.7;fill:#F2AA99;" d="M0.116,220.206c-0.023-0.778-0.056-1.556-0.071-2.337
		C0.06,218.65,0.094,219.428,0.116,220.206z"/>
	<path style="opacity:0.7;fill:#FBE5A3;" d="M0.116,220.206c-0.023-0.778-0.056-1.556-0.071-2.337
		C0.06,218.65,0.094,219.428,0.116,220.206z"/>
	<path style="opacity:0.7;fill:#FBE5A3;" d="M0.116,220.206c-0.023-0.778-0.056-1.556-0.071-2.337
		C0.06,218.65,0.094,219.428,0.116,220.206z"/>
	<path style="opacity:0.7;fill:#F2AA99;" d="M2.694,247.074c-0.248-1.523-0.48-3.054-0.697-4.59
		C2.214,244.02,2.447,245.551,2.694,247.074z"/>
	<path style="opacity:0.7;fill:#FBE5A3;" d="M2.694,247.074c-0.248-1.523-0.48-3.054-0.697-4.59
		C2.214,244.02,2.447,245.551,2.694,247.074z"/>
	<path style="opacity:0.7;fill:#FBE5A3;" d="M2.694,247.074c-0.248-1.523-0.48-3.054-0.697-4.59
		C2.214,244.02,2.447,245.551,2.694,247.074z"/>
	<path style="opacity:0.7;fill:#F2AA99;" d="M1.943,242.061c-0.198-1.448-0.385-2.907-0.553-4.367
		C1.558,239.157,1.745,240.61,1.943,242.061z"/>
	<path style="opacity:0.7;fill:#FBE5A3;" d="M1.943,242.061c-0.198-1.448-0.385-2.907-0.553-4.367
		C1.558,239.157,1.745,240.61,1.943,242.061z"/>
	<path style="opacity:0.7;fill:#FBE5A3;" d="M1.943,242.061c-0.198-1.448-0.385-2.907-0.553-4.367
		C1.558,239.157,1.745,240.61,1.943,242.061z"/>
	<path style="fill:#F9F4ED;" d="M0.045,217.869c-0.037-1.719-0.048-3.437-0.043-5.162C-0.003,214.432,0.008,216.15,0.045,217.869z"
		/>
	<path style="fill:#F9F4ED;" d="M0.209,222.939c-0.042-0.908-0.064-1.821-0.093-2.733C0.146,221.118,0.168,222.031,0.209,222.939z"
		/>
	<path style="fill:#F9F4ED;" d="M2.716,247.223c-0.005-0.05-0.016-0.099-0.022-0.149C2.7,247.124,2.711,247.173,2.716,247.223z"/>
	<path style="fill:#F9F4ED;" d="M1.998,242.483c-0.014-0.14-0.033-0.282-0.054-0.422C1.964,242.201,1.983,242.344,1.998,242.483z"/>
	<path style="fill:#F9F4ED;" d="M1.39,237.694c-0.03-0.259-0.057-0.517-0.087-0.775C1.333,237.177,1.36,237.436,1.39,237.694z"/>
	<path style="fill:#F9F4ED;" d="M0.489,227.933c-0.041-0.616-0.071-1.236-0.109-1.856C0.418,226.698,0.448,227.318,0.489,227.933z"
		/>
	<path style="fill:#F9F4ED;" d="M0.885,232.849c-0.038-0.415-0.07-0.832-0.105-1.25C0.815,232.015,0.843,232.434,0.885,232.849z"/>
	<path style="fill:#F9F4ED;" d="M0.153,206.021c0.007-0.269,0.022-0.538,0.034-0.807C0.175,205.482,0.16,205.752,0.153,206.021z"/>
	<g>
		<g>
			<path style="opacity:0.7;fill:#F2AA99;" d="M414.317,214.645C414.854,100.235,322.539,7.053,208.129,6.518
				C93.716,5.983,0.538,98.297,0.002,212.707c-0.537,114.411,91.779,207.591,206.19,208.127
				C320.601,421.368,413.783,329.055,414.317,214.645z"/>
			<path style="opacity:0.7;fill:#FBE5A3;" d="M414.317,214.645C414.854,100.235,322.539,7.053,208.129,6.518
				C93.716,5.983,0.538,98.297,0.002,212.707c-0.537,114.411,91.779,207.591,206.19,208.127
				C320.601,421.368,413.783,329.055,414.317,214.645z"/>
			<path style="fill:#6DC0CF;" d="M414.317,214.645C414.854,100.235,322.539,7.053,208.129,6.518
				C93.716,5.983,0.538,98.297,0.002,212.707c-0.537,114.411,91.779,207.591,206.19,208.127
				C320.601,421.368,413.783,329.055,414.317,214.645z"/>
		</g>
	</g>
	<path style="opacity:0.7;fill:#F2AA99;" d="M413.689,229.837c-0.097,1.279-0.216,2.556-0.337,3.829
		C413.472,232.393,413.592,231.117,413.689,229.837z"/>
	<path style="opacity:0.7;fill:#FBE5A3;" d="M413.689,229.837c-0.097,1.279-0.216,2.556-0.337,3.829
		C413.472,232.393,413.592,231.117,413.689,229.837z"/>
	<path style="opacity:0.7;fill:#FBE5A3;" d="M413.689,229.837c-0.097,1.279-0.216,2.556-0.337,3.829
		C413.472,232.393,413.592,231.117,413.689,229.837z"/>
	<path style="opacity:0.7;fill:#F2AA99;" d="M413.252,234.739c-0.142,1.414-0.306,2.822-0.474,4.227
		C412.946,237.562,413.11,236.153,413.252,234.739z"/>
	<path style="opacity:0.7;fill:#FBE5A3;" d="M413.252,234.739c-0.142,1.414-0.306,2.822-0.474,4.227
		C412.946,237.562,413.11,236.153,413.252,234.739z"/>
	<path style="opacity:0.7;fill:#FBE5A3;" d="M413.252,234.739c-0.142,1.414-0.306,2.822-0.474,4.227
		C412.946,237.562,413.11,236.153,413.252,234.739z"/>
	<path style="opacity:0.7;fill:#F2AA99;" d="M414.23,219.8c-0.027,0.813-0.067,1.62-0.101,2.429
		C414.163,221.421,414.204,220.613,414.23,219.8z"/>
	<path style="opacity:0.7;fill:#FBE5A3;" d="M414.23,219.8c-0.027,0.813-0.067,1.62-0.101,2.429
		C414.163,221.421,414.204,220.613,414.23,219.8z"/>
	<path style="opacity:0.7;fill:#FBE5A3;" d="M414.23,219.8c-0.027,0.813-0.067,1.62-0.101,2.429
		C414.163,221.421,414.204,220.613,414.23,219.8z"/>
	<path style="opacity:0.7;fill:#F2AA99;" d="M414.018,224.863c-0.059,1.1-0.138,2.193-0.214,3.287
		C413.88,227.056,413.959,225.963,414.018,224.863z"/>
	<path style="opacity:0.7;fill:#FBE5A3;" d="M414.018,224.863c-0.059,1.1-0.138,2.193-0.214,3.287
		C413.88,227.056,413.959,225.963,414.018,224.863z"/>
	<path style="opacity:0.7;fill:#FBE5A3;" d="M414.018,224.863c-0.059,1.1-0.138,2.193-0.214,3.287
		C413.88,227.056,413.959,225.963,414.018,224.863z"/>
	<path style="opacity:0.7;fill:#F2AA99;" d="M414.23,207.958c0.064,2.221,0.099,4.45,0.086,6.687
		C414.329,212.408,414.291,210.179,414.23,207.958z"/>
	<path style="opacity:0.7;fill:#FBE5A3;" d="M414.23,207.958c0.064,2.221,0.099,4.45,0.086,6.687
		C414.329,212.408,414.291,210.179,414.23,207.958z"/>
	<path style="opacity:0.7;fill:#FBE5A3;" d="M414.23,207.958c0.064,2.221,0.099,4.45,0.086,6.687
		C414.329,212.408,414.291,210.179,414.23,207.958z"/>
	<path style="opacity:0.7;fill:#F2AA99;" d="M412.703,239.57c-0.19,1.507-0.396,3.013-0.613,4.509
		C412.307,242.582,412.516,241.08,412.703,239.57z"/>
	<path style="opacity:0.7;fill:#FBE5A3;" d="M412.703,239.57c-0.19,1.507-0.396,3.013-0.613,4.509
		C412.307,242.582,412.516,241.08,412.703,239.57z"/>
	<path style="opacity:0.7;fill:#FBE5A3;" d="M412.703,239.57c-0.19,1.507-0.396,3.013-0.613,4.509
		C412.307,242.582,412.516,241.08,412.703,239.57z"/>
	<path style="opacity:0.7;fill:#F2AA99;" d="M412.049,244.35c-0.234,1.568-0.481,3.127-0.75,4.685
		C411.563,247.476,411.817,245.917,412.049,244.35z"/>
	<path style="opacity:0.7;fill:#FBE5A3;" d="M412.049,244.35c-0.234,1.568-0.481,3.127-0.75,4.685
		C411.563,247.476,411.817,245.917,412.049,244.35z"/>
	<path style="opacity:0.7;fill:#FBE5A3;" d="M412.049,244.35c-0.234,1.568-0.481,3.127-0.75,4.685
		C411.563,247.476,411.817,245.917,412.049,244.35z"/>
	<path style="fill:#F9F4ED;" d="M413.804,228.151c-0.037,0.562-0.07,1.125-0.116,1.687
		C413.734,229.275,413.767,228.713,413.804,228.151z"/>
	<path style="fill:#F9F4ED;" d="M413.352,233.666c-0.035,0.357-0.065,0.716-0.1,1.073
		C413.287,234.382,413.316,234.024,413.352,233.666z"/>
	<path style="fill:#F9F4ED;" d="M412.09,244.079c-0.016,0.092-0.03,0.181-0.041,0.271C412.06,244.26,412.074,244.17,412.09,244.079z
		"/>
	<path style="fill:#F9F4ED;" d="M411.299,249.034c-0.007,0.023-0.01,0.046-0.012,0.067
		C411.289,249.08,411.293,249.057,411.299,249.034z"/>
	<path style="fill:#F9F4ED;" d="M412.778,238.967c-0.026,0.2-0.049,0.403-0.075,0.603
		C412.729,239.37,412.753,239.166,412.778,238.967z"/>
	<path style="fill:#F9F4ED;" d="M414.13,222.229c-0.037,0.877-0.067,1.757-0.112,2.634
		C414.066,223.987,414.093,223.107,414.13,222.229z"/>
	<path style="fill:#F9F4ED;" d="M414.204,207.151c0.009,0.269,0.02,0.538,0.027,0.807
		C414.224,207.689,414.215,207.42,414.204,207.151z"/>
	<path style="fill:#F9F4ED;" d="M414.317,214.645c-0.008,1.724-0.037,3.443-0.086,5.155
		C414.28,218.088,414.309,216.369,414.317,214.645z"/>
	<g>
		<g>
			<g>
				<path style="fill:#EAEBED;" d="M424.291,109.763c0,57.007-46.21,103.217-103.22,103.217c-57.007,0-103.22-46.21-103.22-103.217
					c0-57.006,46.213-103.219,103.22-103.219C378.081,6.545,424.291,52.757,424.291,109.763z"/>
				<g>
					<defs>
						<path id="SVGID_1_" d="M421.918,81.257c14.676,55.086-18.082,111.636-73.16,126.31
							c-55.092,14.674-111.638-18.082-126.312-73.167c-14.674-55.084,18.082-111.635,73.16-126.31
							C350.7-6.584,407.244,26.174,421.918,81.257z"/>
					</defs>
					<clipPath id="SVGID_2_">
						<use xlink:href="#SVGID_1_"  style="overflow:visible;"/>
					</clipPath>
				</g>
			</g>
			<path style="opacity:0.47;fill-rule:evenodd;clip-rule:evenodd;fill:#B0B0B3;" d="M266.077,22.534
				c-4.186,2.662-8.117,5.574-11.777,8.705c-3.799,7.501-6.039,16.245-5.254,25.876c-6.668,2.218-13.481,4.625-20.336,7.234
				c-1.027,2.104-1.981,4.243-2.856,6.401c36.879-14.473,73.279-23.097,93.019-27.776c4.611-1.093,8.309-1.968,10.992-2.685
				c7.535,7.014,20.025,18.939,28.881,35.687c-17.982,0.629-65.544,3.754-102.486,15.64c-15.416,4.958-29.031,11.471-38.069,20.015
				c0.035,2.249,0.146,4.503,0.328,6.752c8.082-9.502,22.514-16.668,39.239-22.049c38.09-12.254,87.706-15.061,103.388-15.492
				c3.777,8.232,6.586,17.523,7.559,27.841c-15.262,7.846-60.735,27.734-98.928,36.48c-17.944,4.107-34.154,5.783-44.487,2.552
				c0.734,1.871,1.52,3.736,2.376,5.577c11.26,2.194,26.603,0.488,43.203-3.313c37.142-8.499,81.074-27.41,98.167-35.923
				c0.415,14.252-2.715,30.357-11.46,48.291c-8.104,2.232-25.812,6.35-45.62,10.964c-20.174,4.695-42.507,9.889-59.044,14.1
				c1.523,1.352,3.08,2.663,4.668,3.923c6.695-1.693,14.159-3.5,21.927-5.345c3.869,8.423,9.8,15.804,16.229,21.607
				c1.357,1.225,2.739,2.381,4.137,3.465c3.837,0.81,7.724,1.384,11.637,1.745c-4.04-2.138-8.369-5.159-12.495-8.886
				c-5.747-5.175-11.046-11.691-14.62-19.09c7.546-1.788,15.3-3.59,22.856-5.356c19.394,19.819,35.695,26.129,47.356,28.015
				c3.419-1.203,6.809-2.617,10.136-4.205c-10.103,0.06-28.34-2.075-51.84-25.126l0.168-0.035
				c19.61-4.565,37.194-8.662,45.49-10.927c14.346,14.541,25.373,17.814,34.005,16.592c2.509-2.46,4.874-5.05,7.093-7.722
				c-2.641,1.379-5.622,2.433-9.041,2.65c3.655-7.229,6.54-14.408,8.74-21.498c10.566-34.077,5.308-65.918-5.912-91.059
				c-11.238-25.19-28.546-43.722-41.959-51.072c-0.173-0.1-0.35-0.191-0.52-0.283c2.541-0.683,5.14-0.932,7.651-0.913
				c-3.362-1.34-6.782-2.498-10.252-3.476c-8.532,2.731-16.459,9.695-19.914,25.141c-2.503,0.662-6.169,1.528-10.715,2.604
				c-9.147,2.171-21.862,5.183-36.549,9.227c6.445-18.641,15.73-29.049,24.579-34.92c4.365-2.892,8.637-4.689,12.398-5.823
				c-4.901,0.122-9.818,0.599-14.698,1.443c-0.13,0.081-0.255,0.161-0.38,0.248c-10.119,6.708-20.732,18.761-27.594,40.651
				c-6.895,1.959-14.154,4.14-21.626,6.556c-0.482-8.996,1.978-17.113,5.839-23.983C261.563,28.239,263.744,25.224,266.077,22.534
				L266.077,22.534z M333.236,36.672c2.262-10.123,6.597-15.985,11.645-19.217c1.338,0.493,2.766,1.158,4.251,1.971
				c12.653,6.939,29.055,24.605,39.835,48.752c10.794,24.193,15.852,54.812,5.703,87.557c-2.308,7.442-5.411,15.01-9.415,22.636
				c-6.302-1.176-13.853-5.259-22.986-14.438C395.13,95.833,350.974,53.206,333.236,36.672L333.236,36.672z"/>
		</g>
		<g>
			<path style="opacity:0.47;fill:#EAEBED;" d="M349.212,209.35c5.689-1.607,11.128-3.672,16.301-6.123
				c-40.884,9.29-82.109-7.168-105.827-39.354c-0.003-0.003-0.005-0.005-0.005-0.008c-0.805-1.093-1.582-2.208-2.348-3.337
				c-0.129-0.193-0.263-0.382-0.394-0.575c-0.687-1.031-1.351-2.081-2.004-3.14c-0.199-0.323-0.393-0.645-0.592-0.969
				c-0.588-0.977-1.156-1.966-1.714-2.967c-0.246-0.446-0.489-0.894-0.732-1.341c-0.495-0.923-0.977-1.85-1.446-2.792
				c-0.288-0.572-0.56-1.152-0.834-1.732c-0.412-0.857-0.814-1.714-1.196-2.585c-0.319-0.722-0.619-1.46-0.923-2.192
				c-0.318-0.763-0.639-1.524-0.94-2.3c-0.365-0.938-0.697-1.895-1.035-2.848c-0.214-0.606-0.444-1.207-0.646-1.82
				c-0.533-1.593-1.03-3.202-1.485-4.838c-0.457-1.635-0.867-3.27-1.238-4.906c-0.146-0.637-0.259-1.277-0.394-1.913
				c-0.206-0.987-0.414-1.968-0.59-2.954c-0.142-0.82-0.262-1.643-0.391-2.465c-0.118-0.782-0.241-1.566-0.343-2.348
				c-0.122-0.944-0.22-1.884-0.317-2.828c-0.066-0.642-0.133-1.283-0.187-1.923c-0.084-1.044-0.151-2.09-0.205-3.13
				c-0.031-0.517-0.053-1.034-0.073-1.55c-0.043-1.137-0.069-2.271-0.074-3.406c0-0.391,0.005-0.781,0.009-1.171
				c0.005-1.236,0.031-2.471,0.084-3.7c0.011-0.244,0.029-0.486,0.043-0.73c0.065-1.355,0.152-2.706,0.269-4.048
				c0.003-0.007,0-0.012,0.003-0.018c3.241-36.054,25.343-68.624,58.876-84.506c-1.76,0.401-3.522,0.83-5.282,1.326
				c-42.583,12.024-71.436,49.015-75.178,90.631c0,0.005,0,0.01,0,0.015c-0.122,1.346-0.205,2.696-0.276,4.05
				c-0.011,0.244-0.028,0.486-0.039,0.727c-0.053,1.231-0.075,2.465-0.084,3.702c-0.004,0.389-0.008,0.779-0.005,1.172
				c0.005,1.134,0.031,2.268,0.071,3.406c0.018,0.517,0.046,1.033,0.072,1.55c0.053,1.042,0.121,2.085,0.209,3.128
				c0.051,0.642,0.118,1.281,0.182,1.925c0.098,0.943,0.196,1.886,0.318,2.825c0.103,0.786,0.224,1.567,0.346,2.351
				c0.127,0.823,0.246,1.643,0.392,2.463c0.173,0.988,0.381,1.972,0.585,2.957c0.137,0.636,0.249,1.274,0.396,1.913
				c0.37,1.637,0.78,3.271,1.236,4.906c0.458,1.635,0.956,3.245,1.486,4.838c0.205,0.613,0.433,1.213,0.644,1.82
				c0.339,0.954,0.673,1.91,1.036,2.848c0.297,0.776,0.621,1.537,0.939,2.3c0.305,0.734,0.602,1.47,0.922,2.192
				c0.386,0.873,0.791,1.73,1.197,2.586c0.274,0.578,0.547,1.16,0.834,1.73c0.468,0.943,0.951,1.87,1.451,2.793
				c0.24,0.449,0.482,0.895,0.728,1.338c0.556,1.002,1.129,1.993,1.713,2.972c0.195,0.322,0.395,0.644,0.595,0.967
				c0.654,1.06,1.318,2.109,2.006,3.141c0.127,0.189,0.259,0.38,0.39,0.574c0.766,1.128,1.541,2.244,2.346,3.336
				c0,0,0.004,0.005,0.008,0.007C262.842,204.895,306.631,221.375,349.212,209.35z"/>
		</g>
	</g>
	<g>
		<polygon style="fill:none;" points="154.322,398.481 154.322,364.553 137.359,381.517 		"/>
		<path style="fill:none;" d="M154.414,255.97v-3.355l-7.12,1.24l6.958,6.957C154.289,259.118,154.343,257.506,154.414,255.97z"/>
		<path style="fill:none;" d="M131.862,307.222l22.46-22.459v-9.456c-0.009-0.347-0.015-0.676-0.023-1.019l-18.442-18.442
			l-9.675,1.685l-22.005,22.006L131.862,307.222z"/>
		
			<rect x="77.887" y="294.36" transform="matrix(0.7071 -0.7071 0.7071 0.7071 -193.4415 160.8699)" style="fill:none;" width="39.154" height="39.153"/>
		<polygon style="fill:none;" points="154.322,329.68 154.322,298.191 138.576,313.937 		"/>
		<polygon style="fill:none;" points="63.064,307.222 90.749,279.536 77.263,266.05 43.858,271.868 35.379,279.536 		"/>
		<polygon style="fill:none;" points="109.923,260.362 88.699,264.058 97.464,272.822 		"/>
		<polygon style="fill:none;" points="104.177,348.336 130.646,374.803 154.322,351.124 154.322,343.11 131.862,320.651 		"/>
		<path style="fill:#FFFFFF;" d="M154.322,398.481l-16.963-16.964l16.963-16.964v-13.429l-23.677,23.679l-26.468-26.467
			l27.685-27.685l22.46,22.459V329.68l-15.746-15.744l15.746-15.745v-13.428l-22.46,22.459l-27.685-27.686l22.005-22.006
			l-16.26,2.832l-12.459,12.46l-8.764-8.764l-11.436,1.992l13.486,13.486l-27.685,27.686l-27.685-27.686l8.479-7.669l-14.209,2.474
			c-5.3,5.447-10.653,11.001-15.1,15.717c0.97,2.444,1.982,4.868,3.041,7.265l11.075-11.074l27.685,27.686l-18.764,18.763v0
			c1.797,2.556,3.656,5.066,5.564,7.536c0.41-0.217,0.804-0.476,1.15-0.822l18.764-18.762l27.685,27.685l-20.66,20.66
			c2.381,2.102,4.811,4.149,7.287,6.142l20.088-20.086l26.467,26.466l-14.727,14.727c2.929,1.575,5.899,3.081,8.911,4.517
			l12.531-12.529l24.767,24.768c-0.705-3.019-1.09-6.161-1.09-9.394V398.481z M69.778,313.937l27.686-27.686l27.684,27.686
			l-27.684,27.685L69.778,313.937z"/>
		<path style="fill:#FFFFFF;" d="M154.602,252.581l-0.188,0.033v3.355C154.468,254.802,154.529,253.662,154.602,252.581z"/>
		<path style="fill:#FFFFFF;" d="M154.252,260.811l-6.958-6.957l-11.437,1.992l18.442,18.442
			C154.18,269.314,154.166,264.835,154.252,260.811z"/>
		<path style="fill:#70706E;" d="M230.787,214.766L4.296,254.209c-0.101,0.147-0.156,0.228-0.257,0.375
			c1.577,7.87,3.609,15.575,6.051,23.097c0.012,0.036,0.048,0.058,0.086,0.052l19.474-3.391l14.209-2.474l33.405-5.818l11.436-1.992
			l21.223-3.696l16.26-2.832l9.675-1.685l11.437-1.992l7.12-1.24l0.188-0.033c-0.074,1.081-0.134,2.22-0.188,3.388
			c-0.071,1.537-0.126,3.148-0.162,4.842c-0.086,4.024-0.072,8.502,0.048,13.477c0.008,0.343,0.014,0.672,0.023,1.019v9.456v13.428
			v31.489v13.429v8.014v13.429c0,0-0.478,47.496-0.371,49.333c0.002,0.032,0.026,0.057,0.057,0.065
			c16.12,4.11,34.8,6.802,52.184,6.884c9.261,0.043,18.381-0.532,27.326-1.668c0.028-0.004,0.052-0.022,0.062-0.048
			c1.951-4.789,3.035-10.023,3.035-15.513V275.307c-0.527-14.498-0.845-35.495-1.06-36.785c0.027-0.039,0.042-0.06,0.068-0.099
			c6.545-1.497,10.899-7.575,9.792-13.93C244.269,217.913,237.72,213.558,230.787,214.766z"/>
	</g>
	<path style="opacity:0.56;fill:#70706E;" d="M153.956,413.934c12.646,3.351,25.77,5.525,39.248,6.422l0.092-176.104l-38.823,7.976
		L153.956,413.934z"/>
</g>
<g>
</g>
<g>
</g>
<g>
</g>
<g>
</g>
<g>
</g>
<g>
</g>
<g>
</g>
<g>
</g>
<g>
</g>
<g>
</g>
<g>
</g>
<g>
</g>
<g>
</g>
<g>
</g>
<g>
</g>
</svg>
