<?xml version="1.0" encoding="iso-8859-1"?>
<!-- Generator: Adobe Illustrator 19.1.0, SVG Export Plug-In . SVG Version: 6.00 Build 0)  -->
<svg version="1.1" id="Capa_1" xmlns="http://www.w3.org/2000/svg" xmlns:xlink="http://www.w3.org/1999/xlink" x="0px" y="0px"
	 viewBox="0 0 456.205 456.205" style="enable-background:new 0 0 456.205 456.205;" xml:space="preserve">
<g>
	<path style="fill:#F5ECE1;" d="M435.697,228.106c0-114.652-92.943-207.595-207.594-207.595
		c-114.654,0-207.595,92.944-207.595,207.595c0,114.645,92.941,207.588,207.595,207.588
		C342.754,435.694,435.697,342.751,435.697,228.106z"/>
	<path style="fill:#F5ECE1;" d="M435.697,228.106c0-114.652-92.943-207.595-207.594-207.595
		c-114.654,0-207.595,92.944-207.595,207.595c0,114.645,92.941,207.588,207.595,207.588
		C342.754,435.694,435.697,342.751,435.697,228.106z"/>
	<path style="fill:#F5ECE1;" d="M435.697,228.106c0-114.652-92.943-207.595-207.594-207.595
		c-114.654,0-207.595,92.944-207.595,207.595c0,114.645,92.941,207.588,207.595,207.588
		C342.754,435.694,435.697,342.751,435.697,228.106z"/>
	<path style="fill:#F5ECE1;" d="M45.966,327.776c5.713,10.417,12.295,20.288,19.646,29.52h324.978
		c7.351-9.232,13.933-19.102,19.646-29.52H45.966z"/>
	<path style="opacity:0.52;fill:#B6B0A8;" d="M45.966,327.776c5.713,10.417,12.295,20.288,19.646,29.52h324.978
		c7.351-9.232,13.933-19.102,19.646-29.52H45.966z"/>
	<g>
		<rect y="224.813" style="fill:#505B66;" width="456.205" height="20.26"/>
		<path style="fill:#EA7053;" d="M426.174,308.033c0,19.054-15.447,34.503-34.503,34.503h-21.724
			c-19.056,0-34.503-15.449-34.503-34.503V161.85c0-19.056,15.447-34.503,34.503-34.503h21.724
			c19.056,0,34.503,15.447,34.503,34.503V308.033z"/>
		<path style="fill:#EA7053;" d="M120.76,308.033c0,19.054-15.447,34.503-34.503,34.503H64.534
			c-19.056,0-34.503-15.449-34.503-34.503V161.85c0-19.056,15.447-34.503,34.503-34.503h21.724
			c19.056,0,34.503,15.447,34.503,34.503V308.033z"/>
		<rect x="14.474" y="196.607" style="fill:#6A747D;" width="7.667" height="76.666"/>
		<rect x="434.064" y="196.607" style="fill:#6A747D;" width="7.667" height="76.666"/>
		<rect x="158.273" y="224.813" style="fill:#FFFFFF;" width="47.921" height="20.26"/>
		<rect x="251.237" y="224.813" style="fill:#FFFFFF;" width="47.921" height="20.26"/>
	</g>
</g>
<g>
</g>
<g>
</g>
<g>
</g>
<g>
</g>
<g>
</g>
<g>
</g>
<g>
</g>
<g>
</g>
<g>
</g>
<g>
</g>
<g>
</g>
<g>
</g>
<g>
</g>
<g>
</g>
<g>
</g>
</svg>
