<svg xmlns="http://www.w3.org/2000/svg" viewBox="0 0 40 40"><defs><style>.cls-1{fill:#fff;}</style></defs><title>Asset 2</title><g id="Layer_2" data-name="Layer 2"><g id="icons"><path class="cls-1" d="M39.88,11.75a14.69,14.69,0,0,0-.93-4.86,9.8,9.8,0,0,0-2.31-3.54A9.81,9.81,0,0,0,33.1,1.05,14.7,14.7,0,0,0,28.25.12C26.11,0,25.43,0,20,0s-6.11,0-8.25.12a14.7,14.7,0,0,0-4.85.93A9.81,9.81,0,0,0,3.36,3.36,9.8,9.8,0,0,0,1.05,6.9a14.68,14.68,0,0,0-.93,4.86C0,13.89,0,14.57,0,20s0,6.11.12,8.25a14.67,14.67,0,0,0,.93,4.85,9.8,9.8,0,0,0,2.31,3.54A9.8,9.8,0,0,0,6.9,39a14.68,14.68,0,0,0,4.85.93c2.13.1,2.81.12,8.25.12s6.11,0,8.25-.12A14.68,14.68,0,0,0,33.1,39a10.23,10.23,0,0,0,5.85-5.85,14.67,14.67,0,0,0,.93-4.85C40,26.11,40,25.43,40,20S40,13.89,39.88,11.75Zm-3.6,16.33a11.08,11.08,0,0,1-.69,3.71,6.63,6.63,0,0,1-3.8,3.79,11.09,11.09,0,0,1-3.71.69c-2.11.1-2.74.12-8.08.12s-6,0-8.08-.12a11.09,11.09,0,0,1-3.71-.69,6.18,6.18,0,0,1-2.3-1.5,6.19,6.19,0,0,1-1.5-2.3,11.08,11.08,0,0,1-.69-3.71C3.62,26,3.6,25.34,3.6,20s0-6,.12-8.08a11.06,11.06,0,0,1,.69-3.71,6.21,6.21,0,0,1,1.5-2.3,6.21,6.21,0,0,1,2.3-1.5,11.06,11.06,0,0,1,3.71-.69C14,3.62,14.66,3.6,20,3.6s6,0,8.08.12a11.06,11.06,0,0,1,3.71.69,6.21,6.21,0,0,1,2.3,1.5,6.2,6.2,0,0,1,1.5,2.3,11.06,11.06,0,0,1,.69,3.71c.1,2.11.12,2.74.12,8.08S36.38,26,36.28,28.08ZM20,9.73A10.27,10.27,0,1,0,30.27,20,10.27,10.27,0,0,0,20,9.73Zm0,16.94A6.67,6.67,0,1,1,26.67,20,6.67,6.67,0,0,1,20,26.67ZM30.68,6.92a2.4,2.4,0,1,0,2.4,2.4A2.4,2.4,0,0,0,30.68,6.92Z"/></g></g></svg>