<?xml version="1.0" encoding="iso-8859-1"?>
<!-- Generator: Adobe Illustrator 19.1.0, SVG Export Plug-In . SVG Version: 6.00 Build 0)  -->
<svg version="1.1" id="Capa_1" xmlns="http://www.w3.org/2000/svg" xmlns:xlink="http://www.w3.org/1999/xlink" x="0px" y="0px"
	 viewBox="0 0 478.615 478.615" style="enable-background:new 0 0 478.615 478.615;" xml:space="preserve">
<g>
	<g>
		<path style="fill:#AFEBFF;" d="M444.496,270.605c0-114.876-93.129-208.007-208.011-208.007
			c-114.883,0-208.012,93.131-208.012,208.007c0,114.88,93.129,208.01,208.012,208.01
			C351.367,478.615,444.496,385.484,444.496,270.605z"/>
		<path style="fill:#E2F8FF;" d="M93.182,142.15c7.034,8.699,20.787,22.198,38.789,22.854c0.46,0.018,0.918,0.026,1.377,0.026
			c13.883,0,27.21-7.687,39.708-22.88c7.033,8.699,20.788,22.198,38.79,22.854c0.46,0.018,0.918,0.026,1.377,0.026
			c13.883,0,27.21-7.687,39.708-22.88c7.033,8.699,20.787,22.198,38.79,22.854c0.46,0.018,0.917,0.026,1.377,0.026
			c15.84,0,30.956-10.003,44.943-29.747c1.84-2.599,1.224-6.194-1.371-8.034c-2.602-1.841-6.194-1.226-8.034,1.371
			c-11.7,16.52-23.662,24.885-35.57,24.885c-0.294,0-0.588-0.004-0.884-0.016c-16.103-0.561-28.735-16.181-33.014-22.196
			c-0.182-1.569-0.984-3.059-2.372-4.043c-1.105-0.782-2.39-1.095-3.643-1.026c-1.171-0.1-2.381,0.14-3.462,0.797
			c-1.499,0.906-2.412,2.389-2.679,3.992c-11.141,14.923-22.504,22.493-33.82,22.493c-0.295,0-0.589-0.004-0.885-0.016
			c-16.103-0.561-28.736-16.181-33.014-22.196c-0.182-1.569-0.983-3.059-2.373-4.043c-1.106-0.782-2.389-1.095-3.643-1.026
			c-1.17-0.1-2.38,0.14-3.462,0.797c-1.499,0.906-2.412,2.389-2.679,3.992c-11.141,14.923-22.504,22.493-33.82,22.493
			c-0.295,0-0.589-0.004-0.885-0.016c-16.103-0.561-28.733-16.181-33.013-22.196c-0.18-1.569-0.983-3.059-2.371-4.043
			c-1.106-0.782-2.389-1.095-3.642-1.026c-1.171-0.1-2.382,0.14-3.462,0.797c-1.501,0.906-2.412,2.389-2.678,3.992
			c-6.652,8.908-13.378,15.172-20.13,18.793c-3.463,4.847-6.715,9.856-9.761,14.999C69.853,163.495,81.857,155.916,93.182,142.15z"
			/>
		<path style="fill:#F2AA99;" d="M154.702,302.372c0,0,25.754-71.418,52.318-66.004c26.564,5.416,67.276,65.217,67.276,65.217
			S223.622,338.036,154.702,302.372z"/>
		<path style="fill:#F4B7A9;" d="M215.052,309.71c-1.666-1.476-0.467-178.754,16.382-197.896
			c16.849-19.141,150.141-46.157,183.432-51.918c0,0-13.444-48.016-1.105-59.359c7.387-6.788,39.212,52.676,36.18,69.962
			c-1.797,10.249-24.997,19.128-24.997,19.128s-83.014,59.838-133.222,73.737c0,0,11.817,35.856,27.426,105.602
			C344.778,383.503,239.805,331.65,215.052,309.71z"/>
		<path style="opacity:0.44;fill:#F2AA99;" d="M422.974,6.198c10.567,17.323,21.525,43.264,19.689,53.738
			c-1.797,10.248-24.996,19.125-24.996,19.125s-83.014,59.839-133.222,73.738c0,0,11.817,35.855,27.426,105.603
			c23.699,105.898-64.247,69.558-97.211,46.133c0.096,3.188,0.231,5.028,0.394,5.173c24.753,21.939,129.726,73.793,104.096-40.744
			c-15.61-69.747-27.426-105.602-27.426-105.602c50.208-13.899,133.222-73.737,133.222-73.737s23.2-8.878,24.997-19.128
			C452.211,57.543,434.9,20.884,422.974,6.198z"/>
		<path style="fill:#AFEBFF;" d="M121.017,306.718c2.142-5.971,11.28-12.959,17.239-14.454c9.587-2.403,13.775,3.027,20.242,7.756
			c12.12,8.863,27.9,12.249,43.187,11.497c18.31-0.901,20.519-22.232,38.368-11.546c12.295,7.359,29.833,21.132,44.435,15.623
			c12.317-4.648,18.233-19.457,29.365-24.097c7.801,14.728,23.719,27.634,27.876,44.051c8.052,31.799-69,56.027-89.221,58.617
			c-26.643,3.418-39.779-8.753-61.214-21.445c-11.316-6.698-22.771-9.385-34.528-14.578c-6.959-3.072-37.642-23.131-32.868-28.38
			L121.017,306.718z"/>
		<path style="fill:#E2F8FF;" d="M433.249,311.35c-0.294,0-0.589-0.004-0.885-0.016c-16.102-0.56-28.735-16.181-33.013-22.196
			c-0.182-1.57-0.984-3.058-2.373-4.043c-1.105-0.782-2.39-1.096-3.643-1.025c-1.17-0.1-2.379,0.14-3.462,0.795
			c-1.499,0.908-2.412,2.391-2.678,3.992c-11.142,14.924-22.505,22.493-33.821,22.493c-0.294,0-0.589-0.004-0.884-0.016
			c-16.103-0.56-28.735-16.181-33.014-22.196c-0.181-1.57-0.982-3.058-2.372-4.043c-1.107-0.782-2.39-1.096-3.642-1.025
			c-1.171-0.1-2.381,0.14-3.463,0.795c-1.499,0.908-2.413,2.391-2.679,3.992c-11.141,14.924-22.504,22.493-33.82,22.493
			c-0.295,0-0.589-0.004-0.886-0.016c-16.102-0.56-28.735-16.181-33.013-22.196c-0.182-1.57-0.982-3.058-2.373-4.043
			c-1.106-0.782-2.39-1.096-3.643-1.025c-1.17-0.1-2.379,0.14-3.462,0.795c-1.499,0.908-2.411,2.391-2.678,3.992
			c-11.141,14.924-22.504,22.493-33.82,22.493c-0.294,0-0.589-0.004-0.885-0.016c-19.787-0.687-34.338-24.122-34.581-24.52
			c-1.647-2.721-5.186-3.597-7.91-1.949c-2.724,1.646-3.598,5.187-1.951,7.912c0.716,1.187,17.889,29.122,43.982,30.072
			c0.46,0.016,0.917,0.026,1.377,0.026c13.884,0,27.211-7.686,39.708-22.879c7.034,8.699,20.788,22.198,38.79,22.853
			c0.46,0.016,0.918,0.026,1.377,0.026c13.883,0,27.211-7.686,39.708-22.879c7.033,8.699,20.787,22.198,38.789,22.853
			c0.46,0.016,0.918,0.026,1.377,0.026c13.884,0,27.211-7.686,39.708-22.879c7.034,8.699,20.788,22.198,38.791,22.853
			c0.459,0.016,0.917,0.026,1.376,0.026c1.567,0,3.123-0.125,4.674-0.319c1.043-4.06,1.952-8.171,2.754-12.319
			C438.221,310.962,435.734,311.35,433.249,311.35z"/>
		<path style="opacity:0.56;fill:#9ACEE0;" d="M428.281,285.681c-57.016,0-103.236,7.955-103.236,17.766
			c0,9.811,46.22,17.766,103.236,17.766c3.381,0,6.724-0.03,10.023-0.084c2.845-11.406,4.755-23.181,5.631-35.246
			C438.829,285.752,433.601,285.681,428.281,285.681z"/>
		<path style="opacity:0.41;fill:#F89BA0;" d="M249.035,104.253c3.097,2.784,0.965,10.204-4.758,16.576
			c-5.727,6.372-12.879,9.281-15.972,6.501c-3.096-2.783-0.966-10.204,4.759-16.575C238.79,104.384,245.943,101.475,249.035,104.253
			z"/>
		<path style="opacity:0.49;fill:#F89BA0;" d="M215.393,242.982c0.213,4.157-5.293,7.815-12.295,8.174
			c-7.002,0.356-12.854-2.725-13.064-6.877c-0.213-4.158,5.293-7.816,12.295-8.175C209.334,235.746,215.183,238.83,215.393,242.982z
			"/>
	</g>
	<path style="fill:#E2F8FF;" d="M135.634,446.401c13.884,0,27.21-7.687,39.708-22.879c7.034,8.698,20.788,22.198,38.791,22.852
		c0.459,0.017,0.917,0.027,1.377,0.027c15.84,0,30.956-10.003,44.942-29.749c1.84-2.598,1.225-6.192-1.372-8.034
		c-2.601-1.84-6.193-1.223-8.033,1.373c-11.7,16.517-23.661,24.883-35.57,24.883c-0.294,0-0.588-0.004-0.885-0.015
		c-16.102-0.559-28.734-16.182-33.013-22.197c-0.182-1.568-0.983-3.059-2.372-4.043c-1.106-0.781-2.39-1.095-3.643-1.026
		c-1.17-0.1-2.38,0.143-3.462,0.799c-1.499,0.907-2.412,2.389-2.679,3.992c-11.141,14.922-22.505,22.491-33.82,22.491
		c-0.295,0-0.589-0.004-0.886-0.015c-16.102-0.559-28.735-16.182-33.011-22.197c-0.184-1.568-0.983-3.059-2.375-4.043
		c-1.107-0.781-2.39-1.095-3.642-1.026c-1.171-0.1-2.379,0.143-3.463,0.799c-1.497,0.907-2.413,2.389-2.678,3.992
		c-0.784,1.053-1.572,2.06-2.363,3.042c10.083,10.39,21.236,19.741,33.287,27.854c4.246,1.749,8.849,2.916,13.786,3.096
		C134.717,446.391,135.175,446.401,135.634,446.401z"/>
</g>
<g>
</g>
<g>
</g>
<g>
</g>
<g>
</g>
<g>
</g>
<g>
</g>
<g>
</g>
<g>
</g>
<g>
</g>
<g>
</g>
<g>
</g>
<g>
</g>
<g>
</g>
<g>
</g>
<g>
</g>
</svg>
